<?xml version="1.0" encoding="UTF-8" standalone="no"?>
<!-- Created with Inkscape (http://www.inkscape.org/) -->

<svg
   version="1.1"
   id="svg2"
   width="346.66666"
   height="106.62693"
   viewBox="0 0 346.66666 106.62693"
   xmlns="http://www.w3.org/2000/svg"
   xmlns:svg="http://www.w3.org/2000/svg">
  <defs
     id="defs6">
    <clipPath
       clipPathUnits="userSpaceOnUse"
       id="clipPath26">
      <path
         d="M 0,0 H 260 V 80 H 0 Z"
         id="path24" />
    </clipPath>
  </defs>
  <g
     id="g10"
     transform="matrix(1.3333333,0,0,-1.3333333,0,106.668)">
    <path
       d="M 0,18.472 H 61.529 V 80.001 H 0 Z"
       style="fill:#ffffff;fill-opacity:1;fill-rule:nonzero;stroke:none"
       id="path12" />
    <path
       d="M 198.472,18.472 H 260 v 61.529 h -61.528 z"
       style="fill:#ffffff;fill-opacity:1;fill-rule:nonzero;stroke:none"
       id="path14" />
    <path
       d="m 66.154,18.472 h 61.529 V 80.001 H 66.154 Z"
       style="fill:#ffffff;fill-opacity:1;fill-rule:nonzero;stroke:none"
       id="path16" />
    <path
       d="m 132.318,18.472 h 61.529 v 61.529 h -61.529 z"
       style="fill:#ffffff;fill-opacity:1;fill-rule:nonzero;stroke:none"
       id="path18" />
    <g
       id="g20">
      <g
         id="g22"
         clip-path="url(#clipPath26)">
        <g
           id="g28"
           transform="translate(29.1256,59.9966)"
           style="fill:#000000">
          <path
             d="m 0,0 11.075,-28.905 h 5.811 L 1.639,6.357 Z m -12.068,-25.577 c -0.53,-1.126 -1.201,-1.929 -2.012,-2.409 -0.812,-0.48 -1.598,-0.72 -2.359,-0.72 h -0.447 v -0.497 h 10.181 v 0.497 h -0.447 c -0.397,0 -0.787,0.124 -1.167,0.373 -0.381,0.248 -0.654,0.603 -0.819,1.067 -0.166,0.464 -0.133,1.026 0.099,1.689 z M 1.192,6.357 C 1.192,6.059 1.093,5.612 0.894,5.016 0.695,4.42 0.472,3.807 0.223,3.179 -0.025,2.549 -0.257,2.011 -0.472,1.564 -0.688,1.117 -0.812,0.861 -0.844,0.795 l -12.764,-29.849 h 3.228 L 2.036,2.036 1.639,6.357 Z M -7.152,-17.929 H 8.045 v 1.689 H -7.152 Z m 16.787,-9.957 c -0.497,-0.547 -1.076,-0.82 -1.738,-0.82 H 7.45 v -0.497 h 12.714 v 0.497 h -0.398 c -0.762,0 -1.548,0.24 -2.359,0.72 -0.811,0.48 -1.482,1.283 -2.011,2.409 H 9.784 c 0.397,-0.993 0.348,-1.763 -0.149,-2.309"
             style="fill:#000000;fill-opacity:1;fill-rule:nonzero;stroke:none"
             id="path30" />
        </g>
        <path
           d="m 226.951,30.794 h 4.619 v 34.765 h -4.619 z m 0,3.626 c -0.033,-0.862 -0.356,-1.598 -0.968,-2.211 -0.613,-0.613 -1.349,-0.918 -2.21,-0.918 h -0.646 v -0.497 h 3.973 v 3.626 z m 0.149,31.139 h -3.973 v -0.497 h 0.646 c 0.861,0 1.597,-0.306 2.21,-0.918 0.612,-0.613 0.935,-1.35 0.968,-2.21 h 0.149 z m 4.321,-34.765 h 3.973 v 0.497 h -0.645 c -0.862,0 -1.598,0.305 -2.21,0.918 -0.613,0.613 -0.936,1.349 -0.969,2.211 h -0.149 z m 0.149,31.14 c 0.033,0.86 0.356,1.597 0.969,2.21 0.612,0.612 1.348,0.918 2.21,0.918 h 0.645 v 0.497 h -3.973 v -3.625 z"
           style="fill:#000000;fill-opacity:1;fill-rule:nonzero;stroke:none"
           id="path32" />
        <g
           id="g34"
           transform="translate(115.2196,46.9349)"
           style="fill:#000000">
          <path
             d="M 0,0 H 0.745 V 0.497 H -10.38 V 0 h 0.795 c 1.688,0 2.533,-0.745 2.533,-2.235 l -0.05,-8.393 c -0.729,-0.961 -1.639,-1.772 -2.732,-2.434 -1.092,-0.662 -2.276,-1.175 -3.551,-1.539 -1.274,-0.365 -2.591,-0.547 -3.948,-0.547 -2.682,0.033 -5.008,0.721 -6.978,2.061 -1.97,1.341 -3.501,3.236 -4.594,5.687 -1.092,2.45 -1.639,5.297 -1.639,8.542 0,3.344 0.555,6.249 1.664,8.716 1.109,2.466 2.682,4.379 4.718,5.737 2.037,1.357 4.428,2.036 7.177,2.036 2.052,0 3.915,-0.332 5.587,-0.993 1.672,-0.663 3.087,-1.648 4.246,-2.956 1.159,-1.308 2.003,-2.988 2.533,-5.04 h 0.447 l -0.695,7.499 c -0.961,0.596 -2.07,1.134 -3.328,1.614 -1.258,0.48 -2.665,0.861 -4.221,1.142 -1.557,0.281 -3.245,0.422 -5.066,0.422 -3.642,0 -6.829,-0.745 -9.56,-2.234 -2.732,-1.49 -4.86,-3.593 -6.382,-6.308 -1.523,-2.715 -2.285,-5.894 -2.285,-9.535 0,-3.643 0.762,-6.813 2.285,-9.511 1.522,-2.699 3.65,-4.793 6.382,-6.283 2.731,-1.49 5.885,-2.251 9.461,-2.284 2.582,0 4.858,0.323 6.829,0.968 1.969,0.646 3.65,1.465 5.041,2.459 1.39,0.993 2.466,1.986 3.228,2.979 v 8.195 C -2.55,-0.745 -1.722,0 0,0"
             style="fill:#000000;fill-opacity:1;fill-rule:nonzero;stroke:none"
             id="path36" />
        </g>
        <g
           id="g38"
           transform="translate(155.5084,65.559)"
           style="fill:#000000">
          <path
             d="m 0,0 c 0.165,-0.596 0.289,-1.035 0.372,-1.316 0.083,-0.282 0.125,-0.439 0.125,-0.472 h 5.165 c 1.49,0 2.756,-0.257 3.799,-0.77 1.043,-0.513 1.829,-1.291 2.359,-2.334 0.529,-1.043 0.795,-2.343 0.795,-3.899 0,-1.49 -0.241,-2.706 -0.72,-3.65 -0.481,-0.944 -1.11,-1.664 -1.888,-2.16 -0.778,-0.497 -1.597,-0.845 -2.458,-1.043 -0.861,-0.199 -1.672,-0.298 -2.434,-0.298 v -0.447 c 1.159,0 2.342,-0.124 3.551,-0.373 1.209,-0.248 2.31,-0.679 3.303,-1.291 0.993,-0.613 1.804,-1.474 2.434,-2.583 0.628,-1.109 0.943,-2.525 0.943,-4.246 0,-1.722 -0.315,-3.178 -0.943,-4.37 -0.63,-1.192 -1.532,-2.086 -2.707,-2.682 C 10.52,-32.53 9.105,-32.828 7.45,-32.828 H 3.03 c 0,-0.629 -0.018,-1.275 -0.05,-1.937 h 5.314 c 2.582,0 4.8,0.38 6.655,1.142 1.854,0.762 3.269,1.854 4.246,3.278 0.976,1.423 1.465,3.096 1.465,5.016 0,1.721 -0.347,3.245 -1.043,4.569 -0.695,1.324 -1.697,2.417 -3.004,3.278 -1.309,0.861 -2.823,1.407 -4.545,1.639 0.96,0.231 1.871,0.653 2.732,1.267 0.861,0.612 1.564,1.44 2.111,2.483 0.546,1.043 0.819,2.292 0.819,3.749 0,1.755 -0.455,3.253 -1.366,4.495 -0.911,1.242 -2.218,2.193 -3.923,2.856 C 10.735,-0.331 8.708,0 6.357,0 Z M -1.192,-34.765 H 3.427 V 0 h -4.619 z m 0,3.626 c 0,-0.862 -0.315,-1.598 -0.944,-2.211 -0.629,-0.613 -1.374,-0.918 -2.234,-0.918 h -0.274 -0.322 l -0.05,-0.497 h 3.973 v 3.626 z M -1.043,0 h -3.973 l 0.05,-0.497 h 0.322 0.274 c 0.86,0 1.605,-0.306 2.234,-0.918 0.629,-0.613 0.944,-1.35 0.944,-2.21 h 0.149 z"
             style="fill:#000000;fill-opacity:1;fill-rule:nonzero;stroke:none"
             id="path40" />
        </g>
        <g
           id="g42"
           transform="translate(3.0039,4.8848)"
           style="fill:#ff0000">
          <path
             d="m 0,0 h 5.312 l 0.269,-1.787 h -5.85 z M 0.964,-0.632 1.012,-1.138 -0.443,-4.3 H -2.988 L 2.624,7.415 8.237,-4.3 H 5.676 L 4.253,-1.233 4.285,-0.664 2.624,3.178 Z M 14.102,0.854 17.707,-4.3 h -2.672 l -3.32,5.154 z M 11.462,-4.3 H 9.201 V 6.767 h 2.261 z M 10.577,6.767 h 2.34 c 0.874,0 1.618,-0.148 2.229,-0.443 0.611,-0.295 1.08,-0.706 1.407,-1.233 0.327,-0.527 0.49,-1.144 0.49,-1.85 0,-0.696 -0.163,-1.31 -0.49,-1.842 C 16.226,0.867 15.757,0.453 15.146,0.158 14.535,-0.137 13.791,-0.285 12.917,-0.285 h -2.34 v 1.803 h 2.197 c 0.401,0 0.746,0.065 1.036,0.197 0.29,0.132 0.514,0.322 0.672,0.57 0.158,0.247 0.237,0.545 0.237,0.893 0,0.348 -0.079,0.645 -0.237,0.893 C 14.324,4.319 14.1,4.508 13.81,4.64 13.52,4.772 13.175,4.838 12.774,4.838 H 10.577 Z M 20.964,0 h 5.312 l 0.269,-1.787 h -5.85 z M 21.928,-0.632 21.976,-1.138 20.521,-4.3 H 17.976 L 23.588,7.415 29.201,-4.3 H 26.64 l -1.423,3.067 0.031,0.569 -1.66,3.842 z m 9.85,2.972 h 1.786 c 0.327,0 0.612,0.052 0.854,0.158 0.243,0.105 0.43,0.258 0.561,0.458 0.132,0.201 0.198,0.438 0.198,0.712 0,0.421 -0.145,0.743 -0.435,0.964 -0.29,0.222 -0.682,0.332 -1.178,0.332 h -1.217 v -7.462 h 1.455 c 0.379,0 0.721,0.055 1.027,0.166 0.306,0.111 0.546,0.287 0.72,0.53 0.174,0.242 0.26,0.553 0.26,0.932 0,0.274 -0.05,0.509 -0.15,0.704 -0.1,0.195 -0.242,0.358 -0.427,0.49 -0.184,0.132 -0.398,0.227 -0.64,0.285 -0.242,0.057 -0.506,0.087 -0.79,0.087 h -2.024 v 1.233 h 2.229 c 0.538,0 1.052,-0.058 1.542,-0.174 0.49,-0.116 0.93,-0.298 1.32,-0.546 0.39,-0.247 0.698,-0.566 0.925,-0.956 0.226,-0.39 0.34,-0.859 0.34,-1.407 0,-0.727 -0.172,-1.323 -0.514,-1.787 C 37.277,-3.405 36.795,-3.747 36.173,-3.968 35.551,-4.19 34.829,-4.3 34.007,-4.3 H 30.086 V 6.767 h 3.684 c 0.738,0 1.386,-0.103 1.945,-0.309 C 36.273,6.253 36.711,5.945 37.027,5.533 37.343,5.122 37.501,4.601 37.501,3.968 37.501,3.41 37.343,2.93 37.027,2.53 36.711,2.129 36.273,1.826 35.715,1.621 35.156,1.415 34.508,1.312 33.77,1.312 H 31.778 Z M 42.276,-4.3 H 39.984 V 6.767 h 2.292 z M 46.149,0 h 5.312 L 51.73,-1.787 H 45.88 Z M 47.113,-0.632 47.161,-1.138 45.706,-4.3 H 43.161 L 48.773,7.415 54.386,-4.3 h -2.561 l -1.423,3.067 0.032,0.569 -1.661,3.842 z M 65.326,6.767 V -4.854 L 57.453,2.561 V -4.3 H 55.271 V 7.32 l 7.874,-7.415 V 6.767 Z M 77.532,1.613 h 5.454 c 0.032,-0.844 -0.066,-1.639 -0.293,-2.388 -0.226,-0.748 -0.579,-1.41 -1.059,-1.984 -0.48,-0.574 -1.072,-1.025 -1.778,-1.352 -0.707,-0.326 -1.513,-0.49 -2.419,-0.49 -0.854,0 -1.642,0.143 -2.364,0.427 -0.722,0.285 -1.349,0.685 -1.881,1.202 -0.533,0.516 -0.944,1.133 -1.234,1.849 -0.29,0.717 -0.434,1.502 -0.434,2.356 0,0.854 0.15,1.637 0.45,2.348 0.301,0.711 0.72,1.32 1.257,1.826 0.538,0.506 1.17,0.896 1.897,1.17 0.728,0.274 1.518,0.411 2.372,0.411 0.759,0 1.441,-0.105 2.047,-0.316 C 80.153,6.461 80.691,6.168 81.16,5.794 81.629,5.42 82.032,4.975 82.369,4.458 L 80.441,3.336 c -0.275,0.485 -0.657,0.877 -1.147,1.178 -0.49,0.3 -1.088,0.45 -1.794,0.45 -0.664,0 -1.27,-0.15 -1.818,-0.45 C 75.134,4.213 74.699,3.784 74.377,3.225 74.056,2.666 73.895,2.002 73.895,1.233 c 0,-0.759 0.158,-1.425 0.475,-2 0.316,-0.574 0.745,-1.02 1.288,-1.336 0.543,-0.316 1.157,-0.474 1.842,-0.474 0.453,0 0.859,0.06 1.217,0.182 0.358,0.121 0.667,0.292 0.925,0.514 0.258,0.221 0.477,0.474 0.656,0.758 0.179,0.285 0.316,0.596 0.411,0.933 h -3.177 z m 9.327,5.154 v -7.289 c 0,-0.632 0.166,-1.141 0.498,-1.525 0.332,-0.385 0.825,-0.577 1.478,-0.577 0.654,0 1.147,0.192 1.479,0.577 0.332,0.384 0.498,0.893 0.498,1.525 v 7.289 h 2.261 v -7.431 c 0,-0.654 -0.106,-1.228 -0.317,-1.723 -0.211,-0.496 -0.508,-0.912 -0.893,-1.249 -0.385,-0.338 -0.835,-0.593 -1.352,-0.767 -0.516,-0.174 -1.075,-0.261 -1.676,-0.261 -0.611,0 -1.175,0.087 -1.691,0.261 -0.517,0.174 -0.965,0.429 -1.344,0.767 -0.38,0.337 -0.675,0.753 -0.885,1.249 -0.211,0.495 -0.317,1.069 -0.317,1.723 v 7.431 z m 10.466,0 v -9.091 h 4.411 V -4.3 H 95.064 V 6.767 Z m 7.162,0 h 4.949 V 4.791 h -4.949 z m 0,-4.459 h 4.79 V 0.427 h -4.79 z m 0.727,-6.608 h -2.182 V 6.767 h 2.182 z m 12.727,6.64 h 1.787 c 0.326,0 0.611,0.052 0.853,0.158 0.243,0.105 0.43,0.258 0.562,0.458 0.131,0.201 0.197,0.438 0.197,0.712 0,0.421 -0.145,0.743 -0.435,0.964 -0.29,0.222 -0.682,0.332 -1.177,0.332 h -1.218 v -7.462 h 1.455 c 0.379,0 0.722,0.055 1.027,0.166 0.306,0.111 0.546,0.287 0.72,0.53 0.174,0.242 0.261,0.553 0.261,0.932 0,0.274 -0.05,0.509 -0.151,0.704 -0.1,0.195 -0.242,0.358 -0.426,0.49 -0.185,0.132 -0.398,0.227 -0.641,0.285 -0.242,0.057 -0.506,0.087 -0.79,0.087 h -2.024 v 1.233 h 2.229 c 0.538,0 1.052,-0.058 1.542,-0.174 0.49,-0.116 0.93,-0.298 1.32,-0.546 0.39,-0.247 0.698,-0.566 0.925,-0.956 0.226,-0.39 0.34,-0.859 0.34,-1.407 0,-0.727 -0.172,-1.323 -0.514,-1.787 -0.343,-0.464 -0.825,-0.806 -1.447,-1.027 C 121.714,-4.19 120.992,-4.3 120.17,-4.3 h -3.921 V 6.767 h 3.684 c 0.738,0 1.386,-0.103 1.945,-0.309 0.558,-0.205 0.996,-0.513 1.312,-0.925 0.316,-0.411 0.474,-0.932 0.474,-1.565 0,-0.558 -0.158,-1.038 -0.474,-1.438 -0.316,-0.401 -0.754,-0.704 -1.312,-0.909 -0.559,-0.206 -1.207,-0.309 -1.945,-0.309 h -1.992 z m 10.15,4.427 v -7.289 c 0,-0.632 0.166,-1.141 0.498,-1.525 0.332,-0.385 0.825,-0.577 1.478,-0.577 0.654,0 1.147,0.192 1.479,0.577 0.332,0.384 0.498,0.893 0.498,1.525 v 7.289 h 2.26 v -7.431 c 0,-0.654 -0.105,-1.228 -0.316,-1.723 -0.211,-0.496 -0.508,-0.912 -0.893,-1.249 -0.385,-0.338 -0.836,-0.593 -1.352,-0.767 -0.516,-0.174 -1.075,-0.261 -1.676,-0.261 -0.611,0 -1.175,0.087 -1.691,0.261 -0.517,0.174 -0.965,0.429 -1.344,0.767 -0.38,0.337 -0.675,0.753 -0.886,1.249 -0.211,0.495 -0.316,1.069 -0.316,1.723 v 7.431 z m 9.936,-8.427 c 0.28,-0.306 0.588,-0.543 0.925,-0.712 0.338,-0.168 0.701,-0.252 1.091,-0.252 0.453,0 0.822,0.115 1.107,0.347 0.284,0.232 0.427,0.548 0.427,0.949 0,0.348 -0.087,0.627 -0.261,0.838 -0.174,0.211 -0.432,0.398 -0.775,0.561 -0.342,0.163 -0.761,0.34 -1.257,0.53 -0.263,0.095 -0.566,0.224 -0.909,0.387 -0.342,0.163 -0.667,0.374 -0.972,0.633 -0.306,0.258 -0.559,0.574 -0.759,0.948 -0.2,0.374 -0.3,0.825 -0.3,1.352 0,0.632 0.16,1.178 0.482,1.636 0.321,0.459 0.759,0.812 1.312,1.059 0.553,0.248 1.173,0.372 1.858,0.372 0.706,0 1.314,-0.119 1.826,-0.356 0.511,-0.237 0.938,-0.537 1.28,-0.901 0.343,-0.364 0.609,-0.74 0.799,-1.13 L 142.13,3.62 c -0.148,0.264 -0.324,0.504 -0.53,0.72 -0.205,0.216 -0.44,0.39 -0.703,0.522 -0.264,0.131 -0.564,0.197 -0.901,0.197 -0.443,0 -0.775,-0.103 -0.996,-0.308 -0.222,-0.206 -0.332,-0.446 -0.332,-0.719 0,-0.275 0.089,-0.514 0.268,-0.72 0.18,-0.205 0.454,-0.401 0.823,-0.585 0.368,-0.184 0.832,-0.371 1.391,-0.561 0.358,-0.127 0.703,-0.285 1.035,-0.474 0.332,-0.19 0.633,-0.419 0.902,-0.688 0.268,-0.269 0.479,-0.585 0.632,-0.949 0.153,-0.363 0.229,-0.782 0.229,-1.257 0,-0.537 -0.105,-1.017 -0.316,-1.438 -0.211,-0.422 -0.501,-0.778 -0.869,-1.067 -0.37,-0.29 -0.783,-0.512 -1.242,-0.664 -0.458,-0.153 -0.94,-0.23 -1.446,-0.23 -0.675,0 -1.305,0.129 -1.889,0.388 -0.585,0.258 -1.094,0.608 -1.526,1.051 -0.432,0.443 -0.77,0.922 -1.012,1.439 l 1.613,1.138 c 0.231,-0.411 0.487,-0.769 0.766,-1.075 M 148.09,-4.3 h -2.292 V 6.767 h 2.292 z M 160.375,6.767 V -4.854 l -7.874,7.415 V -4.3 h -2.182 V 7.32 l 7.874,-7.415 v 6.862 z m 3.699,-9.154 h 5.581 V -4.3 h -5.581 z m 0,9.154 h 5.581 V 4.854 h -5.581 z m 0,-4.253 h 5.265 V 0.633 h -5.265 z m 0.727,-6.814 h -2.182 V 6.767 h 2.182 z m 8.498,2.64 c 0.279,-0.306 0.588,-0.543 0.925,-0.712 0.337,-0.168 0.701,-0.252 1.091,-0.252 0.453,0 0.822,0.115 1.107,0.347 0.284,0.232 0.427,0.548 0.427,0.949 0,0.348 -0.087,0.627 -0.261,0.838 -0.174,0.211 -0.433,0.398 -0.775,0.561 -0.343,0.163 -0.762,0.34 -1.257,0.53 -0.263,0.095 -0.567,0.224 -0.909,0.387 -0.343,0.163 -0.667,0.374 -0.972,0.633 -0.306,0.258 -0.559,0.574 -0.759,0.948 -0.201,0.374 -0.301,0.825 -0.301,1.352 0,0.632 0.161,1.178 0.483,1.636 0.321,0.459 0.759,0.812 1.312,1.059 0.553,0.248 1.172,0.372 1.858,0.372 0.706,0 1.314,-0.119 1.826,-0.356 0.511,-0.237 0.938,-0.537 1.28,-0.901 0.343,-0.364 0.609,-0.74 0.799,-1.13 L 177.402,3.62 c -0.148,0.264 -0.324,0.504 -0.53,0.72 -0.205,0.216 -0.44,0.39 -0.703,0.522 -0.264,0.131 -0.564,0.197 -0.901,0.197 -0.443,0 -0.775,-0.103 -0.996,-0.308 -0.222,-0.206 -0.333,-0.446 -0.333,-0.719 0,-0.275 0.09,-0.514 0.269,-0.72 0.179,-0.205 0.453,-0.401 0.822,-0.585 0.369,-0.184 0.833,-0.371 1.392,-0.561 0.358,-0.127 0.703,-0.285 1.035,-0.474 0.332,-0.19 0.633,-0.419 0.901,-0.688 0.269,-0.269 0.48,-0.585 0.633,-0.949 0.152,-0.363 0.229,-0.782 0.229,-1.257 0,-0.537 -0.105,-1.017 -0.316,-1.438 -0.211,-0.422 -0.501,-0.778 -0.87,-1.067 -0.369,-0.29 -0.782,-0.512 -1.241,-0.664 -0.458,-0.153 -0.94,-0.23 -1.446,-0.23 -0.675,0 -1.305,0.129 -1.89,0.388 -0.585,0.258 -1.093,0.608 -1.525,1.051 -0.433,0.443 -0.77,0.922 -1.012,1.439 l 1.612,1.138 c 0.232,-0.411 0.488,-0.769 0.767,-1.075 m 9.502,0 c 0.279,-0.306 0.587,-0.543 0.925,-0.712 0.337,-0.168 0.701,-0.252 1.091,-0.252 0.453,0 0.822,0.115 1.106,0.347 0.285,0.232 0.427,0.548 0.427,0.949 0,0.348 -0.087,0.627 -0.261,0.838 -0.173,0.211 -0.432,0.398 -0.774,0.561 -0.343,0.163 -0.762,0.34 -1.257,0.53 -0.264,0.095 -0.567,0.224 -0.909,0.387 -0.343,0.163 -0.667,0.374 -0.973,0.633 -0.305,0.258 -0.558,0.574 -0.758,0.948 -0.201,0.374 -0.301,0.825 -0.301,1.352 0,0.632 0.161,1.178 0.482,1.636 0.322,0.459 0.759,0.812 1.313,1.059 0.553,0.248 1.172,0.372 1.857,0.372 0.706,0 1.315,-0.119 1.826,-0.356 0.511,-0.237 0.938,-0.537 1.281,-0.901 0.342,-0.364 0.609,-0.74 0.798,-1.13 l -1.77,-0.981 c -0.148,0.264 -0.324,0.504 -0.53,0.72 -0.206,0.216 -0.44,0.39 -0.704,0.522 -0.263,0.131 -0.563,0.197 -0.901,0.197 -0.442,0 -0.774,-0.103 -0.996,-0.308 -0.221,-0.206 -0.332,-0.446 -0.332,-0.719 0,-0.275 0.09,-0.514 0.269,-0.72 0.179,-0.205 0.453,-0.401 0.822,-0.585 0.369,-0.184 0.833,-0.371 1.391,-0.561 0.359,-0.127 0.704,-0.285 1.036,-0.474 0.332,-0.19 0.632,-0.419 0.901,-0.688 0.269,-0.269 0.48,-0.585 0.633,-0.949 0.152,-0.363 0.229,-0.782 0.229,-1.257 0,-0.537 -0.106,-1.017 -0.316,-1.438 -0.211,-0.422 -0.501,-0.778 -0.87,-1.067 -0.369,-0.29 -0.783,-0.512 -1.241,-0.664 -0.459,-0.153 -0.941,-0.23 -1.447,-0.23 -0.674,0 -1.304,0.129 -1.889,0.388 -0.585,0.258 -1.094,0.608 -1.526,1.051 -0.432,0.443 -0.769,0.922 -1.011,1.439 l 1.612,1.138 c 0.232,-0.411 0.488,-0.769 0.767,-1.075 m 14.806,-2.64 h -2.292 V 6.767 h 2.292 z M 209.812,6.767 V -4.854 l -7.873,7.415 V -4.3 h -2.182 V 7.32 l 7.873,-7.415 v 6.862 z m 3.502,-8.427 c 0.279,-0.306 0.587,-0.543 0.925,-0.712 0.337,-0.168 0.7,-0.252 1.091,-0.252 0.453,0 0.822,0.115 1.106,0.347 0.285,0.232 0.427,0.548 0.427,0.949 0,0.348 -0.087,0.627 -0.261,0.838 -0.174,0.211 -0.432,0.398 -0.774,0.561 -0.343,0.163 -0.762,0.34 -1.257,0.53 -0.264,0.095 -0.567,0.224 -0.909,0.387 -0.343,0.163 -0.667,0.374 -0.973,0.633 -0.306,0.258 -0.559,0.574 -0.759,0.948 -0.2,0.374 -0.3,0.825 -0.3,1.352 0,0.632 0.161,1.178 0.482,1.636 0.322,0.459 0.759,0.812 1.312,1.059 0.554,0.248 1.173,0.372 1.858,0.372 0.706,0 1.315,-0.119 1.826,-0.356 0.511,-0.237 0.938,-0.537 1.281,-0.901 0.342,-0.364 0.608,-0.74 0.798,-1.13 L 217.416,3.62 c -0.147,0.264 -0.324,0.504 -0.529,0.72 -0.206,0.216 -0.44,0.39 -0.704,0.522 -0.263,0.131 -0.564,0.197 -0.901,0.197 -0.443,0 -0.775,-0.103 -0.996,-0.308 -0.221,-0.206 -0.332,-0.446 -0.332,-0.719 0,-0.275 0.09,-0.514 0.269,-0.72 0.179,-0.205 0.453,-0.401 0.822,-0.585 0.369,-0.184 0.832,-0.371 1.391,-0.561 0.358,-0.127 0.704,-0.285 1.036,-0.474 0.332,-0.19 0.632,-0.419 0.901,-0.688 0.269,-0.269 0.479,-0.585 0.632,-0.949 0.153,-0.363 0.23,-0.782 0.23,-1.257 0,-0.537 -0.106,-1.017 -0.317,-1.438 -0.211,-0.422 -0.5,-0.778 -0.869,-1.067 -0.369,-0.29 -0.783,-0.512 -1.241,-0.664 -0.459,-0.153 -0.941,-0.23 -1.447,-0.23 -0.674,0 -1.304,0.129 -1.889,0.388 -0.585,0.258 -1.094,0.608 -1.526,1.051 -0.432,0.443 -0.769,0.922 -1.012,1.439 l 1.613,1.138 c 0.232,-0.411 0.487,-0.769 0.767,-1.075 m 10.063,-2.64 h -2.292 V 6.767 h 2.292 z m 7.446,5.913 h 5.455 c 0.031,-0.844 -0.066,-1.639 -0.293,-2.388 -0.227,-0.748 -0.58,-1.41 -1.059,-1.984 -0.48,-0.574 -1.073,-1.025 -1.779,-1.352 -0.706,-0.326 -1.512,-0.49 -2.419,-0.49 -0.853,0 -1.641,0.143 -2.363,0.427 -0.722,0.285 -1.35,0.685 -1.882,1.202 -0.532,0.516 -0.943,1.133 -1.233,1.849 -0.29,0.717 -0.435,1.502 -0.435,2.356 0,0.854 0.151,1.637 0.451,2.348 0.3,0.711 0.719,1.32 1.257,1.826 0.537,0.506 1.17,0.896 1.897,1.17 0.727,0.274 1.518,0.411 2.372,0.411 0.758,0 1.441,-0.105 2.047,-0.316 0.606,-0.211 1.143,-0.504 1.613,-0.878 0.468,-0.374 0.872,-0.819 1.209,-1.336 l -1.929,-1.122 c -0.274,0.485 -0.656,0.877 -1.146,1.178 -0.49,0.3 -1.088,0.45 -1.794,0.45 -0.664,0 -1.271,-0.15 -1.819,-0.45 -0.548,-0.301 -0.983,-0.73 -1.304,-1.289 -0.322,-0.559 -0.482,-1.223 -0.482,-1.992 0,-0.759 0.158,-1.425 0.474,-2 0.316,-0.574 0.746,-1.02 1.289,-1.336 0.542,-0.316 1.156,-0.474 1.842,-0.474 0.453,0 0.858,0.06 1.217,0.182 0.358,0.121 0.666,0.292 0.925,0.514 0.258,0.221 0.477,0.474 0.656,0.758 0.179,0.285 0.316,0.596 0.411,0.933 h -3.178 z m 7.731,0.996 h 8.126 V 0.57 h -8.126 z m 8.948,-6.909 h -2.261 V 6.767 h 2.261 z m -7.43,0 h -2.261 V 6.767 h 2.261 z m 8.711,11.067 h 8.221 v -2.04 h -2.988 V -4.3 h -2.261 v 9.027 h -2.972 z"
             style="fill:#000000;fill-opacity:1;fill-rule:nonzero;stroke:none"
             id="path44" />
        </g>
      </g>
    </g>
  </g>
</svg>
