<?xml version="1.0" encoding="UTF-8" standalone="no"?>
<!-- Created with Inkscape (http://www.inkscape.org/) -->

<svg
   version="1.1"
   id="svg2"
   width="258.15067"
   height="37.602665"
   viewBox="0 0 258.15066 37.602665"
   xmlns="http://www.w3.org/2000/svg"
   xmlns:svg="http://www.w3.org/2000/svg">
  <defs
     id="defs6">
    <clipPath
       clipPathUnits="userSpaceOnUse"
       id="clipPath26">
      <path
         d="M 0,0 H 850.394 V 3401.575 H 0 Z"
         id="path24" />
    </clipPath>
    <clipPath
       clipPathUnits="userSpaceOnUse"
       id="clipPath160">
      <path
         d="M 0,0 H 850.394 V 3401.575 H 0 Z"
         id="path158" />
    </clipPath>
  </defs>
  <g
     id="g10"
     transform="matrix(1.3333333,0,0,-1.3333333,-64.461465,4450.709)">
    <g
       id="g20"
       style="fill:#ffffff">
      <g
         id="g22"
         clip-path="url(#clipPath26)"
         style="fill:#ffffff">
        <g
           id="g28"
           transform="translate(239.7741,3329.4968)"
           style="fill:#ffffff">
          <path
             d="M 0,0 H 0.247 L -0.289,7.916 H -0.618 L -1.732,6.308 h -0.041 c -0.948,1.278 -3.257,2.227 -5.69,2.227 -4.535,0 -8.04,-3.258 -8.04,-7.339 0,-5.072 3.711,-7.298 7.463,-8.865 4.206,-1.732 5.896,-3.051 5.896,-6.184 0,-2.598 -1.154,-5.154 -4.618,-5.154 -4.618,0 -7.009,4.535 -8.328,9.277 h -0.289 l 0.289,-9.112 h 0.206 l 1.154,1.855 h 0.165 c 1.072,-1.237 3.876,-2.68 6.803,-2.68 4.494,0 8.947,2.927 8.947,8.205 0,5.896 -3.463,7.009 -7.751,9.071 -2.927,1.401 -5.69,2.308 -5.69,6.184 0,2.598 1.649,4.082 3.835,4.082 2.35,0 3.628,-0.99 4.659,-2.185 C -1.649,4.494 -0.495,1.938 0,0 m -7.122,-4.446 c 6.104,-2.669 7.158,-6.309 7.158,-6.309 0,0 -1.171,3.368 -7.027,5.67 -3.245,1.275 -5.231,3.723 -6.206,6.765 l 0.012,0.031 c 1.548,-2.976 3.041,-4.835 6.063,-6.157 m -6.071,12.197 v 0.248 h -7.875 V 7.751 c 1.484,-0.082 2.886,-0.659 2.886,-2.474 0,-0.783 -0.289,-2.143 -0.701,-3.463 l -4.164,-13.73 h -0.124 L -26.634,1.69 c -0.413,1.608 -0.66,2.433 -0.66,3.505 0,1.773 1.773,2.391 3.133,2.556 V 7.999 H -36.695 V 7.792 c 1.072,-0.247 2.144,-0.618 2.886,-1.649 0.536,-0.659 0.949,-1.731 1.608,-3.71 l -4.37,-14.349 h -0.124 l -3.463,13.565 c -0.453,1.649 -0.618,2.474 -0.618,3.546 0,1.608 1.443,2.35 2.68,2.556 v 0.248 l -12.894,0.004 1.486,-0.456 c 0.078,-0.027 0.156,-0.052 0.234,-0.084 2.309,-0.825 2.886,-2.639 4.288,-7.669 l 5.319,-19.09 h 1.567 l 6.308,20.244 5.648,-20.244 h 1.567 l 6.638,21.275 c 0.619,1.979 1.031,2.969 1.443,3.711 0.825,1.443 1.855,1.855 3.299,2.061 m -25.349,-21.351 -0.031,-0.05 -2.859,8.666 -2.72,9.25 0.079,-0.055 3.065,-9.12 z m 13.428,0 -0.032,-0.05 -2.858,8.666 -2.72,9.25 0.079,-0.055 3.065,-9.12 z M -48.61,0 -49.504,7.547 c -0.415,0.142 -0.52,0.279 -0.867,0.314 l -0.301,0.138 h -17.645 l -2.901,-0.423 c -0.244,-0.018 2.447,0.173 2.249,0.14 0.253,-0.044 0.52,-0.1 0.734,-0.171 0.907,-0.289 1.567,-0.783 1.938,-1.855 0.412,-1.361 0.536,-3.876 0.536,-6.473 v -9.566 c 0,-2.556 -0.124,-5.071 -0.536,-6.432 -0.371,-1.072 -1.031,-1.566 -1.938,-1.855 -0.371,-0.124 -0.907,-0.206 -1.237,-0.248 v -0.206 h 20.986 l 0.66,8.659 h -0.206 c -0.619,-1.897 -1.691,-4.288 -3.381,-6.143 -0.949,-1.114 -2.35,-1.856 -4.412,-1.856 h -0.866 c -0.948,0 -2.103,0.165 -2.803,0.742 -1.526,1.155 -1.444,4.082 -1.444,5.855 v 6.473 h 1.485 c 2.35,0 3.339,-0.495 4.04,-1.113 1.031,-0.907 1.732,-2.763 1.897,-4.082 h 0.247 v 11.05 h -0.247 c -0.165,-1.32 -0.99,-3.299 -2.062,-4.288 -0.783,-0.742 -1.525,-0.907 -3.875,-0.907 h -1.485 v 5.607 c 0,1.814 0.042,4.618 1.65,5.772 0.618,0.495 1.402,0.66 2.35,0.66 h 1.031 c 1.649,0 2.927,-0.784 3.71,-1.608 1.485,-1.484 2.639,-3.546 3.34,-5.731 z m -14.332,-6.178 -0.036,-10.715 -0.055,-0.044 -0.416,10.789 0.229,11.384 0.075,-0.091 z m -6.777,13.723 c 0.238,0.071 0.48,0.127 0.75,0.171 -0.185,0.033 1.121,0.27 0.982,0.287 l -1.485,-0.004 h -7.421 V 7.792 c 0.536,-0.041 0.907,-0.123 1.319,-0.247 0.743,-0.206 1.485,-0.825 1.856,-1.732 0.371,-0.989 0.701,-2.267 0.701,-4.947 V -10.926 H -73.1 L -85.84,7.999 h -8.699 V 7.751 c 0.371,-0.041 0.907,-0.124 1.278,-0.288 1.031,-0.413 2.103,-1.361 2.556,-2.268 0.495,-0.99 0.907,-3.092 0.907,-6.02 v -11.173 c 0,-2.68 -0.371,-3.917 -0.783,-4.906 -0.33,-0.866 -1.031,-1.526 -1.732,-1.732 -0.453,-0.124 -0.866,-0.206 -1.443,-0.248 v -0.206 h 8.617 v 0.206 c -0.577,0.042 -0.948,0.124 -1.36,0.248 -0.701,0.206 -1.485,0.866 -1.815,1.732 -0.412,0.989 -0.701,2.226 -0.701,4.906 V 3.257 h 0.124 l 15.709,-22.635 h 0.948 V 0.866 c 0,2.68 0.33,3.958 0.701,4.947 0.371,0.907 1.072,1.526 1.814,1.732 m -4.705,-21.083 -0.016,-0.068 -6.316,8.783 -6.376,9.493 0.106,-0.033 6.695,-9.271 z m -34.009,8.961 v 0.124 c 1.196,0.247 2.474,0.66 3.257,1.031 2.227,0.989 3.794,2.597 3.794,5.318 0,4.907 -4.165,6.103 -8.659,6.103 H -122.74 V 7.792 c 0.33,-0.041 0.908,-0.123 1.237,-0.206 0.907,-0.288 1.567,-0.824 1.938,-1.896 0.412,-1.361 0.495,-3.876 0.495,-6.473 v -9.566 c 0,-2.556 -0.083,-5.071 -0.495,-6.432 -0.371,-1.072 -1.031,-1.608 -1.938,-1.896 l -0.122,-0.021 c 0.334,-0.09 0.449,-0.235 0.75,-0.265 l 0.197,-0.127 h 12.122 c 4.865,0 8.699,2.804 8.699,7.628 0,4.082 -3.875,6.597 -8.576,6.885 m 3.208,-12.748 c 1.741,1.579 2.795,3.181 2.795,5.225 0,2.044 -0.815,3.647 -2.557,5.226 h 0.027 c 1.961,-1.265 3.1,-3.065 3.1,-5.226 0,-2.16 -1.377,-3.96 -3.339,-5.225 z m -11.102,11.147 -0.17,-10.715 -0.055,-0.044 -0.282,10.789 0.095,11.384 0.075,-0.091 z m 10.19,3.685 c 1.567,1.279 2.515,2.577 2.515,4.233 0,1.655 -0.733,2.953 -2.301,4.233 h 0.024 c 1.765,-1.025 2.803,-2.484 2.803,-4.233 0,-1.75 -1.252,-3.208 -3.017,-4.233 z m -4.811,-1.795 h -3.298 v 7.092 c 0,1.401 0.041,2.144 0.165,2.803 0.33,1.361 1.36,1.732 2.638,1.732 h 0.536 c 3.258,0 4.948,-1.691 4.948,-5.443 0,-1.36 -0.289,-3.298 -1.113,-4.452 -0.742,-0.99 -2.062,-1.732 -3.876,-1.732 m 4.536,-2.185 c 1.154,-1.196 1.484,-3.257 1.484,-4.989 0,-2.35 -0.371,-4.247 -1.237,-5.236 -0.948,-0.99 -2.35,-1.732 -3.834,-1.732 h -0.495 c -1.691,0 -2.845,0.495 -3.34,2.185 -0.247,0.866 -0.412,2.268 -0.412,4.329 v 6.968 h 3.669 c 1.691,0 3.175,-0.536 4.165,-1.525 m -13.969,-12.613 -1.244,0.388 c -0.123,0.034 -0.239,0.059 -0.372,0.103 -0.742,0.248 -1.402,0.701 -1.938,1.649 -0.742,1.443 -1.649,3.876 -2.845,7.422 l -5.772,17.729 h -1.237 l -7.463,-21.275 c -0.618,-1.69 -1.03,-2.886 -1.443,-3.628 -0.453,-0.825 -0.989,-1.32 -1.484,-1.608 -0.059,-0.041 -0.123,-0.067 -0.184,-0.101 -0.466,0.005 -0.736,-0.307 -0.342,-0.337 l 1.929,-0.346 h 4.74 v 0.248 c -0.412,0.041 -1.113,0.165 -1.608,0.371 -0.742,0.33 -1.401,1.031 -1.401,2.144 0,0.742 0.123,1.608 0.659,3.175 l 1.278,3.793 h 7.133 l 1.031,-3.422 c 0.33,-1.279 0.742,-2.351 0.742,-3.546 0,-1.237 -0.536,-1.773 -1.36,-2.144 -0.372,-0.165 -1.114,-0.33 -1.526,-0.371 v -0.248 h 10.348 z m -14.933,20.488 3.092,-10.102 h -6.638 l 3.422,10.102 z m 8.235,-18.315 -0.035,-0.061 -3.472,10.247 -3.322,10.942 0.092,-0.062 3.697,-10.785 z m -15.175,-2.173 c 0.55,0.073 -2.601,0.402 -2.109,0.679 -0.194,0.094 -0.373,0.197 -0.516,0.307 -0.907,0.701 -1.649,2.515 -2.268,6.102 -0.495,2.721 -1.484,4.288 -2.762,5.195 -0.99,0.701 -2.227,0.99 -3.381,1.154 v 0.124 c 1.69,0.206 2.968,0.619 3.752,1.113 1.938,1.196 3.216,2.969 3.216,5.566 0,4.453 -4,6.845 -9.401,6.845 h -12.492 V 7.792 c 0.329,-0.041 0.824,-0.123 1.237,-0.247 0.865,-0.289 1.525,-0.783 1.896,-1.855 0.412,-1.361 0.536,-3.835 0.536,-6.432 v -9.607 c 0,-2.556 -0.082,-5.071 -0.536,-6.432 -0.33,-1.072 -0.989,-1.608 -1.855,-1.896 -0.041,-0.012 -0.084,-0.021 -0.126,-0.031 -0.029,0.002 -0.219,0.002 -0.352,-0.169 l 1.261,-0.213 h 10.473 v 0.206 c -0.372,0.042 -1.114,0.083 -1.526,0.207 -0.866,0.288 -1.525,0.824 -1.855,1.896 -0.454,1.361 -0.578,3.876 -0.578,6.432 v 4.536 h 1.608 c 2.021,0 3.258,-0.166 4.165,-1.279 1.113,-1.443 1.484,-3.834 1.731,-6.473 0.207,-2.35 1.072,-4.494 1.938,-5.525 h 4.246 z m -19.775,12.908 -0.103,-10.715 -0.056,-0.044 -0.348,10.789 0.162,11.384 0.074,-0.091 z m 10.334,1.942 c 1.637,1.506 2.627,3.034 2.627,4.983 0,1.949 -0.766,3.478 -2.403,4.984 h 0.025 c 1.843,-1.208 2.921,-2.924 2.921,-4.984 0,-2.059 -1.302,-3.776 -3.145,-4.983 z m -5.801,-0.794 h -2.144 v 7.916 c 0,1.567 0.042,2.762 0.454,3.463 0.454,0.784 1.361,0.99 2.391,0.99 h 0.248 c 3.71,0 4.782,-2.598 4.782,-6.267 0,-1.773 -0.371,-3.463 -1.072,-4.535 -0.824,-1.114 -1.814,-1.567 -4.659,-1.567 m 9.594,-12.466 c 0,0 -1.563,1.003 -1.797,4.748 -0.147,2.354 -0.58,3.313 -2.322,4.748 h 0.027 c 1.961,-1.15 2.676,-2.83 2.764,-4.748 0.163,-3.538 1.328,-4.748 1.328,-4.748 m -17.84,-1.59 c 0.334,0.037 -1.706,0.28 -1.321,0.378 -0.134,0.035 -0.263,0.064 -0.41,0.113 -0.742,0.248 -1.402,0.701 -1.938,1.649 -0.742,1.443 -1.649,3.876 -2.845,7.422 l -5.772,17.729 h -1.237 l -7.462,-21.275 c -0.619,-1.69 -1.031,-2.886 -1.443,-3.628 -0.454,-0.825 -0.99,-1.32 -1.485,-1.608 -0.536,-0.371 -1.154,-0.454 -1.773,-0.536 v -0.248 h 7.917 v 0.248 c -0.413,0.041 -1.114,0.165 -1.608,0.371 -0.743,0.33 -1.402,1.031 -1.402,2.144 0,0.742 0.123,1.608 0.659,3.175 l 1.279,3.793 h 7.132 l 1.031,-3.422 c 0.33,-1.279 0.742,-2.351 0.742,-3.546 0,-1.237 -0.536,-1.773 -1.36,-2.144 -0.371,-0.165 -1.114,-0.33 -1.526,-0.371 v -0.248 h 10.349 z M -177.698,-8.7 h -6.638 l 3.422,10.102 h 0.124 z m 5.425,-8.213 -0.035,-0.061 -3.471,10.247 -3.323,10.942 0.092,-0.062 3.697,-10.785 z"
             style="fill:#ffffff;fill-opacity:1;fill-rule:nonzero;stroke:none"
             id="path30" />
        </g>
      </g>
    </g>
  </g>
</svg>
