<?xml version="1.0" encoding="UTF-8" standalone="no"?>
<!-- Created with Inkscape (http://www.inkscape.org/) -->

<svg
   version="1.1"
   id="svg2"
   width="603.47833"
   height="364.08521"
   viewBox="0 0 603.47834 364.0852"
   xmlns="http://www.w3.org/2000/svg"
   xmlns:svg="http://www.w3.org/2000/svg">
  <defs
     id="defs6">
    <clipPath
       clipPathUnits="userSpaceOnUse"
       id="clipPath16">
      <path
         d="M 0,787.822 H 1240.105 V 0 H 0 Z"
         id="path14" />
    </clipPath>
  </defs>
  <g
     id="g8"
     transform="matrix(1.3333333,0,0,-1.3333333,-510.64825,749.19051)">
    <g
       id="g10"
       style="fill:#ffffff">
      <g
         id="g12"
         clip-path="url(#clipPath16)"
         style="fill:#ffffff">
        <g
           id="g18"
           transform="translate(785.621,352.043)"
           style="fill:#ffffff">
          <path
             d="m 0,0 c -5.414,2.891 -17.517,7.043 -17.517,14.991 0,6.864 6.141,10.291 12.641,10.291 4.515,0 9.752,-1.081 13.545,-3.972 1.81,-1.445 2.527,-2.526 3.073,-4.876 l 1.621,-7.588 h 3.67 v 22.037 c -3.486,2.532 -12.157,3.613 -18.656,3.613 -17.52,0 -36.304,-7.407 -36.304,-28.719 0,-14.266 8.85,-21.309 20.769,-27.632 7.588,-3.972 20.769,-8.125 20.769,-18.239 0,-9.577 -8.128,-12.825 -15.532,-12.825 -4.156,0 -10.295,1.445 -13.542,3.791 -2.351,1.626 -2.714,3.611 -3.434,7.224 l -1.806,9.034 h -4.831 v -25.647 c 5.37,-3.431 16.571,-4.697 24.338,-4.697 18.061,0 35.22,12.099 35.22,32.511 C 24.024,-13.547 13.363,-6.863 0,0"
             style="fill:#ffffff;fill-opacity:1;fill-rule:nonzero;stroke:none"
             id="path20" />
        </g>
        <g
           id="g22"
           transform="translate(447.6412,385.9683)"
           style="fill:#ffffff">
          <path
             d="m 0,0 c -8.046,0 -14.704,-1.798 -21.069,-5.539 v -11.052 c 1.482,0.42 2.991,0.695 4.452,0.695 17.882,0 24.019,-24.021 24.019,-38.465 0,-13.186 -3.066,-31.068 -19.507,-31.068 -5.233,0 -11.918,3.072 -15.529,6.86 v 49.303 9.217 9.934 8.784 41.243 H -64.655 V 37.76 c 5.197,-0.041 9.39,-4.265 9.39,-9.457 V -89.765 c 9.028,-3.071 22.936,-5.955 35.94,-5.955 33.228,0 54.538,18.239 54.538,53.099 C 35.213,-21.13 23.479,0 0,0"
             style="fill:#ffffff;fill-opacity:1;fill-rule:nonzero;stroke:none"
             id="path24" />
        </g>
        <g
           id="g26"
           transform="translate(567.0545,301.4006)"
           style="fill:#ffffff">
          <path
             d="m 0,0 v 50.434 c 0,23.66 -11.56,36.117 -35.583,36.117 -11.735,0 -24.019,-3.612 -32.865,-12.457 -3.436,-3.434 -5.962,-7.949 -5.962,-12.284 0,-0.029 0.014,-0.064 0.019,-0.091 0.045,-5.106 4.194,-9.228 9.308,-9.228 5.145,0 9.313,4.168 9.313,9.314 0,0.136 -0.014,0.278 -0.018,0.415 l 0.018,0.009 c 0,0 -0.078,3.77 0.007,5.46 0.322,4.628 2.727,6.943 10.071,6.943 10.122,0 18.834,-4.911 19.114,-18.484 0.006,-0.199 0.026,-0.383 0.026,-0.579 v -8.57 -8.309 h 0.003 V 7.63 c -3.073,-2.532 -8.671,-4.517 -13.186,-4.517 -8.307,0 -13.545,5.962 -13.545,14.447 0,8.04 3.897,15.355 20.165,19.669 v 8.392 C -65.094,38.647 -80.188,31.047 -80.188,11.06 c 0,-14.99 11.74,-22.936 25.287,-22.936 11.735,0 21.126,4.335 29.619,11.56 h 1.259 l 0.035,-9.035 H 9.469 v 1.772 L 7.602,-7.583 C 3.408,-7.597 0,-4.198 0,0"
             style="fill:#ffffff;fill-opacity:1;fill-rule:nonzero;stroke:none"
             id="path28" />
        </g>
        <g
           id="g30"
           transform="translate(734.39,301.3479)"
           style="fill:#ffffff">
          <path
             d="m 0,0 v 67.781 c -1.008,8.984 -11.227,18.085 -27.892,18.649 0,0 -21.734,2.639 -30.408,-19.872 C -66.978,44.05 -85.25,45.756 -85.25,45.756 V 0.151 c 0,-4.244 -3.441,-7.689 -7.692,-7.689 h -1.817 v -1.759 h 47.469 v 1.759 h -1.038 c -4.147,0 -7.506,3.363 -7.506,7.51 v 57.802 c 0,6.981 5.662,12.641 12.637,12.641 6.983,0 12.64,-5.66 12.64,-12.641 V 0.283 c 0,-4.319 -3.5,-7.821 -7.819,-7.821 V -9.297 H 9.636 v 1.759 H 7.538 C 3.375,-7.538 0,-4.163 0,0"
             style="fill:#ffffff;fill-opacity:1;fill-rule:nonzero;stroke:none"
             id="path32" />
        </g>
        <g
           id="g34"
           transform="translate(741.5627,409.5727)"
           style="fill:#ffffff">
          <path
             d="m 0,0 c -4.84,0 -8.765,-3.922 -8.765,-8.765 0,-0.763 0.11,-1.506 0.295,-2.214 h -0.01 l 0.033,-0.097 c 0.109,-0.392 0.236,-0.779 0.397,-1.15 L 0,-35.655 7.977,-12.369 c 0.224,0.491 0.401,1.007 0.527,1.538 l 0.009,0.021 H 8.511 c 0.158,0.659 0.25,1.339 0.25,2.045 C 8.761,-3.922 4.839,0 0,0"
             style="fill:#ffffff;fill-opacity:1;fill-rule:nonzero;stroke:none"
             id="path36" />
        </g>
        <g
           id="g38"
           transform="translate(659.0435,375.6359)"
           style="fill:#ffffff">
          <path
             d="m 0,0 c 0,8.534 -6.917,15.454 -15.449,15.454 h -0.005 c -10.137,-0.005 -18.111,-4.236 -23.054,-12.239 -1.168,-1.889 -2.074,-3.821 -2.78,-5.7 l -0.215,11.482 h -38.14 L -79.798,4.98 -68.784,4.897 v -79.149 c 0,-4.184 -3.393,-7.574 -7.575,-7.574 h -1.903 v -1.756 h 46.695 v 1.756 h -1.973 c -4.206,0 -7.616,3.408 -7.616,7.61 v 58.417 c 0,0.414 0.043,4.045 1.178,8.589 1.881,3.774 5.031,8.619 9.898,12.157 -0.522,-1.553 -0.823,-3.215 -0.823,-4.947 0,-8.532 6.919,-15.449 15.454,-15.449 C -6.917,-15.449 0,-8.532 0,0"
             style="fill:#ffffff;fill-opacity:1;fill-rule:nonzero;stroke:none"
             id="path40" />
        </g>
        <g
           id="g42"
           transform="translate(650.873,409.7084)"
           style="fill:#ffffff">
          <path
             d="m 0,0 3.675,-6.429 c 39.31,16.165 48.864,33.433 48.864,63.376 v 52.905 H 16.715 v -1.617 c 4.248,0.041 7.717,-3.393 7.717,-7.639 V 57.129 C 24.432,30.493 23.693,11.94 0,0"
             style="fill:#ffffff;fill-opacity:1;fill-rule:nonzero;stroke:none"
             id="path44" />
        </g>
        <g
           id="g46"
           transform="translate(591.6511,443.1762)"
           style="fill:#ffffff">
          <path
             d="m 0,0 c 1.275,-0.875 2.863,-1.959 4.761,-3.229 7.727,-5.187 15.704,-8.725 26.598,-8.725 16.266,0 28.008,10.481 28.008,27.647 v 51.373 c 0,4.267 3.467,7.731 7.732,7.731 v 1.51 l -43.471,0.074 -0.003,-1.584 c 4.47,0 8.095,-3.627 8.095,-8.097 V 21.841 C 31.72,10.816 25.754,3.228 15.093,3.228 12.813,3.228 10.628,3.667 8.558,4.416 5.782,5.431 3.649,6.545 1.839,7.68 2.67,12.542 3.021,17.781 3.021,23.479 v 52.902 h -40.044 v -1.584 c 6.592,0 11.937,-5.348 11.937,-11.94 V 23.665 c 0,-26.641 -0.732,-45.196 -24.429,-57.136 l 3.672,-6.429 C -18.124,-28.498 -5.211,-16.549 0,0"
             style="fill:#ffffff;fill-opacity:1;fill-rule:nonzero;stroke:none"
             id="path48" />
        </g>
        <g
           id="g50"
           transform="translate(718.5623,547.1857)"
           style="fill:#ffffff">
          <path
             d="m 0,0 v -98.67 c 0.913,-8.105 10.127,-16.322 25.166,-16.825 0,0 19.605,-2.381 27.427,17.925 7.831,20.307 24.323,18.765 24.323,18.765 v 36.514 c 0,3.833 3.104,6.936 6.934,6.936 h 1.638 v 1.589 H 42.662 v -1.589 h 0.941 c 3.741,0 6.771,-3.033 6.771,-6.771 v -47.519 c 0,-6.304 -5.102,-11.404 -11.399,-11.404 -6.304,0 -11.407,5.1 -11.407,11.404 v 89.386 c 0,3.899 3.156,7.058 7.057,7.058 V 8.388 H -8.695 V 6.799 h 1.898 C -3.044,6.799 0,3.753 0,0"
             style="fill:#ffffff;fill-opacity:1;fill-rule:nonzero;stroke:none"
             id="path52" />
        </g>
        <g
           id="g54"
           transform="translate(780.0231,443.6274)"
           style="fill:#ffffff">
          <path
             d="m 0,0 c 0,-8.159 6.615,-14.77 14.772,-14.77 8.159,0 14.777,6.611 14.777,14.77 0,8.161 -6.618,14.77 -14.777,14.77 C 6.615,14.77 0,8.161 0,0"
             style="fill:#ffffff;fill-opacity:1;fill-rule:nonzero;stroke:none"
             id="path56" />
        </g>
        <g
           id="g58"
           transform="translate(631.4775,532.3489)"
           style="fill:#ffffff">
          <path
             d="m 0,0 c 8.161,0 14.77,6.615 14.77,14.772 0,8.159 -6.609,14.772 -14.77,14.772 -8.157,0 -14.77,-6.613 -14.77,-14.772 C -14.77,6.615 -8.157,0 0,0"
             style="fill:#ffffff;fill-opacity:1;fill-rule:nonzero;stroke:none"
             id="path60" />
        </g>
        <g
           id="g62"
           transform="translate(580.0105,532.3489)"
           style="fill:#ffffff">
          <path
             d="m 0,0 c 8.156,0 14.77,6.615 14.77,14.772 0,8.159 -6.614,14.772 -14.77,14.772 -8.161,0 -14.774,-6.613 -14.774,-14.772 C -14.774,6.615 -8.161,0 0,0"
             style="fill:#ffffff;fill-opacity:1;fill-rule:nonzero;stroke:none"
             id="path64" />
        </g>
        <g
           id="g66"
           transform="translate(397.321,502.4177)"
           style="fill:#ffffff">
          <path
             d="M 0,0 C -1.699,0 -3.13,0.38 -4.29,1.14 -5.45,1.9 -6.268,2.932 -6.741,4.241 l 2.892,1.692 c 0.67,-1.749 1.985,-2.622 3.946,-2.622 0.949,0 1.643,0.17 2.086,0.513 0.441,0.344 0.661,0.776 0.661,1.298 0,0.606 -0.269,1.076 -0.81,1.411 -0.538,0.335 -1.503,0.699 -2.891,1.092 -0.769,0.227 -1.42,0.456 -1.951,0.687 -0.529,0.227 -1.062,0.534 -1.593,0.918 -0.531,0.383 -0.935,0.871 -1.213,1.459 -0.279,0.588 -0.416,1.274 -0.416,2.06 0,1.551 0.55,2.79 1.654,3.713 1.103,0.923 2.431,1.385 3.984,1.385 1.39,0 2.611,-0.339 3.665,-1.017 1.053,-0.679 1.875,-1.623 2.464,-2.832 L 2.893,12.356 c -0.686,1.47 -1.781,2.206 -3.285,2.206 -0.703,0 -1.255,-0.16 -1.656,-0.479 -0.399,-0.317 -0.6,-0.73 -0.6,-1.237 0,-0.54 0.226,-0.977 0.675,-1.312 0.449,-0.335 1.31,-0.699 2.585,-1.091 0.525,-0.162 0.92,-0.29 1.191,-0.38 C 2.072,9.974 2.44,9.834 2.905,9.646 3.372,9.459 3.731,9.283 3.984,9.12 4.237,8.955 4.527,8.737 4.855,8.457 5.18,8.18 5.429,7.894 5.603,7.6 5.773,7.305 5.921,6.95 6.044,6.533 6.165,6.117 6.226,5.664 6.226,5.173 6.226,3.587 5.652,2.329 4.499,1.397 3.347,0.465 1.846,0 0,0"
             style="fill:#ffffff;fill-opacity:1;fill-rule:nonzero;stroke:none"
             id="path68" />
        </g>
        <path
           d="m 410.756,519.921 h 3.384 v -17.16 h -3.384 z"
           style="fill:#ffffff;fill-opacity:1;fill-rule:nonzero;stroke:none"
           id="path70" />
        <g
           id="g72"
           transform="translate(432.4031,519.9213)"
           style="fill:#ffffff">
          <path
             d="M 0,0 H 3.382 V -17.16 H 0.809 L -6.545,-6.669 V -17.16 H -9.929 V 0 h 2.572 L 0,-10.453 Z"
             style="fill:#ffffff;fill-opacity:1;fill-rule:nonzero;stroke:none"
             id="path74" />
        </g>
        <g
           id="g76"
           transform="translate(452.2585,502.4177)"
           style="fill:#ffffff">
          <path
             d="m 0,0 c -2.582,0 -4.715,0.857 -6.398,2.575 -1.685,1.714 -2.525,3.831 -2.525,6.348 0,2.535 0.84,4.655 2.525,6.361 1.683,1.709 3.816,2.563 6.398,2.563 1.553,0 2.986,-0.365 4.302,-1.092 1.315,-0.727 2.342,-1.711 3.076,-2.953 L 4.463,12.11 C 4.036,12.877 3.432,13.479 2.648,13.913 1.864,14.345 0.98,14.562 0,14.562 c -1.666,0 -3.012,-0.524 -4.033,-1.569 -1.02,-1.046 -1.532,-2.403 -1.532,-4.07 0,-1.649 0.512,-2.999 1.532,-4.044 C -3.012,3.833 -1.666,3.311 0,3.311 c 0.98,0 1.867,0.215 2.66,0.647 0.793,0.434 1.392,1.027 1.803,1.779 L 7.378,4.045 C 6.644,2.802 5.622,1.818 4.314,1.091 3.007,0.364 1.569,0 0,0"
             style="fill:#ffffff;fill-opacity:1;fill-rule:nonzero;stroke:none"
             id="path78" />
        </g>
        <g
           id="g80"
           transform="translate(470.2293,505.9964)"
           style="fill:#ffffff">
          <path
             d="M 0,0 H 7.231 V -3.236 H -3.384 V 13.925 H 7.109 V 10.689 H 0 V 7.035 H 6.497 V 3.849 H 0 Z"
             style="fill:#ffffff;fill-opacity:1;fill-rule:nonzero;stroke:none"
             id="path82" />
        </g>
        <g
           id="g84"
           transform="translate(394.649,490.5026)"
           style="fill:#ffffff">
          <path
             d="M 0,0 H 2.941 V -17.16 H -0.441 V -3.578 L -3.677,-4.486 -4.51,-1.593 Z"
             style="fill:#ffffff;fill-opacity:1;fill-rule:nonzero;stroke:none"
             id="path86" />
        </g>
        <g
           id="g88"
           transform="translate(417.2272,484.89)"
           style="fill:#ffffff">
          <path
             d="m 0,0 c 0,-1.326 -0.335,-2.485 -1.005,-3.481 l -5.344,-8.067 h -3.873 l 3.821,5.589 c -1.781,0.033 -3.23,0.602 -4.349,1.706 -1.119,1.102 -1.679,2.519 -1.679,4.253 0,1.747 0.576,3.177 1.728,4.289 1.152,1.113 2.644,1.666 4.473,1.666 1.848,0 3.347,-0.55 4.5,-1.653 C -0.576,3.198 0,1.763 0,0 m -9.07,0 c 0,-0.852 0.274,-1.529 0.821,-2.035 0.548,-0.507 1.221,-0.76 2.021,-0.76 0.835,0 1.52,0.253 2.062,0.76 0.538,0.506 0.808,1.183 0.808,2.035 0,0.849 -0.27,1.522 -0.808,2.022 -0.542,0.498 -1.227,0.747 -2.062,0.747 -0.8,0 -1.473,-0.253 -2.021,-0.76 C -8.796,1.504 -9.07,0.833 -9.07,0"
             style="fill:#ffffff;fill-opacity:1;fill-rule:nonzero;stroke:none"
             id="path90" />
        </g>
        <g
           id="g92"
           transform="translate(435.6615,484.89)"
           style="fill:#ffffff">
          <path
             d="m 0,0 c 0,-1.326 -0.333,-2.485 -1.005,-3.481 l -5.344,-8.067 h -3.873 l 3.821,5.589 c -1.781,0.033 -3.23,0.602 -4.349,1.706 -1.119,1.102 -1.679,2.519 -1.679,4.253 0,1.747 0.577,3.177 1.73,4.289 1.152,1.113 2.642,1.666 4.473,1.666 1.846,0 3.345,-0.55 4.498,-1.653 C -0.576,3.198 0,1.763 0,0 m -9.07,0 c 0,-0.852 0.274,-1.529 0.821,-2.035 0.548,-0.507 1.221,-0.76 2.023,-0.76 0.835,0 1.52,0.253 2.06,0.76 0.538,0.506 0.808,1.183 0.808,2.035 0,0.849 -0.27,1.522 -0.808,2.022 -0.54,0.498 -1.225,0.747 -2.06,0.747 -0.802,0 -1.475,-0.253 -2.023,-0.76 C -8.796,1.504 -9.07,0.833 -9.07,0"
             style="fill:#ffffff;fill-opacity:1;fill-rule:nonzero;stroke:none"
             id="path94" />
        </g>
        <g
           id="g96"
           transform="translate(441.3999,473.3428)"
           style="fill:#ffffff">
          <path
             d="m 0,0 v 2.526 l 5.858,6.029 c 1.307,1.374 1.963,2.516 1.963,3.432 0,0.671 -0.21,1.209 -0.627,1.619 -0.416,0.408 -0.951,0.612 -1.605,0.612 -1.291,0 -2.249,-0.669 -2.868,-2.011 l -2.844,1.668 c 0.539,1.176 1.315,2.077 2.328,2.698 1.014,0.62 2.126,0.93 3.336,0.93 1.553,0 2.883,-0.486 3.994,-1.459 1.112,-0.972 1.669,-2.284 1.669,-3.934 C 11.199,10.331 10.26,8.504 8.386,6.629 L 5.022,3.259 h 6.45 V 0 Z"
             style="fill:#ffffff;fill-opacity:1;fill-rule:nonzero;stroke:none"
             id="path98" />
        </g>
        <g
           id="g100"
           transform="translate(834.4872,302.7267)"
           style="fill:#ffffff">
          <path
             d="m 0,0 c 0.158,6.411 -5.322,9.858 -9.455,9.857 -5.294,-10e-4 -9.731,-4.235 -9.854,-9.548 -0.12,-5.194 4.344,-9.815 9.542,-9.892 C -5.762,-9.642 0.059,-6.425 0,0 m 1.104,0.121 c 0.171,-6.569 -5.52,-10.852 -10.822,-10.797 -6.164,0.065 -10.576,5.32 -10.627,10.67 -0.051,5.439 4.3,10.963 10.672,10.968 C -3.78,10.967 1.258,6.159 1.104,0.121"
             style="fill:#ffffff;fill-opacity:1;fill-rule:nonzero;stroke:none"
             id="path102" />
        </g>
        <g
           id="g104"
           transform="translate(826.7311,305.6905)"
           style="fill:#ffffff">
          <path
             d="M 0,0 C 0,-1.149 -0.878,-1.862 -2.291,-1.862 H -3.454 V 1.761 C -3.194,1.798 -2.82,1.827 -2.35,1.827 -0.791,1.811 0,1.196 0,0 m 2.808,-8.51 c -0.231,0.43 -0.541,1.708 -0.891,3.208 -0.245,1.067 -0.677,1.848 -1.288,2.333 1.14,0.658 1.799,1.788 1.799,3.149 0,1.065 -0.389,1.996 -1.091,2.616 -0.842,0.761 -2.01,1.101 -3.789,1.101 -1.132,0 -2.284,-0.098 -3.082,-0.262 L -5.88,3.564 V -9.149 h 2.426 v 5.236 h 1.021 c 1.059,-0.04 1.66,-0.361 2.013,-2.009 0.403,-1.783 0.65,-2.654 0.855,-3.01 l 0.126,-0.217 h 2.591 z"
             style="fill:#ffffff;fill-opacity:1;fill-rule:nonzero;stroke:none"
             id="path106" />
        </g>
      </g>
    </g>
  </g>
</svg>
