<?xml version="1.0" encoding="UTF-8" standalone="no"?>
<svg
   viewBox="0 0 188.01683 194.44212"
   version="1.1"
   id="svg47"
   width="188.01683"
   height="194.44212"
   xmlns="http://www.w3.org/2000/svg"
   xmlns:svg="http://www.w3.org/2000/svg"
   xmlns:rdf="http://www.w3.org/1999/02/22-rdf-syntax-ns#"
   xmlns:cc="http://creativecommons.org/ns#"
   xmlns:dc="http://purl.org/dc/elements/1.1/">
  <defs
     id="defs4">
    <style
       id="style2">.cls-1{isolation:isolate;}.cls-2{mix-blend-mode:luminosity;}.cls-3{fill:#595959;}.cls-4{fill:#686868;}.cls-5{fill:#8e8e8e;}.cls-6{fill:#bbb;}.cls-7{fill:#727272;}.cls-8{fill:#202020;}</style>
  </defs>
  <title
     id="title6">Artboard 1</title>
  <g
     class="cls-1"
     id="g45"
     style="fill:#ffffff"
     transform="translate(-5.9950071,-2.7778701)">
    <g
       id="Layer_1"
       data-name="Layer 1"
       style="fill:#ffffff">
      <g
         class="cls-2"
         id="g42"
         style="fill:#ffffff">
        <path
           class="cls-3"
           d="M 87.73,96.63 C 87.57,96.28 87.44,96.05 87.34,95.81 78.15,74.19 68.83,52.62 59.82,30.92 54,16.92 63.41,5.7 73.48,3.43 85.38,0.74 96.31,8.23 97.74,20.12 a 36.87,36.87 0 0 1 -0.43,9.73 c -0.9,6.21 -1.77,12.43 -2.65,18.64 q -1.41,9.87 -2.8,19.75 L 89,88.07 87.9,96.16 a 3.19,3.19 0 0 1 -0.17,0.47 z"
           id="path8"
           style="fill:#ffffff" />
        <path
           class="cls-4"
           d="m 112.55,96.31 q -0.83,-5.49 -1.64,-11 -1.17,-7.83 -2.35,-15.67 l -2.31,-15.6 C 105.42,48.5 104.52,42.97 103.8,37.42 a 17.92,17.92 0 0 1 0.17,-5 6.62,6.62 0 0 1 3.7,-4.86 c 0.82,-0.45 1.67,-0.85 2.48,-1.31 0.64,-0.36 0.69,-0.8 0,-1.08 a 9.57,9.57 0 0 0 -2.83,-0.71 39.09,39.09 0 0 0 -4.33,0 c -0.61,0 -0.85,-0.16 -0.86,-0.8 C 102,12.71 108.78,4.93 118.48,3.13 131,0.81 140.37,10.36 141.77,19.85 a 20,20 0 0 1 -1.39,10.84 q -13.66,32.52 -27.36,65 c -0.09,0.22 -0.21,0.42 -0.31,0.63 z"
           id="path10"
           style="fill:#ffffff" />
        <path
           class="cls-5"
           d="m 87.42,103.94 c -0.36,-0.22 -0.59,-0.35 -0.8,-0.5 Q 59.18,84.64 31.72,65.84 a 23.29,23.29 0 0 1 -8.48,-9.5 20.06,20.06 0 0 1 13.84,-27.68 19,19 0 0 1 21.53,9.75 c 1.76,3.23 3.1,6.68 4.58,10.06 Q 75.12,75.7 87,102.93 c 0.12,0.28 0.23,0.57 0.42,1.01 z"
           id="path12"
           style="fill:#ffffff" />
        <path
           class="cls-4"
           d="m 113.17,103.72 c 1.58,-3.67 3,-7.1 4.52,-10.53 l 22.1,-51.36 a 22.84,22.84 0 0 1 7.67,-10.08 c 6.19,-4.33 12.83,-4.54 19.53,-1.48 6.41,2.92 10.1,8.15 11.18,15 1.26,8.09 -1.87,14.55 -8.32,19.32 -5.52,4.08 -11.26,7.85 -16.92,11.75 l -38.83,26.77 z"
           id="path14"
           style="fill:#ffffff" />
        <path
           class="cls-6"
           d="m 89.71,110.7 h -0.54 c -21.23,0 -42.45,0 -63.68,0 a 18.7,18.7 0 0 1 -12.37,-4.8 20.26,20.26 0 0 1 8.21,-35 20.57,20.57 0 0 1 13.12,1.63 c 3.16,1.44 5.85,3.63 8.68,5.59 q 16.75,11.63 33.48,23.32 l 12.76,8.9 0.38,0.28 z"
           id="path16"
           style="fill:#ffffff" />
        <path
           class="cls-7"
           d="m 110.39,110.73 6.31,-4.41 45.65,-31.81 a 20.31,20.31 0 0 1 11,-4 c 6.88,-0.25 12.36,2.56 16.52,7.92 7.31,9.42 4.62,23.74 -5.52,29.82 a 18.1,18.1 0 0 1 -9.56,2.51 q -31.75,0 -63.52,0 c -0.22,0.03 -0.42,0 -0.88,-0.03 z"
           id="path18"
           style="fill:#ffffff" />
        <path
           class="cls-8"
           d="M 67.38,127.41 V 147 H 55.66 c 0,-0.33 0,-0.64 0,-1 0,-9.86 0,-19.73 0,-29.59 0,-0.8 0.18,-1 1,-1 5.16,0 10.32,0 15.48,0 a 1.49,1.49 0 0 1 1.32,0.67 q 7,9 14,18.06 a 2.09,2.09 0 0 0 0.81,0.68 v -19.25 h 11.88 v 31.57 h -1 c -5.3,0 -10.59,0 -15.88,0 a 1.54,1.54 0 0 1 -1.4,-0.7 Q 75,137.2 68,128 l -0.49,-0.62 z"
           id="path20"
           style="fill:#ffffff" />
        <path
           class="cls-8"
           d="m 103.94,115.43 h 0.89 c 9,0 18,0 27,0 a 13.72,13.72 0 0 1 7.37,2.16 c 2.78,1.76 4,4.72 3.15,7.46 a 5.28,5.28 0 0 1 -1.3,2.05 c -1.07,1 -2.28,1.92 -3.47,2.9 l 0.61,0.33 2,0.93 c 3.22,1.53 4.41,4.08 3.94,7.72 -0.29,2.2 -1.76,3.8 -3.49,5.1 a 15.39,15.39 0 0 1 -7.77,2.73 41.33,41.33 0 0 1 -4.31,0.22 c -7.81,0 -15.62,0 -23.42,0 h -1.11 z m 13,23.72 c 1.5,0 2.91,0 4.33,0 1.84,0 3.69,0 5.52,-0.16 a 3.22,3.22 0 0 0 2.51,-1.4 2.15,2.15 0 0 0 -1.11,-3.3 7.89,7.89 0 0 0 -2,-0.41 c -2.46,-0.09 -4.92,-0.1 -7.37,-0.13 -0.63,0 -1.26,0 -2,0 v 4.65 c 0.05,0.2 0.08,0.4 0.11,0.75 z m 0,-17.46 c 0,1.23 0,2.4 0,3.56 0,0.55 0.17,0.76 0.73,0.75 1.73,0 3.48,0.06 5.2,0 a 37.1,37.1 0 0 0 4.19,-0.61 1.38,1.38 0 0 0 1.23,-1.19 c 0.22,-1.22 -0.36,-2 -1.84,-2.31 a 39.13,39.13 0 0 0 -9.55,-0.2 z"
           id="path22"
           style="fill:#ffffff" />
        <path
           class="cls-8"
           d="m 191.2,125.18 c -0.28,0 -0.51,0 -0.75,0 -3.93,0 -7.85,0 -11.78,0 a 1.22,1.22 0 0 1 -1,-0.55 9.57,9.57 0 0 0 -2.23,-2.13 c -3.67,-2.18 -9.33,-1.47 -12.53,1.35 -3.46,3.06 -3.48,8.23 -2,11.13 4.11,7.88 13.62,6.7 17.32,1.33 a 1.23,1.23 0 0 1 1.17,-0.61 c 3.77,0 7.54,0 11.31,0 h 1 c -0.67,1.23 -1.17,2.35 -1.85,3.35 -2.26,3.33 -5.57,5.16 -9.33,6.25 a 44.8,44.8 0 0 1 -15.72,1.4 30.05,30.05 0 0 1 -9.81,-2.18 17.61,17.61 0 0 1 -6.06,-4.25 c -3.82,-4.16 -4.62,-8.91 -2.87,-14.21 1.15,-3.47 3.7,-5.69 6.59,-7.59 a 26.58,26.58 0 0 1 11.49,-3.94 47.74,47.74 0 0 1 16.34,0.89 15.13,15.13 0 0 1 9,5.28 7.42,7.42 0 0 1 1.71,4.48 z"
           id="path24"
           style="fill:#ffffff" />
        <path
           class="cls-8"
           d="m 52,126 h -0.9 c -3.88,0 -7.76,0 -11.63,0 a 1.32,1.32 0 0 1 -1,-0.36 7.44,7.44 0 0 0 -5.2,-3.28 c -3.64,-0.66 -7,-0.08 -9.76,2.55 a 9.53,9.53 0 0 0 -1.27,12.14 10.15,10.15 0 0 0 16.63,0.23 1.82,1.82 0 0 1 1.67,-0.8 c 3.55,0 7.11,0 10.66,0 h 1.07 c -0.23,0.66 -0.37,1.24 -0.61,1.78 a 13,13 0 0 1 -4,4.71 c -3.1,2.5 -6.75,3.54 -10.61,4.13 A 46.22,46.22 0 0 1 23.16,147.44 23,23 0 0 1 9.82,141.21 13,13 0 0 1 6,131.64 c 0,-5.89 3.19,-9.7 7.91,-12.58 a 27.18,27.18 0 0 1 11,-3.6 44.93,44.93 0 0 1 15.93,0.76 15.87,15.87 0 0 1 9.71,6.06 A 7.59,7.59 0 0 1 52,126 Z"
           id="path26"
           style="fill:#ffffff" />
        <path
           class="cls-7"
           d="m 125.15,197.22 v -7.16 H 131 v -30.45 h 7 c 0,0.35 0.05,0.66 0.05,1 0,4 0,8 0,12 0,0.69 0.17,0.92 0.89,0.92 8,0 16,0 24.06,0 0.26,0 0.52,0 0.79,0 a 35,35 0 0 1 -0.83,-3.64 c -0.65,-5.42 0.8,-10.33 5.45,-13.29 a 12.17,12.17 0 0 1 6.6,-2 c 5.26,0 10.53,0 15.79,0 0.26,0 0.53,0 0.88,0 v 5.07 c 0,1.93 0,1.93 -1.93,1.93 -4.65,0 -9.3,0 -13.95,0 a 8.89,8.89 0 0 0 -2,0.19 c -2.37,0.55 -3.74,2.29 -3.9,5 a 10.1,10.1 0 0 0 0.17,2.63 4.91,4.91 0 0 0 5.16,4 c 5.13,0 10.26,0 15.39,0 h 1 c 0,0.29 0.06,0.49 0.06,0.7 0,1.87 0,3.74 0,5.61 0,0.55 -0.16,0.81 -0.73,0.75 -0.26,0 -0.53,0 -0.8,0 h -50.41 a 7.12,7.12 0 0 1 -0.8,0 c -0.65,-0.07 -0.88,0.17 -0.88,0.85 0,2.75 0,5.51 0,8.26 a 11.12,11.12 0 0 1 -0.3,2.7 6,6 0 0 1 -5,4.67 c -0.18,0 -0.36,0.12 -0.53,0.17 z"
           id="path28"
           style="fill:#ffffff" />
        <path
           class="cls-7"
           d="m 32.28,152.2 h 7 c 0,0.35 0.06,0.69 0.06,1 v 19.25 c 0,1 0,1 1.07,1 q 17.44,0 34.88,0 c 0.81,0 1,-0.19 1,-1 0,-4.22 0,-8.45 0,-12.67 v -1 h 7.11 v 0.92 c 0,4.3 0,8.6 0,12.91 0,0.65 0.16,0.87 0.84,0.86 q 16.68,0 33.36,0 c 0.73,0 0.89,-0.24 0.88,-0.92 0,-4 0,-8 0,-12 v -1 h 7.07 c 0,0.31 0,0.65 0,1 q 0,9.3 0,18.6 c 0,1.42 0.23,1.35 -1.31,1.35 H 54.65 c -12.3,0 -24.6,0.06 -36.89,0 A 11.42,11.42 0 0 1 7.64,174.85 c -2.72,-4.46 -2.31,-12.07 5.2,-15.46 a 12.8,12.8 0 0 1 5.43,-1.19 c 4.33,0 8.66,0 13,0 0.81,0 1.06,-0.22 1,-1 -0.03,-1.61 0.01,-3.27 0.01,-5 z m -7.64,21.31 c 2.28,0 4.55,0 6.82,0 0.63,0 0.84,-0.19 0.83,-0.82 0,-2.14 0,-4.28 0,-6.42 0,-0.76 -0.21,-1 -1,-1 -4.36,0 -8.72,-0.05 -13.07,0.06 a 7.1,7.1 0 0 0 -3.3,1 3.6,3.6 0 0 0 -0.27,5.93 5.46,5.46 0 0 0 3.41,1.21 c 2.2,0.05 4.39,0.04 6.58,0.04 z"
           id="path30"
           style="fill:#ffffff" />
        <path
           class="cls-7"
           d="m 26.05,150.72 a 2.470248,2.470248 0 1 1 -0.07,4.94 2.470248,2.470248 0 0 1 0.07,-4.94 z"
           id="path32"
           style="fill:#ffffff" />
        <path
           class="cls-7"
           d="m 75.62,188.58 a 2.4,2.4 0 0 1 -2.46,-2.49 2.45,2.45 0 0 1 2.43,-2.46 2.51,2.51 0 0 1 2.52,2.47 2.45,2.45 0 0 1 -2.49,2.48 z"
           id="path34"
           style="fill:#ffffff" />
        <path
           class="cls-7"
           d="m 17.52,150.72 a 2.47,2.47 0 1 1 0,4.94 2.47,2.47 0 0 1 0,-4.94 z"
           id="path36"
           style="fill:#ffffff" />
        <path
           class="cls-7"
           d="m 124.06,186.09 a 2.42,2.42 0 0 1 -2.46,2.49 2.49,2.49 0 0 1 -2.51,-2.4 2.55,2.55 0 0 1 2.45,-2.56 2.49,2.49 0 0 1 2.52,2.47 z"
           id="path38"
           style="fill:#ffffff" />
        <path
           class="cls-7"
           d="m 84.11,188.58 a 2.42,2.42 0 0 1 -2.48,-2.48 2.47,2.47 0 0 1 2.43,-2.47 2.54,2.54 0 0 1 2.55,2.46 2.49,2.49 0 0 1 -2.5,2.49 z"
           id="path40"
           style="fill:#ffffff" />
      </g>
    </g>
  </g>
  <metadata
     id="metadata332">
    <rdf:RDF>
      <cc:Work
         rdf:about="">
        <dc:title>Artboard 1</dc:title>
      </cc:Work>
    </rdf:RDF>
  </metadata>
</svg>
