<?xml version="1.0" encoding="UTF-8" standalone="no"?>
<!-- Created with Inkscape (http://www.inkscape.org/) -->

<svg
   width="175.09039mm"
   height="34.291168mm"
   viewBox="0 0 175.09039 34.291168"
   version="1.1"
   id="svg5"
   xml:space="preserve"
   xmlns="http://www.w3.org/2000/svg"
   xmlns:svg="http://www.w3.org/2000/svg"><defs
     id="defs2" /><g
     id="layer1"
     transform="translate(-12.889937,-152.8097)"><path
       style="fill:#ffffff;stroke-width:0.0846667"
       d="m 60.267097,186.97075 c -6.82091,-0.91554 -12.44696,-5.94205 -14.14397,-12.6367 -0.3853,-1.52001 -0.49089,-2.45916 -0.49089,-4.36634 0,-2.96767 0.48483,-5.16787 1.6791,-7.62 2.50029,-5.13367 7.40345,-8.65808 13.0632,-9.38989 3.43013,-0.44351 6.98527,0.1176 9.93122,1.56746 1.76473,0.86851 2.97527,1.71956 4.37901,3.07856 1.38456,1.34044 2.31924,2.57727 3.18457,4.214 1.22961,2.32574 1.85301,4.68692 1.96174,7.43021 0.15924,4.01759 -0.90408,7.63967 -3.18714,10.85657 -0.64906,0.91456 -2.13291,2.48447 -3.03989,3.21622 -2.52813,2.03966 -5.62466,3.33463 -8.85577,3.70349 -1.06669,0.12178 -3.38093,0.0941 -4.48118,-0.0536 z m 4.23481,-6.34129 c 5.0822,-0.86728 9.00937,-5.51472 9.00937,-10.66175 0,-6.72199 -6.39765,-11.97048 -12.91167,-10.59244 -4.10121,0.86762 -7.35175,4.05528 -8.40078,8.23828 -0.20458,0.81577 -0.22942,1.07069 -0.22942,2.35416 0,1.28252 0.0249,1.53872 0.22879,2.35153 1.18959,4.74298 5.02294,8.01608 9.92541,8.4748 0.49165,0.046 1.58947,-0.03 2.3783,-0.16458 z m 70.350373,6.35096 c -3.12566,-0.42397 -6.07628,-1.69117 -8.5119,-3.65557 -1.30924,-1.05595 -2.79039,-2.74451 -3.71489,-4.23511 -2.28741,-3.68807 -3.07185,-8.30765 -2.16721,-12.76269 1.43615,-7.07255 7.23404,-12.43447 14.46183,-13.3744 1.92741,-0.25065 4.49409,-0.12966 6.3245,0.29813 3.14466,0.73494 6.04653,2.38044 8.30555,4.70962 2.84196,2.93024 4.42553,6.50128 4.74874,10.70871 0.32281,4.20205 -0.84658,8.31668 -3.30082,11.61439 -2.75749,3.70518 -6.85696,6.09908 -11.4723,6.69928 -1.21619,0.15816 -3.49863,0.157 -4.6735,-0.002 z m 3.18719,-6.22147 c 3.38846,-0.34173 6.28318,-2.08426 8.16955,-4.91781 2.86241,-4.29967 2.27335,-9.80066 -1.4449,-13.49343 -3.72426,-3.69873 -9.13583,-4.23436 -13.5006,-1.33625 -0.89605,0.59496 -2.35737,2.04254 -2.93013,2.90259 -1.90389,2.85885 -2.39935,6.13381 -1.39944,9.25004 1.32381,4.1256 5.03399,7.1344 9.35882,7.5896 0.37189,0.0391 0.71976,0.0762 0.77303,0.0824 0.0533,0.006 0.49143,-0.0285 0.97367,-0.0772 z M 12.889937,169.96771 v -16.72166 h 3.13267 3.13267 v 6.68866 6.68867 h 6.30766 6.30767 v -6.68867 -6.68866 h 3.175 3.175 v 16.72166 16.72167 h -3.175 -3.175 v -6.858 -6.858 h -6.30767 -6.30766 v 6.858 6.858 h -3.13267 -3.13267 z m 74.50667,0 v -16.72166 h 2.53314 2.53314 l 6.88603,9.95445 6.886023,9.95445 0.0215,-9.95445 0.0215,-9.95445 h 3.17465 3.17466 v 16.72166 16.72167 h -2.53621 -2.53622 l -6.92528,-10.01062 -6.925293,-10.01061 -0.0215,10.01061 -0.0215,10.01062 h -3.13232 -3.13232 z m 74.422003,-0.004 v -16.72523 l 7.21783,0.0295 c 6.40475,0.0262 7.28459,0.0456 7.8105,0.17191 1.61445,0.38788 3.14052,1.07718 4.27087,1.92907 0.82384,0.62089 1.97574,1.82038 2.47346,2.57562 0.80775,1.22572 1.41827,2.69419 1.68961,4.064 0.0774,0.39085 0.11612,1.1693 0.11367,2.286 -0.004,1.81528 -0.11982,2.55428 -0.60076,3.83289 -0.99105,2.63478 -3.02854,4.84648 -5.55573,6.03076 -0.39751,0.18628 -0.76475,0.33869 -0.8161,0.33869 -0.0513,0 -0.0934,0.03 -0.0934,0.0667 0,0.0367 2.17069,2.67509 4.82377,5.86316 3.76938,4.5295 4.82425,5.84739 4.826,6.02933 l 0.002,0.23284 h -4.01211 -4.0121 l -5.8939,-7.08034 -5.89389,-7.08034 v 7.08034 7.08034 h -3.175 -3.175 v -16.72523 z m 13.6554,-1.27268 c 2.44733,-0.63417 4.07534,-3.19431 3.48355,-5.4781 -0.41677,-1.60835 -1.58354,-2.84914 -3.21451,-3.41845 l -0.67411,-0.2353 -3.45017,-0.0314 -3.45016,-0.0314 v 4.66399 4.66398 h 3.39561 c 2.81469,0 3.48358,-0.0228 3.90979,-0.13324 z"
       id="path302" /></g></svg>
