<?xml version="1.0" encoding="UTF-8" standalone="no"?>
<!-- Created with Inkscape (http://www.inkscape.org/) -->

<svg
   width="135.62299mm"
   height="57.58287mm"
   viewBox="0 0 135.62299 57.58287"
   version="1.1"
   id="svg5"
   xml:space="preserve"
   xmlns="http://www.w3.org/2000/svg"
   xmlns:svg="http://www.w3.org/2000/svg"><defs
     id="defs2" /><g
     id="layer1"
     transform="translate(-62.706226,-115.33439)"><path
       style="fill:#ffffff;stroke-width:0.0761113"
       d="m 184.99527,172.88047 c -0.78687,-0.0988 -1.30647,-0.27881 -1.82102,-0.63093 -0.78215,-0.53525 -1.2966,-1.46992 -1.41089,-2.56331 l -0.0458,-0.43783 0.29508,-0.047 c 0.1623,-0.0259 0.67863,-0.0702 1.14742,-0.0986 l 0.85234,-0.0516 0.0893,0.35466 c 0.13616,0.54072 0.46664,0.98033 0.92569,1.23134 0.79104,0.43256 1.94512,0.23412 2.38258,-0.40967 0.25635,-0.37725 0.24322,-0.66024 -0.043,-0.92763 -0.25083,-0.23431 -0.64649,-0.37711 -2.18487,-0.78856 -0.55404,-0.14818 -1.20479,-0.36268 -1.44612,-0.47666 -0.61204,-0.28908 -1.17304,-0.84164 -1.42538,-1.40393 -0.19034,-0.42413 -0.20434,-0.52274 -0.1807,-1.27276 0.03,-0.95228 0.18548,-1.35743 0.72974,-1.90169 0.76449,-0.76449 2.29496,-1.08655 4.02197,-0.84635 1.64425,0.2287 2.57314,1.08666 2.78298,2.57049 0.0484,0.34201 0.074,0.63403 0.057,0.64893 -0.017,0.0149 -0.54745,0.0503 -1.17868,0.0786 l -1.14769,0.0515 -0.0879,-0.28863 c -0.23273,-0.76379 -0.67968,-1.0832 -1.51983,-1.08613 -0.6526,-0.002 -1.1873,0.23482 -1.39197,0.61726 -0.0904,0.16888 0.15944,0.48175 0.5395,0.67564 0.16027,0.0818 0.76497,0.27309 1.34378,0.42518 2.04403,0.53707 2.77736,0.90361 3.22859,1.61374 0.36422,0.57319 0.47036,1.05754 0.4349,1.98457 -0.0263,0.68854 -0.0622,0.87365 -0.24077,1.24401 -0.40255,0.83478 -1.13224,1.39047 -2.12229,1.61624 -0.61421,0.14005 -1.93282,0.20084 -2.58389,0.1191 z m -74.5747,-5.17833 v -5.02484 l 1.65262,0.0205 1.65263,0.0205 0.76142,2.87189 c 0.41878,1.57954 0.78402,2.8468 0.81165,2.81612 0.0438,-0.0487 1.51503,-5.56619 1.51503,-5.6819 0,-0.0243 0.75351,-0.0442 1.67445,-0.0442 h 1.67445 v 5.02335 5.02335 h -1.10361 -1.10362 l -0.007,-3.02543 -0.007,-3.02543 -0.76389,3.02736 -0.76389,3.02736 -1.14643,-0.021 -1.14643,-0.0209 -0.73954,-2.93029 -0.73955,-2.93029 -0.007,2.94932 -0.007,2.94931 h -1.10361 -1.10362 z m 10.96003,10e-4 v -5.02335 h 1.14167 1.14168 v 5.02335 5.02335 h -1.14168 -1.14167 z m 3.50113,-0.004 v -5.03774 l 2.60681,0.0384 c 2.82269,0.0416 3.12328,0.0797 3.88204,0.49269 0.5199,0.28296 1.14543,0.98681 1.45762,1.64012 0.39087,0.81796 0.51742,1.55023 0.51584,2.98478 -0.001,1.37378 -0.1339,2.06852 -0.55258,2.90005 -0.45536,0.90435 -1.0529,1.43633 -2.01718,1.79586 -0.42762,0.15944 -0.58928,0.16942 -3.17157,0.1958 l -2.72098,0.0278 z m 4.9921,2.7814 c 0.40548,-0.20515 0.47413,-0.27641 0.69583,-0.72232 0.31189,-0.62734 0.43334,-1.40006 0.3776,-2.40238 -0.0703,-1.26394 -0.43543,-2.00521 -1.16312,-2.36123 -0.39521,-0.19336 -0.52558,-0.21488 -1.48806,-0.24559 l -1.0549,-0.0337 v 3.02462 3.02462 l 1.0914,-0.0282 c 1.03298,-0.0267 1.11547,-0.0404 1.54125,-0.25583 z m 4.52182,-2.78665 v -5.03266 l 2.56876,0.0402 c 1.8638,0.0292 2.68364,0.07 2.98737,0.14871 1.34253,0.34791 2.27282,1.33989 2.67299,2.85024 0.19868,0.74986 0.27801,2.54415 0.14905,3.37101 -0.23896,1.5321 -0.95375,2.67799 -1.9999,3.20609 -0.80602,0.40687 -1.15141,0.44669 -3.88562,0.44792 l -2.49265,0.001 z m 4.85113,2.86722 c 0.41268,-0.17102 0.71923,-0.52268 0.9433,-1.08208 0.16174,-0.40379 0.1779,-0.56088 0.17905,-1.73957 l 10e-4,-1.2957 -0.26639,-0.52804 c -0.46554,-0.92275 -1.02636,-1.18086 -2.56575,-1.18086 h -0.85929 v 3.01582 3.01582 l 1.12264,-0.0359 c 0.83263,-0.0266 1.20595,-0.0704 1.44515,-0.16952 z m 4.66279,-2.81985 v -4.9853 h 1.14167 1.14167 v 3.99585 3.99585 h 2.43557 2.43556 v 0.98945 0.98945 h -3.57723 -3.57724 z m 7.91559,-0.0381 v -5.02335 h 3.76751 3.76752 v 1.02751 1.0275 h -2.58779 -2.58779 v 0.87528 0.87528 h 2.39751 2.39751 v 0.98945 0.98945 h -2.39751 -2.39751 v 1.14167 1.14167 h 2.6639 2.6639 v 0.98945 0.98945 h -3.84363 -3.84362 z m 12.17782,0 v -5.02335 h 3.76751 3.76752 v 1.02751 1.0275 h -2.58779 -2.58779 v 0.87528 0.87528 h 2.43557 2.43556 v 0.98945 0.98945 h -2.43556 -2.43557 v 1.14167 1.14167 h 2.69929 2.69929 l 0.0217,0.77886 0.0217,0.77887 1.86647,-4.79374 1.86645,-4.79374 1.21958,-0.0208 1.21959,-0.0208 1.91828,4.79751 c 1.05505,2.63863 1.91828,4.89996 1.91828,5.02516 v 0.22765 h -1.23871 -1.23869 l -0.41673,-1.10383 -0.41671,-1.10382 -1.7405,0.0192 -1.74049,0.0192 -0.39034,1.08459 -0.39034,1.08459 h -5.11878 -5.11877 z m 13.69725,0.78015 c -0.001,-0.0314 -0.21817,-0.63446 -0.48139,-1.34013 l -0.47858,-1.28304 -0.47001,1.29178 c -0.2585,0.71049 -0.47001,1.31354 -0.47001,1.34013 0,0.0266 0.42813,0.0483 0.9514,0.0483 0.52326,0 0.95012,-0.0257 0.94859,-0.0571 z m 15.45341,0.24736 v -3.99585 h -1.44612 -1.44612 v -1.0275 -1.02751 h 4.03391 4.0339 v 1.02751 1.0275 h -1.44612 -1.44611 v 3.99585 3.99585 h -1.14167 -1.14167 z M 80.127735,157.13057 c -0.59706,-0.18741 -0.96952,-0.532 -1.24139,-1.14852 -0.2472,-0.56053 -0.75699,-2.143 -0.99304,-3.08251 -0.46132,-1.83606 -0.95365,-5.00101 -1.01231,-6.50752 -0.0382,-0.98038 -0.0316,-1.04322 0.1438,-1.37001 0.25721,-0.47929 5.15325,-4.86077 5.68929,-5.09137 0.26055,-0.11208 0.53241,-0.16031 0.9037,-0.16031 0.82051,0 1.12984,0.20619 3.52907,2.35242 3.19162,2.85506 3.14085,2.79778 3.22759,3.64041 0.0473,0.45902 -0.17719,2.06992 -0.70129,5.03337 -0.32789,1.85394 -0.46068,2.38003 -1.0336,4.09482 -0.50186,1.50213 -0.68044,1.80696 -1.23102,2.10138 -0.31173,0.16671 -0.36302,0.16925 -3.70307,0.18338 -1.86282,0.008 -3.4728,-0.0126 -3.57773,-0.0455 z m 5.6052,-2.80511 c 0.16869,-0.10889 0.72088,-2.05031 0.9787,-3.44099 0.33861,-1.82645 0.72329,-4.12986 0.72329,-4.33101 0,-0.10969 -0.58169,-0.68098 -1.91079,-1.87663 -1.70285,-1.53187 -1.92441,-1.70734 -2.03598,-1.61244 -0.0688,0.0586 -0.94297,0.83745 -1.94248,1.73083 l -1.8173,1.62433 0.0493,0.53804 c 0.19891,2.17204 0.98945,5.87699 1.53008,7.1709 l 0.10663,0.25522 2.11598,-0.001 c 1.16378,-5.7e-4 2.15495,-0.0263 2.2026,-0.0571 z M 188.5489,153.84669 c -1.19059,-0.1609 -2.61023,-0.69108 -3.59932,-1.3442 -0.62939,-0.41562 -1.61856,-1.39062 -2.05294,-2.02354 -0.20676,-0.30127 -1.32874,-2.22601 -2.49329,-4.27721 -6.02352,-10.60964 -10.86135,-19.0255 -10.98756,-19.1139 -0.12168,-0.0852 -0.16226,-0.0769 -0.28471,0.0584 -0.13834,0.15286 -0.14342,0.56708 -0.16247,13.23967 l -0.0197,13.08189 -0.18299,0.0459 c -0.10066,0.0252 -1.25631,0.0323 -2.56813,0.0155 -2.16472,-0.0276 -2.42905,-0.045 -2.86066,-0.18884 -0.91691,-0.30549 -1.7096,-0.98112 -2.10907,-1.79758 -0.43305,-0.88514 -0.41908,-0.45032 -0.41983,-13.0664 -8.7e-4,-7.3629 0.0275,-11.85746 0.0766,-12.29199 0.34953,-3.09674 2.28062,-5.67251 5.05661,-6.74469 1.15699,-0.44687 1.64594,-0.53871 3.08486,-0.57949 1.881,-0.0533 2.91094,0.16064 4.33835,0.90118 1.07448,0.55744 2.31459,1.66197 2.98248,2.65641 0.15429,0.22973 3.21274,5.55475 6.79654,11.83339 3.58381,6.27862 6.56074,11.44072 6.61541,11.47131 0.0547,0.0306 0.16436,0.008 0.24376,-0.0499 0.14064,-0.10284 0.14488,-0.44359 0.16403,-13.22968 l 0.0197,-13.12412 0.62728,-0.0488 c 0.92615,-0.0721 3.57094,-0.0576 4.34454,0.0237 1.23437,0.12986 2.18343,0.77648 2.70847,1.84534 0.48931,0.99611 0.46888,0.3663 0.44202,13.63178 -0.0242,11.96075 -0.0254,12.04402 -0.1853,12.68672 -0.32398,1.30257 -0.78267,2.28259 -1.52474,3.25772 -1.11212,1.46139 -2.86038,2.5687 -4.71624,2.98717 -0.78548,0.17712 -2.53139,0.25265 -3.3337,0.14422 z m -75.23163,-0.41807 c -0.26963,-0.0588 -0.68063,-0.19949 -0.91333,-0.31272 -0.54123,-0.26337 -1.28869,-1.01005 -1.55124,-1.54964 -0.45087,-0.92658 -0.42948,-0.0892 -0.42965,-16.81928 -7e-5,-8.43505 0.025,-15.3749 0.0558,-15.42189 0.0398,-0.0607 1.19532,-0.0937 3.99732,-0.11417 3.4417,-0.0251 3.95059,-0.0142 4.01381,0.0854 0.0454,0.0716 0.0657,6.47713 0.0545,17.16311 l -0.018,17.04895 -2.35946,0.0135 c -1.78407,0.0102 -2.479,-0.0125 -2.8497,-0.0933 z m 22.41033,-0.12383 c -1.86886,-0.18816 -3.7615,-0.74031 -5.55613,-1.62092 -5.02691,-2.46665 -8.43683,-7.08899 -9.29402,-12.59854 -0.16937,-1.08863 -0.19537,-4.01905 -0.0449,-5.06141 0.27328,-1.89331 0.76087,-3.4987 1.5719,-5.17557 0.90739,-1.87608 1.98742,-3.36713 3.48015,-4.80456 2.64723,-2.54918 6.35069,-4.25086 9.99523,-4.59266 0.52745,-0.0495 4.67425,-0.0785 11.2074,-0.0786 l 10.37018,-7e-5 v 4.03057 4.03056 l -10.21795,0.0283 c -10.97903,0.0304 -10.56149,0.016 -11.93046,0.41036 -3.24155,0.93376 -5.75879,3.8137 -6.36581,7.28302 -0.46649,2.66615 0.83067,6.02059 3.05499,7.90017 1.45626,1.23056 3.08855,1.91711 5.02019,2.11151 0.87718,0.0883 13.17041,0.12244 13.39251,0.0372 0.10635,-0.0408 0.12039,-0.33369 0.12039,-2.51167 V 140.227 h -7.76336 -7.76336 v -3.79035 c 0,-2.84656 0.0228,-3.81309 0.0913,-3.88168 0.0701,-0.0701 2.44385,-0.0913 10.22099,-0.0913 11.05796,0 10.5114,-0.0208 11.45553,0.43509 0.86138,0.41589 1.60185,1.41306 1.82461,2.45714 0.0651,0.305 0.082,1.87501 0.0623,5.78447 -0.027,5.3489 -0.0276,5.36788 -0.20489,6.0081 -0.79015,2.85355 -2.60346,4.84408 -5.25922,5.77322 -1.35724,0.47484 -1.3331,0.47365 -9.43219,0.46236 -4.0427,-0.006 -7.65862,-0.0413 -8.03537,-0.0792 z m -62.320915,-0.93247 c -1.03339,-0.55464 -2.35211,-1.59127 -3.37415,-2.65239 -0.74242,-0.77081 -1.96904,-2.33375 -2.6118,-3.32791 -0.31494,-0.48713 -0.31946,-0.50373 -0.29428,-1.08077 0.0239,-0.54697 0.0427,-0.60371 0.28253,-0.85115 0.35919,-0.3706 0.59663,-0.44908 1.2577,-0.41569 0.69883,0.0353 0.74934,0.0765 1.57055,1.28205 1.13693,1.66899 2.17363,2.7098 4.0647,4.08081 0.54212,0.39303 1.05588,0.82553 1.14167,0.9611 0.12068,0.19068 0.15491,0.36727 0.15118,0.77994 -0.009,0.94904 -0.38051,1.35167 -1.28874,1.39509 -0.4571,0.0219 -0.58533,-0.003 -0.89936,-0.17108 z m 18.83461,0.0556 c -0.14026,-0.0691 -0.34388,-0.25992 -0.45248,-0.42402 -0.16117,-0.24355 -0.19821,-0.39145 -0.20163,-0.80498 -0.005,-0.60458 0.15006,-0.92148 0.61974,-1.26661 0.17174,-0.1262 0.66553,-0.48633 1.09731,-0.80028 1.41403,-1.02818 2.92454,-2.65251 3.99624,-4.29737 0.42263,-0.64866 0.6817,-0.8021 1.35429,-0.8021 0.63048,0 0.98165,0.14932 1.23957,0.52707 0.218965,0.32068 0.295155,0.84898 0.180285,1.2501 -0.104135,0.36364 -0.986605,1.70941 -1.704405,2.59924 -1.0723,1.32927 -3.0521,3.06615 -4.41195,3.8706 -0.41218,0.24384 -0.52919,0.27726 -0.96548,0.27573 -0.30451,-10e-4 -0.59506,-0.0503 -0.75149,-0.12738 z m -19.95254,-9.54272 c -4.01352,-0.6066 -5.14558,-0.84795 -7.3095,-1.55834 -1.48137,-0.48631 -1.88675,-0.71504 -2.11953,-1.1959 -0.16356,-0.33787 -0.16514,-0.38082 -0.14416,-3.91498 l 0.0212,-3.57336 0.21308,-0.3219 c 0.28559,-0.43144 0.72747,-0.69662 1.79032,-1.0744 1.7945,-0.63783 3.47714,-1.0077 6.92039,-1.52121 2.76444,-0.41228 3.05768,-0.35016 4.17204,0.88376 3.07924,3.40961 3.82772,4.26934 4.0102,4.60626 0.18104,0.33425 0.20931,0.47278 0.20931,1.02554 0,0.48393 -0.0376,0.71903 -0.1548,0.96839 -0.0892,0.1898 -1.124,1.4133 -2.44253,2.88799 -2.60288,2.91113 -2.5865,2.89787 -3.60575,2.9192 -0.33489,0.007 -1.03702,-0.052 -1.56028,-0.13105 z m 1.24914,-2.90557 c 0.27675,-0.24675 3.31755,-3.6612 3.31755,-3.7252 0,-0.0588 -3.17203,-3.6136 -3.37174,-3.77861 -0.14428,-0.11922 -0.7014,-0.0607 -2.86939,0.30161 -2.07902,0.34741 -4.78727,1.05934 -5.05741,1.32947 -0.10093,0.10093 -0.11817,0.41511 -0.11817,2.15319 0,1.51215 0.0245,2.0664 0.0951,2.15714 0.10404,0.13354 1.11809,0.47314 2.30591,0.77223 1.36895,0.34471 2.60725,0.56137 5.45321,0.95413 0.0291,0.004 0.13926,-0.0698 0.2449,-0.16396 z m 19.13485,2.95672 c -0.15414,-0.055 -0.38316,-0.16524 -0.50894,-0.24487 -0.12577,-0.0796 -1.22689,-1.25754 -2.44692,-2.61756 -2.56277,-2.85683 -2.6175,-2.93989 -2.57269,-3.90433 0.0183,-0.3944 0.0795,-0.72665 0.16639,-0.90436 0.18992,-0.38826 4.61702,-5.33099 4.97317,-5.5524 0.26637,-0.16561 0.36517,-0.17901 1.27813,-0.17335 1.92308,0.0119 5.92984,0.74456 8.372265,1.53087 1.58038,0.50879 2.08722,0.80814 2.4235,1.43134 0.16143,0.29917 0.16429,0.3645 0.16429,3.76751 0,3.41818 -0.002,3.46711 -0.16677,3.77472 -0.2051,0.38328 -0.62666,0.76229 -1.04947,0.94352 -0.57827,0.24788 -2.22983,0.75972 -3.2934,1.02068 -1.277325,0.3134 -2.849215,0.58904 -4.808485,0.84319 -1.65569,0.21477 -2.12375,0.2305 -2.53107,0.085 z m 2.48749,-2.97778 c 2.14042,-0.27533 4.06425,-0.67928 5.641765,-1.18461 0.38943,-0.12474 0.76066,-0.27941 0.82496,-0.34371 0.0994,-0.0994 0.11691,-0.42766 0.11691,-2.19522 0,-1.57192 -0.0232,-2.09657 -0.0951,-2.15328 -0.12205,-0.0962 -1.62241,-0.56251 -2.606825,-0.81024 -1.18696,-0.2987 -4.60915,-0.88399 -5.16872,-0.88399 -0.11652,0 -3.56369,3.79651 -3.52884,3.88645 0.0192,0.0495 2.7042,3.05973 3.23711,3.62921 0.1841,0.19674 0.27536,0.23948 0.4483,0.20996 0.11943,-0.0204 0.62814,-0.09 1.13048,-0.15457 z m -12.13977,-7.25711 c -0.50543,-0.1664 -0.97728,-0.54029 -3.27279,-2.59332 -2.90903,-2.60175 -2.89223,-2.58024 -2.89223,-3.70262 0,-0.72435 0.25819,-2.85641 0.53833,-4.44525 0.34568,-1.96064 1.13939,-4.73853 1.63125,-5.70916 0.20251,-0.39964 0.53214,-0.68825 0.94332,-0.82591 0.36487,-0.12217 6.76454,-0.12064 7.17291,0.002 0.3734,0.11187 0.86638,0.53083 1.04756,0.89026 0.23158,0.45943 0.76193,2.04106 1.03726,3.09336 0.49161,1.87896 1.22456,6.50415 1.15469,7.28658 -0.074,0.82884 -0.14478,0.91101 -2.92938,3.40065 -1.42228,1.27163 -2.71403,2.36599 -2.89784,2.45504 -0.35891,0.17387 -1.20679,0.25609 -1.53308,0.14867 z m 2.47362,-4.83869 c 0.83723,-0.7446 1.62821,-1.46333 1.75775,-1.59717 l 0.23551,-0.24335 -0.13524,-0.98446 c -0.3204,-2.33224 -0.77467,-4.47646 -1.28567,-6.06859 -0.19761,-0.6157 -0.27258,-0.75841 -0.42984,-0.8182 -0.10476,-0.0398 -1.06162,-0.0724 -2.12636,-0.0724 -1.81372,0 -1.94519,0.009 -2.08338,0.1475 -0.25098,0.25097 -0.83101,2.318 -1.176,4.19085 -0.25012,1.35779 -0.51919,3.30361 -0.48911,3.53709 0.0171,0.13308 0.56703,0.67378 1.92677,1.89455 l 1.90279,1.70831 0.19028,-0.17015 c 0.10465,-0.0936 0.87528,-0.77937 1.7125,-1.52397 z m -17.66161,0.53999 c -0.31774,-0.14383 -0.62196,-0.52491 -0.72523,-0.90844 -0.14564,-0.54086 0.005,-0.97536 0.69118,-1.99051 1.36613,-2.02176 2.97534,-3.62842 4.99296,-4.98504 0.83601,-0.56212 1.27362,-0.68819 1.88516,-0.54306 1.11501,0.2646 1.3078,1.91962 0.30413,2.61093 -2.19032,1.50869 -3.60279,2.89299 -4.85517,4.75837 -0.29628,0.4413 -0.63462,0.87388 -0.75187,0.96129 -0.26864,0.20028 -1.18509,0.25764 -1.54116,0.0965 z m 30.10463,-0.0371 c -0.18249,-0.0965 -0.43194,-0.389 -0.79984,-0.93806 -1.13303,-1.69094 -2.10666,-2.69059 -4.05065,-4.1589 -0.70672,-0.53379 -1.28548,-1.02878 -1.35098,-1.15544 -0.17517,-0.33874 -0.15328,-1.26837 0.0372,-1.58082 0.2674,-0.43858 0.55915,-0.5619 1.26767,-0.53585 l 0.62031,0.0228 0.86757,0.58521 c 1.09537,0.73886 2.37368,1.83481 3.15375,2.70386 1.0091,1.12419 2.03483,2.53828 2.320365,3.1989 0.31414,0.72678 0.0588,1.53297 -0.585065,1.84735 -0.40596,0.19822 -1.11606,0.20347 -1.48036,0.0109 z"
       id="path302" /></g></svg>
