<?xml version="1.0" encoding="UTF-8" standalone="no"?>
<!-- Created with Inkscape (http://www.inkscape.org/) -->

<svg
   version="1.1"
   id="svg2"
   width="182.53867"
   height="70.785332"
   viewBox="0 0 182.53867 70.785334"
   xmlns="http://www.w3.org/2000/svg"
   xmlns:svg="http://www.w3.org/2000/svg">
  <defs
     id="defs6">
    <clipPath
       clipPathUnits="userSpaceOnUse"
       id="clipPath18">
      <path
         d="M 0,113.386 H 396.85 V 0 H 0 Z"
         id="path16" />
    </clipPath>
  </defs>
  <g
     id="g8"
     transform="matrix(1.3333333,0,0,-1.3333333,-11.338666,110.98293)">
    <path
       d="m 8.504,82.513 h 9.925 V 72.588 H 8.504 Z"
       style="fill:#ffffff;fill-opacity:1;fill-rule:nonzero;stroke:none"
       id="path10" />
    <g
       id="g12">
      <g
         id="g14"
         clip-path="url(#clipPath18)">
        <g
           id="g20"
           transform="translate(92.141,52.0722)">
          <path
             d="m 0,0 c -0.003,2.614 2.999,7.177 9.468,7.184 6.469,0 9.477,-4.559 9.477,-7.173 z m 27.972,-3.276 c 0,2.559 -0.457,4.988 -1.358,7.219 -0.901,2.228 -2.175,4.211 -3.786,5.895 -1.61,1.68 -3.568,3.013 -5.818,3.961 -2.252,0.948 -4.765,1.428 -7.47,1.428 -2.559,0 -4.998,-0.492 -7.249,-1.463 C 0.037,12.791 -1.947,11.457 -3.606,9.798 -5.266,8.138 -6.6,6.154 -7.572,3.902 c -0.971,-2.25 -1.463,-4.689 -1.463,-7.25 0,-2.563 0.469,-5.004 1.393,-7.255 0.925,-2.254 2.223,-4.236 3.857,-5.893 1.634,-1.659 3.641,-2.992 5.964,-3.963 2.325,-0.972 4.899,-1.465 7.651,-1.465 7.957,0 12.921,3.621 15.883,7.007 l -6.768,5.156 c -1.427,-1.694 -4.813,-3.99 -9.042,-3.99 -2.654,0 -4.838,0.614 -6.493,1.825 -1.657,1.212 -2.799,2.879 -3.393,4.956 l -0.094,0.332 h 28.049 z m -64.883,14.263 c -2.605,2.813 -6.286,4.24 -10.94,4.24 -2.244,0 -4.32,-0.462 -6.171,-1.374 -1.85,-0.912 -3.422,-2.194 -4.673,-3.809 l -0.512,-0.661 -0.004,0.594 v 4.526 h -9.276 V -21.2 h 9.348 v 19.021 l 0.008,-1.32 c 0,0.218 0.004,0.432 0.01,0.643 0.096,3.336 0.93,5.825 2.481,7.404 1.654,1.684 3.662,2.538 5.969,2.538 2.714,0 4.785,-0.831 6.157,-2.47 1.343,-1.608 2.03,-3.91 2.044,-6.844 l 10e-4,0.001 v -0.074 c 0,-0.005 0,-0.011 0,-0.016 v 0 -18.883 h 9.493 v 20.268 c 0,5.089 -1.324,9.099 -3.935,11.919 M 42.278,31.165 H 32.873 V -21.2 h 9.405 z m -53.905,-52.727 v 8.754 c -1.386,0.008 -2.53,0.082 -3.403,0.22 -0.97,0.153 -1.713,0.482 -2.208,0.978 -0.496,0.495 -0.825,1.213 -0.978,2.134 -0.147,0.88 -0.221,2.04 -0.221,3.447 V 6.46 h 6.81 v 8.043 h -6.81 v 13.91 h -9.405 V -6.101 c 0,-2.911 0.253,-5.388 0.752,-7.362 0.494,-1.95 1.337,-3.544 2.506,-4.736 1.168,-1.192 2.713,-2.059 4.592,-2.575 1.897,-0.523 4.311,-0.788 7.176,-0.788 z m -62.345,36.065 h -9.405 V -21.2 h 9.405 z"
             style="fill:#ffffff;fill-opacity:1;fill-rule:nonzero;stroke:none"
             id="path22" />
        </g>
        <g
           id="g24"
           transform="translate(142.188,34.3141)">
          <path
             d="M 0,0 C -0.112,-0.009 -0.225,-0.014 -0.337,-0.014 H -0.871 V 1.1 h 0.534 C -0.225,1.1 -0.112,1.097 0,1.09 0.112,1.084 0.214,1.062 0.304,1.025 0.395,0.988 0.468,0.931 0.524,0.856 0.58,0.782 0.608,0.679 0.608,0.547 0.608,0.416 0.58,0.314 0.524,0.239 0.468,0.164 0.395,0.108 0.304,0.07 0.214,0.033 0.112,0.009 0,0 m 0.393,-0.576 c 0.272,0.031 0.497,0.134 0.676,0.309 0.18,0.175 0.269,0.437 0.269,0.787 0,0.386 -0.114,0.683 -0.341,0.889 -0.228,0.206 -0.582,0.309 -1.063,0.309 h -1.535 v -3.979 h 0.73 v 1.629 h 0.534 L 0.655,-2.261 H 1.423 Z M 2.378,-1.409 C 2.228,-1.759 2.023,-2.063 1.764,-2.322 1.505,-2.581 1.201,-2.785 0.852,-2.935 c -0.35,-0.15 -0.721,-0.224 -1.114,-0.224 -0.393,0 -0.765,0.074 -1.114,0.224 -0.35,0.15 -0.654,0.354 -0.913,0.613 -0.259,0.259 -0.463,0.563 -0.613,0.913 -0.15,0.35 -0.225,0.721 -0.225,1.114 0,0.393 0.075,0.765 0.225,1.114 0.15,0.349 0.354,0.654 0.613,0.913 0.259,0.259 0.563,0.463 0.913,0.613 0.349,0.149 0.721,0.225 1.114,0.225 0.393,0 0.764,-0.076 1.114,-0.225 C 1.201,2.195 1.505,1.991 1.764,1.732 2.023,1.473 2.228,1.168 2.378,0.819 2.527,0.47 2.602,0.098 2.602,-0.295 2.602,-0.688 2.527,-1.059 2.378,-1.409 M 2.944,1.058 C 2.76,1.479 2.51,1.847 2.195,2.162 1.88,2.477 1.512,2.727 1.09,2.911 0.669,3.095 0.218,3.187 -0.262,3.187 -0.743,3.187 -1.194,3.095 -1.615,2.911 -2.036,2.727 -2.404,2.477 -2.719,2.162 -3.035,1.847 -3.284,1.479 -3.468,1.058 -3.653,0.636 -3.744,0.186 -3.744,-0.295 c 0,-0.481 0.091,-0.931 0.276,-1.352 0.184,-0.422 0.433,-0.79 0.749,-1.105 0.315,-0.315 0.683,-0.565 1.104,-0.749 0.421,-0.184 0.872,-0.276 1.353,-0.276 0.48,0 0.931,0.092 1.352,0.276 0.422,0.184 0.79,0.434 1.105,0.749 0.315,0.315 0.565,0.683 0.749,1.105 0.184,0.421 0.276,0.871 0.276,1.352 0,0.481 -0.092,0.931 -0.276,1.353"
             style="fill:#ffffff;fill-opacity:1;fill-rule:nonzero;stroke:none"
             id="path26" />
        </g>
      </g>
    </g>
  </g>
</svg>
