<?xml version="1.0" encoding="UTF-8" standalone="no"?>
<!-- Created with Inkscape (http://www.inkscape.org/) -->

<svg
   version="1.1"
   id="svg2"
   width="377.95346"
   height="409.35599"
   viewBox="0 0 377.95346 409.35599"
   xmlns="http://www.w3.org/2000/svg"
   xmlns:svg="http://www.w3.org/2000/svg">
  <defs
     id="defs6">
    <clipPath
       clipPathUnits="userSpaceOnUse"
       id="clipPath18">
      <path
         d="M 0,467.077 H 443.526 V 0 H 0 Z"
         id="path16" />
    </clipPath>
  </defs>
  <g
     id="g10"
     transform="matrix(1.3333333,0,0,-1.3333333,-106.70693,516.06265)">
    <g
       id="g12">
      <g
         id="g14"
         clip-path="url(#clipPath18)">
        <g
           id="g20"
           transform="translate(109.8622,139.422)">
          <path
             d="m 0,0 c -13.37,0.071 -23.002,10.423 -23.002,23.649 0,13.299 9.847,23.506 22.931,23.506 13.297,0 23.002,-10.064 23.002,-23.577 C 22.931,11.214 13.226,-0.072 0,0 m 16.03,-1.725 c 8.339,5.176 13.873,14.377 13.873,25.303 0,17.323 -13.299,29.687 -29.974,29.687 -16.39,0 -29.761,-12.652 -29.761,-29.687 0,-16.964 13.012,-29.759 29.761,-29.759 3.738,0 7.331,0.647 10.638,1.868 7.979,-10.207 18.474,-17.383 31.34,-17.383 1.897,0 8.483,-0.283 8.483,5.967 -2.947,-0.216 -5.536,-0.36 -7.692,-0.36 -10.782,0 -19.624,6.17 -26.668,14.364"
             style="fill:#ffffff;fill-opacity:1;fill-rule:nonzero;stroke:none"
             id="path22" />
        </g>
        <g
           id="g24"
           transform="translate(237.1918,138.8466)">
          <path
             d="m 0,0 c -8.123,0 -14.017,6.973 -14.017,15.743 0,7.979 5.679,14.807 14.017,14.807 8.123,0 13.944,-5.966 13.944,-14.807 C 13.944,6.469 8.266,0 0,0 M 14.377,52.834 H 13.873 V 29.616 c -3.091,4.098 -9.057,6.613 -14.735,6.613 -11.286,0 -19.409,-9.273 -19.409,-20.486 0,-11.645 7.907,-21.422 19.409,-21.422 5.821,0 11.788,2.373 15.022,7.117 0,-3.881 2.444,-6.254 5.536,-6.254 h 0.144 v 52.187 c 0,3.091 -2.445,5.463 -5.463,5.463"
             style="fill:#ffffff;fill-opacity:1;fill-rule:nonzero;stroke:none"
             id="path26" />
        </g>
        <g
           id="g28"
           transform="translate(186.9301,138.8466)">
          <path
             d="m 0,0 c -8.123,0 -14.017,6.973 -14.017,15.743 0,7.979 5.679,14.807 14.017,14.807 8.123,0 13.944,-5.966 13.944,-14.807 C 13.944,6.469 8.266,0 0,0 M 14.377,52.834 H 13.873 V 29.616 c -3.091,4.098 -9.057,6.613 -14.735,6.613 -11.286,0 -19.409,-9.273 -19.409,-20.486 0,-11.645 7.907,-21.422 19.409,-21.422 5.821,0 11.788,2.373 15.022,7.117 0,-3.881 2.444,-6.254 5.536,-6.254 h 0.144 v 52.187 c 0,3.091 -2.445,5.463 -5.463,5.463"
             style="fill:#ffffff;fill-opacity:1;fill-rule:nonzero;stroke:none"
             id="path30" />
        </g>
        <g
           id="g32"
           transform="translate(270.2098,173.7099)">
          <path
             d="m 0,0 h -0.504 v -34.288 c 0,-2.876 2.444,-5.391 5.392,-5.391 H 5.463 V -5.463 C 5.463,-2.372 3.019,0 0,0"
             style="fill:#ffffff;fill-opacity:1;fill-rule:nonzero;stroke:none"
             id="path34" />
        </g>
        <g
           id="g36"
           transform="translate(151.2112,173.7099)">
          <path
             d="m 0,0 h -0.504 v -34.288 c 0,-2.876 2.444,-5.391 5.392,-5.391 H 5.463 V -5.463 C 5.463,-2.372 3.019,0 0,0"
             style="fill:#ffffff;fill-opacity:1;fill-rule:nonzero;stroke:none"
             id="path38" />
        </g>
        <g
           id="g40"
           transform="translate(343.6553,138.8466)">
          <path
             d="m 0,0 c -8.123,0 -14.017,7.116 -14.017,15.743 0,7.979 5.679,14.807 14.017,14.807 8.123,0 13.946,-5.966 13.946,-14.807 C 13.946,6.614 8.266,0 0,0 m 13.873,34.863 v -5.247 c -3.09,4.098 -9.057,6.613 -14.735,6.613 -11.286,0 -19.409,-9.273 -19.409,-20.486 0,-11.501 7.907,-21.422 19.409,-21.422 5.822,0 11.788,2.373 15.023,7.117 0,-3.881 2.443,-6.254 5.535,-6.254 h 0.144 v 39.679 z"
             style="fill:#ffffff;fill-opacity:1;fill-rule:nonzero;stroke:none"
             id="path42" />
        </g>
        <g
           id="g44"
           transform="translate(153.6907,184.133)">
          <path
             d="M 0,0 C 2.084,0 3.774,1.69 3.774,3.774 3.774,5.858 2.084,7.548 0,7.548 -2.084,7.548 -3.774,5.858 -3.774,3.774 -3.774,1.69 -2.084,0 0,0"
             style="fill:#ffffff;fill-opacity:1;fill-rule:nonzero;stroke:none"
             id="path46" />
        </g>
        <g
           id="g48"
           transform="translate(272.6893,191.6806)">
          <path
             d="m 0,0 c -2.084,0 -3.774,-1.69 -3.774,-3.774 0,-2.084 1.69,-3.774 3.774,-3.774 2.084,0 3.774,1.69 3.774,3.774 C 3.774,-1.69 2.084,0 0,0"
             style="fill:#ffffff;fill-opacity:1;fill-rule:nonzero;stroke:none"
             id="path50" />
        </g>
        <g
           id="g52"
           transform="translate(302.709,143.2315)">
          <path
             d="m 0,0 -11.357,27.029 c -0.791,1.94 -1.653,3.449 -5.679,3.449 h -2.228 L -3.307,-6.901 c -2.659,-6.181 -5.317,-10.553 -7.33,-11.775 -2.516,-1.725 -5.463,-1.51 -9.561,-0.935 0,-5.894 5.39,-5.894 5.967,-5.894 5.607,0 10.639,3.882 13.37,10.207 L 19.09,30.478 h -6.468 z"
             style="fill:#ffffff;fill-opacity:1;fill-rule:nonzero;stroke:none"
             id="path54" />
        </g>
        <g
           id="g56"
           transform="translate(142.8954,89.6936)">
          <path
             d="M 0,0 C 1.998,0 3.077,0.918 3.077,2.618 3.077,4.319 1.998,5.237 0,5.237 H -8.88 V 0 Z M -12.39,8.341 H 0.243 c 4.049,0 6.451,-2.213 6.451,-5.723 0,-3.509 -2.456,-5.722 -6.451,-5.722 H -8.88 v -6.559 h -3.51 z"
             style="fill:#ffffff;fill-opacity:1;fill-rule:nonzero;stroke:none"
             id="path58" />
        </g>
        <g
           id="g60"
           transform="translate(156.2636,98.0345)">
          <path
             d="m 0,0 h 3.509 v -14.899 h 11.607 v -3.105 H 0 Z"
             style="fill:#ffffff;fill-opacity:1;fill-rule:nonzero;stroke:none"
             id="path62" />
        </g>
        <g
           id="g64"
           transform="translate(190.9555,86.5354)">
          <path
             d="M 0,0 -3.914,8.341 -7.855,0 Z m -6.073,11.499 h 4.291 L 6.991,-6.505 H 3.05 L 1.458,-3.104 H -9.313 l -1.592,-3.401 h -3.941 z"
             style="fill:#ffffff;fill-opacity:1;fill-rule:nonzero;stroke:none"
             id="path66" />
        </g>
        <g
           id="g68"
           transform="translate(208.4257,87.346)">
          <path
             d="m 0,0 -8.881,10.688 h 4.589 l 6.046,-7.45 5.966,7.45 h 4.642 L 3.509,0 V -7.315 H 0 Z"
             style="fill:#ffffff;fill-opacity:1;fill-rule:nonzero;stroke:none"
             id="path70" />
        </g>
        <g
           id="g72"
           transform="translate(238.7211,98.0345)">
          <path
             d="m 0,0 h 3.51 v -14.899 h 11.606 v -3.105 H 0 Z"
             style="fill:#ffffff;fill-opacity:1;fill-rule:nonzero;stroke:none"
             id="path74" />
        </g>
        <path
           d="m 260.672,98.034 h 3.51 V 80.03 h -3.51 z"
           style="fill:#ffffff;fill-opacity:1;fill-rule:nonzero;stroke:none"
           id="path76" />
        <g
           id="g78"
           transform="translate(272.2279,98.0345)">
          <path
             d="M 0,0 H 16.979 V -3.104 H 3.509 V -7.288 H 16.52 v -3.104 H 3.509 v -7.612 H 0 Z"
             style="fill:#ffffff;fill-opacity:1;fill-rule:nonzero;stroke:none"
             id="path80" />
        </g>
        <g
           id="g82"
           transform="translate(296.0414,98.0345)">
          <path
             d="M 0,0 H 16.979 V -3.104 H 3.51 v -4.184 h 13.01 v -3.104 H 3.51 v -4.507 h 13.469 v -3.105 H 0 Z"
             style="fill:#ffffff;fill-opacity:1;fill-rule:nonzero;stroke:none"
             id="path84" />
        </g>
        <g
           id="g86"
           transform="translate(80.0305,243.2373)">
          <path
             d="m 0,0 1.726,-33.037 c 0.033,-0.631 0.554,-1.126 1.186,-1.126 0.632,0 1.154,0.495 1.186,1.127 L 6.169,7.065 C 4.085,5.141 1.982,2.891 0,0"
             style="fill:#ffffff;fill-opacity:1;fill-rule:nonzero;stroke:none"
             id="path88" />
        </g>
        <g
           id="g90"
           transform="translate(99.1557,215.8718)">
          <path
             d="m 0,0 c 0.034,-0.64 0.563,-1.142 1.204,-1.142 0.641,0 1.17,0.502 1.204,1.142 l 2.42,45.573 C 2.236,44.603 -0.177,43.557 -2.247,42.19 Z"
             style="fill:#ffffff;fill-opacity:1;fill-rule:nonzero;stroke:none"
             id="path92" />
        </g>
        <g
           id="g94"
           transform="translate(114.0964,264.7099)">
          <path
             d="m 0,0 2.439,-44.342 c 0.033,-0.613 0.54,-1.093 1.154,-1.093 0.614,0 1.121,0.48 1.155,1.094 L 7.364,3.798 C 4.95,2.167 2.314,0.942 0,0"
             style="fill:#ffffff;fill-opacity:1;fill-rule:nonzero;stroke:none"
             id="path96" />
        </g>
        <g
           id="g98"
           transform="translate(100.3494,290.8824)">
          <path
             d="m 0,0 c -2.084,0 -3.774,-1.69 -3.774,-3.774 0,-2.084 1.69,-3.774 3.774,-3.774 2.084,0 3.774,1.69 3.774,3.774 C 3.774,-1.69 2.084,0 0,0"
             style="fill:#ffffff;fill-opacity:1;fill-rule:nonzero;stroke:none"
             id="path100" />
        </g>
        <g
           id="g102"
           transform="translate(130.9196,281.4693)">
          <path
             d="m 0,0 2.711,-57.286 c 0.034,-0.704 0.614,-1.258 1.319,-1.258 0.705,0 1.286,0.554 1.319,1.259 L 8.379,7.507 C 3.865,6.208 2.326,4.327 0,0"
             style="fill:#ffffff;fill-opacity:1;fill-rule:nonzero;stroke:none"
             id="path104" />
        </g>
        <g
           id="g106"
           transform="translate(150.9144,227.2839)">
          <path
             d="m 0,0 c 0.035,-0.805 0.699,-1.44 1.505,-1.44 0.806,0 1.469,0.635 1.505,1.44 L 5.83,63.979 C 3.293,63.507 1.817,63.395 -2.778,63.09 Z"
             style="fill:#ffffff;fill-opacity:1;fill-rule:nonzero;stroke:none"
             id="path108" />
        </g>
        <g
           id="g110"
           transform="translate(165.1694,297.01)">
          <path
             d="m 0,0 2.847,-67.402 c 0.037,-0.87 0.754,-1.557 1.625,-1.557 0.872,0 1.589,0.688 1.625,1.559 L 9.204,8.304 C 3.611,5.511 4.647,5.403 0,0"
             style="fill:#ffffff;fill-opacity:1;fill-rule:nonzero;stroke:none"
             id="path112" />
        </g>
        <g
           id="g114"
           transform="translate(151.9105,306.935)">
          <path
             d="M 0,0 C 2.084,0 3.774,1.69 3.774,3.774 3.774,5.858 2.084,7.548 0,7.548 -2.084,7.548 -3.774,5.858 -3.774,3.774 -3.774,1.69 -2.084,0 0,0"
             style="fill:#ffffff;fill-opacity:1;fill-rule:nonzero;stroke:none"
             id="path116" />
        </g>
        <g
           id="g118"
           transform="translate(324.6904,220.4016)">
          <path
             d="m 0,0 c 0.036,-0.632 0.559,-1.127 1.193,-1.127 0.633,0 1.156,0.495 1.192,1.127 l 2.521,44.084 c -5.273,2.531 -7.325,4.257 -7.685,4.544 z"
             style="fill:#ffffff;fill-opacity:1;fill-rule:nonzero;stroke:none"
             id="path120" />
        </g>
        <g
           id="g122"
           transform="translate(341.9547,215.901)">
          <path
             d="m 0,0 c 0.036,-0.657 0.579,-1.171 1.237,-1.171 0.657,0 1.2,0.514 1.236,1.171 l 2.26,41.266 c -2.197,1.568 -4.616,2.761 -7.205,3.905 z"
             style="fill:#ffffff;fill-opacity:1;fill-rule:nonzero;stroke:none"
             id="path124" />
        </g>
        <g
           id="g126"
           transform="translate(357.3369,249.7562)">
          <path
             d="m 0,0 2.075,-39.528 c 0.034,-0.647 0.568,-1.154 1.216,-1.154 0.647,0 1.181,0.507 1.215,1.154 L 6.158,-8.069 C 4.163,-4.701 2.089,-2.156 0,0"
             style="fill:#ffffff;fill-opacity:1;fill-rule:nonzero;stroke:none"
             id="path128" />
        </g>
        <g
           id="g130"
           transform="translate(343.4621,284.3703)">
          <path
             d="m 0,0 c -2.084,0 -3.774,-1.69 -3.774,-3.774 0,-2.084 1.69,-3.774 3.774,-3.774 2.084,0 3.774,1.69 3.774,3.774 C 3.774,-1.69 2.084,0 0,0"
             style="fill:#ffffff;fill-opacity:1;fill-rule:nonzero;stroke:none"
             id="path132" />
        </g>
        <g
           id="g134"
           transform="translate(272.5887,229.4098)">
          <path
             d="m 0,0 c 0.033,-0.76 0.658,-1.359 1.419,-1.359 0.76,0 1.386,0.6 1.418,1.36 L 5.71,67.827 c -8.534,10.303 -5.049,5.855 -9.079,10.52 z"
             style="fill:#ffffff;fill-opacity:1;fill-rule:nonzero;stroke:none"
             id="path136" />
        </g>
        <g
           id="g138"
           transform="translate(289.7344,227.1735)">
          <path
             d="m 0,0 c 0.033,-0.744 0.646,-1.33 1.391,-1.33 0.745,0 1.358,0.587 1.391,1.331 l 2.793,62.698 c -4.127,0.269 -5.897,0.434 -8.438,0.948 z"
             style="fill:#ffffff;fill-opacity:1;fill-rule:nonzero;stroke:none"
             id="path140" />
        </g>
        <g
           id="g142"
           transform="translate(304.215,288.6313)">
          <path
             d="m 0,0 2.97,-64.386 c 0.034,-0.738 0.643,-1.32 1.383,-1.32 0.739,0 1.348,0.581 1.382,1.32 l 2.678,57.9 C 6.44,-3.015 4.872,-1.214 0,0"
             style="fill:#ffffff;fill-opacity:1;fill-rule:nonzero;stroke:none"
             id="path144" />
        </g>
        <g
           id="g146"
           transform="translate(291.0905,308.4491)">
          <path
             d="M 0,0 C 2.084,0 3.774,1.69 3.774,3.774 3.774,5.858 2.084,7.548 0,7.548 -2.084,7.548 -3.774,5.858 -3.774,3.774 -3.774,1.69 -2.084,0 0,0"
             style="fill:#ffffff;fill-opacity:1;fill-rule:nonzero;stroke:none"
             id="path148" />
        </g>
        <g
           id="g150"
           transform="translate(308.8402,301.1573)">
          <path
             d="M 0,0 C 1.297,0 2.348,1.051 2.348,2.349 2.348,3.646 1.297,4.697 0,4.697 -1.297,4.697 -2.349,3.646 -2.349,2.349 -2.349,1.051 -1.297,0 0,0"
             style="fill:#ffffff;fill-opacity:1;fill-rule:nonzero;stroke:none"
             id="path152" />
        </g>
        <g
           id="g154"
           transform="translate(185.2712,231.1654)">
          <path
             d="m 0,0 c 0.033,-0.858 0.738,-1.537 1.597,-1.537 0.859,0 1.564,0.679 1.596,1.538 l 3.874,103.82 C 6.576,103.313 0.405,97.428 -3.404,89.762 Z"
             style="fill:#ffffff;fill-opacity:1;fill-rule:nonzero;stroke:none"
             id="path156" />
        </g>
        <g
           id="g158"
           transform="translate(202.514,232.2808)">
          <path
             d="m 0,0 c 0.033,-0.95 0.813,-1.702 1.763,-1.702 0.95,0 1.73,0.752 1.763,1.702 l 4.157,118.811 c -3.138,-1.463 -7.494,-5.237 -11.526,-9.109 z"
             style="fill:#ffffff;fill-opacity:1;fill-rule:nonzero;stroke:none"
             id="path160" />
        </g>
        <g
           id="g162"
           transform="translate(215.9221,352.9275)">
          <path
             d="m 0,0 3.966,-120.225 c 0.033,-0.993 0.847,-1.781 1.84,-1.781 0.994,0 1.808,0.787 1.841,1.78 L 11.685,1.097 C 8.243,1.097 8.547,2.429 0,0"
             style="fill:#ffffff;fill-opacity:1;fill-rule:nonzero;stroke:none"
             id="path164" />
        </g>
        <g
           id="g166"
           transform="translate(233.0766,354.2216)">
          <path
             d="m 0,0 4.459,-122.103 c 0.031,-0.86 0.737,-1.54 1.597,-1.54 0.861,0 1.566,0.681 1.597,1.541 L 12.04,0.356 C 8.811,0.775 4.323,0.307 0,0"
             style="fill:#ffffff;fill-opacity:1;fill-rule:nonzero;stroke:none"
             id="path168" />
        </g>
        <g
           id="g170"
           transform="translate(250.9597,349.9039)">
          <path
             d="m 0,0 4.428,-118.721 c 0.032,-0.868 0.745,-1.555 1.613,-1.555 0.868,0 1.581,0.687 1.614,1.554 l 3.283,87.899 C 5.848,-15.87 5.53,-8.268 0,0"
             style="fill:#ffffff;fill-opacity:1;fill-rule:nonzero;stroke:none"
             id="path172" />
        </g>
        <g
           id="g174"
           transform="translate(221.7647,379.499)">
          <path
             d="M 0,0 C 2.084,0 3.774,1.69 3.774,3.774 3.774,5.858 2.084,7.548 0,7.548 -2.084,7.548 -3.774,5.858 -3.774,3.774 -3.774,1.69 -2.084,0 0,0"
             style="fill:#ffffff;fill-opacity:1;fill-rule:nonzero;stroke:none"
             id="path176" />
        </g>
        <g
           id="g178"
           transform="translate(239.306,370.7677)">
          <path
             d="M 0,0 C 1.297,0 2.348,1.052 2.348,2.349 2.348,3.646 1.297,4.697 0,4.697 -1.297,4.697 -2.349,3.646 -2.349,2.349 -2.349,1.052 -1.297,0 0,0"
             style="fill:#ffffff;fill-opacity:1;fill-rule:nonzero;stroke:none"
             id="path180" />
        </g>
      </g>
    </g>
  </g>
</svg>
