<?xml version="1.0" encoding="UTF-8" standalone="no"?>
<!-- Created with Inkscape (http://www.inkscape.org/) -->

<svg
   width="94.560417mm"
   height="47.554329mm"
   viewBox="0 0 94.560416 47.554329"
   version="1.1"
   id="svg5"
   xml:space="preserve"
   xmlns="http://www.w3.org/2000/svg"
   xmlns:svg="http://www.w3.org/2000/svg"><defs
     id="defs2" /><g
     id="layer1"
     transform="matrix(0.94198473,0,0,0.94198473,-46.225232,-131.95759)"
     style="fill:#000000"><path
       style="fill:#ffffff;stroke-width:0.0846667"
       d="m 63.027447,190.37185 c -2.73657,-0.33025 -5.56476,-1.25704 -7.65005,-2.50692 -1.55772,-0.93367 -3.54666,-2.79313 -4.4779,-4.1864 -0.61483,-0.91989 -1.17706,-2.10492 -1.4553,-3.06741 -0.25864,-0.89471 -0.45258,-2.22904 -0.33869,-2.33035 0.10538,-0.0937 8.65218,-1.9588 8.9764,-1.9588 0.25165,0 0.25474,0.006 0.39265,0.73628 0.28404,1.50456 1.21307,2.84851 2.5972,3.75718 3.00213,1.97087 8.06664,1.64426 9.60209,-0.61923 1.06648,-1.57215 0.53849,-3.36982 -1.26866,-4.31944 -0.88731,-0.46627 -1.55382,-0.65916 -5.5901,-1.61781 -2.05812,-0.48881 -4.26792,-1.06407 -4.91067,-1.27835 -2.3091,-0.76981 -4.28937,-1.89508 -5.71422,-3.24706 -1.64252,-1.55852 -2.49942,-3.13569 -2.95909,-5.44635 -0.16635,-0.83625 -0.14236,-3.58593 0.0393,-4.49807 0.88482,-4.44394 4.02398,-7.76788 8.85826,-9.37969 2.03665,-0.67904 3.606994,-1.02848 6.153194,-1.02848 2.29942,0 3.484456,0.22657 5.407956,0.71333 2.74111,0.69367 5.08962,1.95291 6.94377,3.72317 1.37016,1.30817 2.27215,2.60353 2.84413,4.0845 0.33645,0.87112 0.59828,2.08055 0.56652,2.61678 l -0.0251,0.42354 -4.23334,0.95531 c -2.32833,0.52542 -4.34953,0.9569 -4.49156,0.95885 -0.24939,0.003 -0.26193,-0.0146 -0.36667,-0.52562 -0.1406,-0.68606 -0.65052,-1.76483 -1.10241,-2.33222 -1.09888,-1.37976 -3.16192,-2.23265 -5.39216,-2.22918 -2.5571,0.004 -4.59985,1.03143 -5.20529,2.61816 -0.61684,1.61658 0.38696,3.13738 2.54576,3.85693 0.34925,0.11641 2.2352,0.52094 4.191,0.89895 4.90916,0.94882 5.95678,1.24954 8.00498,2.2978 3.51743,1.8002 5.70612,4.53928 6.4055,8.01629 0.20664,1.02733 0.20507,3.65026 -0.003,4.69729 -0.75103,3.78262 -3.07192,6.68448 -6.78767,8.48673 -1.5706,0.76179 -3.08652,1.23501 -5.04026,1.57338 -0.87898,0.15224 -1.45975,0.3309 -3.46874,0.352 -1.32715,0.0139 -2.69875,-0.15281 -3.048,-0.19511 z m 34.2867,-0.0299 c -2.22781,-0.33804 -3.9183,-0.95853 -5.47698,-2.01032 -2.10801,-1.42247 -3.59713,-3.77129 -4.16846,-6.57504 -0.30367,-1.4902 -0.34151,-2.83513 -0.34172,-12.14445 l -2.1e-4,-9.03817 h 5.16467 5.16467 v -4.78366 -4.78367 h -5.16467 -5.16467 v -5.461 -5.461 h 5.37634 5.37633 v 5.24934 5.24933 h 5.122333 5.12233 v 5.207 5.207 h -5.12513 -5.125143 l 0.0275,8.1915 c 0.0304,9.07684 4.2e-4,8.58399 0.59002,9.69451 0.52299,0.98506 1.570343,1.63902 3.028793,1.89114 1.7609,0.30442 4.10225,-0.15418 5.67981,-1.11249 0.26436,-0.1606 0.5808,-0.292 0.70318,-0.292 h 0.22251 l -0.0219,4.42384 -0.0219,4.42383 -0.67257,0.44449 c -1.04207,0.6887 -2.57925,1.24089 -4.45052,1.59872 -0.55894,0.10688 -1.89022,0.26823 -3.329868,0.29581 -1.671507,0.032 -2.235407,-0.21471 -2.514675,-0.21471 z m 31.753303,0.0665 c -4.0408,-0.47705 -7.47258,-1.81412 -10.34209,-4.02943 -3.41633,-2.63746 -5.93234,-6.50144 -7.01316,-10.7705 -0.54047,-2.13477 -0.63445,-2.97598 -0.63445,-5.67887 0,-2.70237 0.0943,-3.5467 0.63342,-5.67267 1.7688,-6.97487 6.82282,-12.19873 13.59886,-14.05583 2.12072,-0.58123 2.92173,-0.85645 5.79959,-0.8579 2.11068,-0.001 2.74226,0.21003 3.50349,0.33662 6.28273,1.04484 10.82675,4.2407 13.42807,9.44412 0.52371,1.04757 1.29024,3.20007 1.24587,3.49853 -0.0233,0.15675 -0.60355,0.3718 -4.67393,1.73222 -2.55604,0.85428 -4.7342,1.55324 -4.84036,1.55324 -0.15817,0 -0.21899,-0.0803 -0.33674,-0.4445 -0.26547,-0.82121 -0.95672,-2.15136 -1.47645,-2.84109 -1.5026,-1.99411 -3.54596,-3.01199 -6.26746,-3.12211 -4.95841,-0.20062 -8.78755,3.04629 -9.70347,8.22804 -0.19928,1.1274 -0.20462,3.34424 -0.0106,4.40266 0.55848,3.04668 1.95013,5.35612 4.08254,6.77498 1.78442,1.18731 3.72415,1.72682 5.83819,1.62382 3.61592,-0.17617 6.61451,-2.35951 7.82979,-5.70104 0.20159,-0.55427 0.2756,-0.66963 0.44201,-0.68889 0.10993,-0.0127 2.23822,0.65701 4.72954,1.48831 l 4.52966,1.51144 0.0251,0.29133 c 0.0324,0.37589 -0.454,1.78805 -1.03241,2.99739 -0.91474,1.91252 -2.06304,3.50011 -3.6155,4.99859 -2.67967,2.5865 -5.68222,4.07148 -9.68587,4.79036 -0.85271,0.15311 -1.28197,0.30745 -3.27162,0.32581 -1.30387,0.012 -2.61906,-0.11548 -2.78204,-0.13458 z"
       id="path308" /><path
       style="fill:#000000;stroke-width:0.0846667"
       id="path306"
       d="" /><path
       style="fill:#000000;stroke-width:0.0846667"
       id="path304"
       d="" /><path
       style="fill:#000000;stroke-width:0.0846667"
       id="path302"
       d="" /></g></svg>
