<?xml version="1.0" encoding="UTF-8" standalone="no"?>
<!-- Created with Inkscape (http://www.inkscape.org/) -->

<svg
   width="160.41658mm"
   height="88.297989mm"
   viewBox="0 0 160.41658 88.297989"
   version="1.1"
   id="svg5"
   xml:space="preserve"
   xmlns="http://www.w3.org/2000/svg"
   xmlns:svg="http://www.w3.org/2000/svg"><defs
     id="defs2" /><g
     id="layer1"
     transform="translate(-43.202585,-88.047089)"><path
       style="fill:#ffffff;stroke-width:0.0846667"
       d="m 93.62579,175.75327 c 0.98777,-1.32835 3.67635,-3.14639 7.43602,-5.02826 1.09222,-0.54671 1.29095,-0.67556 1.28975,-0.83627 -0.002,-0.2348 -0.62179,-1.40173 -1.22563,-2.30663 -1.07242,-1.60711 -2.54808,-2.94358 -3.69699,-3.34829 -0.27582,-0.0971 -0.36843,-0.0878 -0.84667,0.0855 -2.41768,0.87621 -5.46867,3.22836 -7.55756,5.82646 l -0.49556,0.61636 0.0487,0.47197 c 0.10871,1.05322 1.07033,2.47946 2.4554,3.64173 0.72657,0.6097 1.94944,1.46924 2.09028,1.46924 0.0342,0 0.26021,-0.26633 0.50226,-0.59184 z m -1.22205,0.0281 c -0.78671,-0.5243 -1.8006,-1.37129 -2.29337,-1.91583 -0.81876,-0.90478 -1.47339,-2.16603 -1.47339,-2.83873 0,-0.29962 0.63581,-1.08887 1.979,-2.45657 1.94577,-1.9813 4.07499,-3.45028 6.02507,-4.15681 l 0.51107,-0.18516 0.39968,0.17131 c 1.11586,0.47832 2.4656,1.72734 3.43786,3.18131 0.57872,0.86545 1.27865,2.13928 1.27865,2.32705 0,0.0473 -0.50483,0.33875 -1.12183,0.64773 -4.02312,2.0147 -6.7854,3.90991 -7.72858,5.30259 -0.11827,0.17462 -0.26169,0.3175 -0.31871,0.3175 -0.057,0 -0.36998,-0.17747 -0.69545,-0.39439 z m 0.93629,-0.11946 c 0.88661,-1.27937 3.51564,-3.10155 7.08422,-4.91007 0.9211,-0.4668 1.67473,-0.87591 1.67473,-0.90914 0,-0.0985 -0.92351,-1.70804 -1.28786,-2.24456 -0.86665,-1.27621 -2.03536,-2.38448 -3.05103,-2.89325 -0.64195,-0.32156 -0.62769,-0.32256 -1.68195,0.11694 -0.8552,0.35652 -2.01096,1.04648 -3.02039,1.80312 -0.98453,0.73796 -2.76479,2.44555 -3.63694,3.48849 -0.6288,0.75194 -0.62987,0.75406 -0.57173,1.1417 0.13686,0.91269 0.87256,2.05219 1.97754,3.06294 0.58775,0.53764 2.09647,1.6825 2.22268,1.68664 0.0286,9.3e-4 0.15942,-0.15333 0.29073,-0.34281 z m 50.98325,-4.93618 c 0.42898,-0.37208 0.80055,-0.73017 0.82573,-0.79577 0.0252,-0.0656 0.01,-1.116 -0.0346,-2.33424 -0.0442,-1.21822 -0.10366,-3.69168 -0.13216,-5.49656 -0.0467,-2.95641 -0.0384,-3.28674 0.0833,-3.33343 0.0743,-0.0285 6.48684,0.005 14.25009,0.0739 l 14.11501,0.12578 5.47664,-1.1318 c 5.88506,-1.21621 6.41336,-1.35928 8.90587,-2.41179 8.95239,-3.78033 14.87619,-10.49554 15.71265,-17.81177 0.62402,-5.45805 -1.90293,-10.75074 -6.9093,-14.47154 -3.18394,-2.36635 -7.34737,-4.16426 -11.45952,-4.94862 -2.2406,-0.42738 -6.06014,-0.58306 -8.59367,-0.35027 -4.75791,0.43718 -9.45714,1.7062 -13.462,3.63539 -2.6102,1.25736 -4.57195,2.60663 -7.28133,5.00798 -0.98599,0.87388 -2.9314,2.82579 -3.4532,3.46473 -0.21981,0.26915 -0.31164,0.33575 -0.31281,0.22686 -9.3e-4,-0.0848 0.22561,-1.97073 0.50339,-4.191 1.33074,-10.6366 2.19846,-18.44738 2.50833,-22.57886 0.23547,-3.1396 0.0232,-5.683843 -0.48227,-5.781193 -0.18312,-0.0353 -0.97396,0.77191 -1.69107,1.72601 -2.03572,2.708443 -3.74154,6.360393 -4.6032,9.854843 -0.47939,1.94415 -0.63027,3.03115 -0.84615,6.096 -0.34535,4.90316 -0.52034,9.87425 -0.63643,18.07987 l -0.0767,5.4222 -0.83771,1.64746 c -0.46073,0.90612 -0.89599,1.80321 -0.96723,1.99356 l -0.12952,0.34609 -1.29568,0.0561 c -0.71261,0.0309 -5.0067,0.0561 -9.5424,0.0561 h -8.24672 l 0.0493,-0.35984 c 0.0271,-0.1979 0.3734,-3.21733 0.76949,-6.70983 0.90245,-7.95718 1.80975,-15.64976 2.19694,-18.62667 0.88828,-6.82951 1.00151,-8.03189 1.00861,-10.71033 0.007,-2.65456 -0.156,-4.064 -0.47012,-4.064 -0.13719,0 -1.06917,0.76976 -1.60668,1.32702 -2.52014,2.61275 -4.3116,6.503 -5.06181,10.99198 -0.66112,3.95583 -1.24266,12.86419 -1.62497,24.892 -0.0561,1.76531 -0.13599,3.17886 -0.18301,3.2385 -0.053,0.0672 -0.30667,0.10583 -0.69476,0.10583 h -0.61132 l -0.43383,0.78317 c -2.233,4.03109 -3.07932,9.23436 -2.22494,13.67921 0.0834,0.43379 0.20489,0.84138 0.27003,0.90576 0.0987,0.0975 2.10174,0.13367 12.0141,0.21677 6.54262,0.0549 11.92613,0.1273 11.96337,0.16101 0.0372,0.0337 0.123,0.59089 0.19058,1.23818 0.18213,1.74429 0.43575,3.61188 0.72247,5.31983 0.37511,2.23452 1.18277,6.09283 1.28941,6.15965 0.12208,0.0765 0.14395,0.0614 1.0498,-0.72427 z m -1.03493,0.51819 c -0.11464,-0.31943 -0.85648,-4.01112 -1.14344,-5.69023 -0.34158,-1.99874 -0.70287,-4.67563 -0.80892,-5.99348 -0.0328,-0.4073 -0.10198,-0.79643 -0.1538,-0.86474 -0.0814,-0.1073 -1.71371,-0.13757 -11.98988,-0.22234 -8.87488,-0.0732 -11.92279,-0.12339 -12.00247,-0.19758 -0.28759,-0.26779 -0.56035,-2.467 -0.55741,-4.49413 0.005,-3.60146 0.83546,-6.89215 2.51719,-9.97734 l 0.39955,-0.73299 h 0.67557 c 0.46467,0 0.68686,-0.033 0.71178,-0.10583 0.0199,-0.0582 0.0767,-1.34409 0.1262,-2.8575 0.41669,-12.74446 0.9822,-21.40569 1.65835,-25.39931 0.73995,-4.37044 2.44183,-8.12794 4.83426,-10.67335 0.72872,-0.77531 1.64859,-1.5416 1.74038,-1.44981 0.11088,0.11088 0.22701,0.96766 0.32135,2.37076 0.15182,2.25817 -0.0531,4.92015 -0.84872,11.02659 -0.47171,3.62026 -1.34399,10.97163 -2.3653,19.93412 -0.86663,7.60507 -0.81557,7.06772 -0.67259,7.07866 0.6558,0.0502 18.94728,-0.0438 19.04827,-0.0978 0.0745,-0.0399 0.20337,-0.25531 0.28627,-0.47869 0.0829,-0.22339 0.52692,-1.14651 0.98669,-2.05138 l 0.83596,-1.64521 8.5e-4,-2.84212 c 0.002,-8.27669 0.50082,-20.53663 0.97407,-23.93795 0.40241,-2.89212 1.248,-5.57612 2.66308,-8.45284 0.92655,-1.8836 2.13998,-3.789303 3.14899,-4.945553 0.72372,-0.82931 0.88635,-0.95411 1.00269,-0.76945 0.24566,0.38994 0.45858,2.629173 0.38239,4.021673 -0.21346,3.90144 -1.19812,12.96453 -2.7172,25.00996 -0.25483,2.02067 -0.43998,3.69707 -0.41144,3.72533 0.0285,0.0283 0.20865,-0.13912 0.40023,-0.37196 0.56864,-0.69108 2.74408,-2.87717 3.70052,-3.71862 2.40846,-2.11893 4.2875,-3.4384 6.48945,-4.55692 3.82465,-1.94282 8.33839,-3.26768 13.06855,-3.83588 1.5427,-0.18531 5.15652,-0.25678 6.60716,-0.13067 3.81359,0.33153 6.95686,1.21425 10.45317,2.93558 3.71806,1.83049 6.74199,4.40484 8.5576,7.28528 2.06108,3.26987 2.75008,7.07434 1.97606,10.91123 -0.98562,4.88586 -4.4423,9.62151 -9.56326,13.10163 -2.02428,1.37568 -4.38548,2.61335 -6.72773,3.52646 -2.06664,0.80566 -2.38901,0.88865 -7.95867,2.04871 l -5.334,1.11097 -14.26633,-0.11832 c -9.85201,-0.0817 -14.30298,-0.0912 -14.38475,-0.0306 -0.10009,0.0742 -0.10886,0.71055 -0.0566,4.10977 0.034,2.2121 0.0909,4.68876 0.12638,5.50368 0.0355,0.81491 0.0485,1.52636 0.0289,1.58099 -0.0396,0.1102 -1.58157,1.46701 -1.66722,1.46701 -0.0297,0 -0.0711,-0.0476 -0.092,-0.10584 z m 1.11182,-0.97037 0.5182,-0.49013 -0.065,-1.43933 c -0.0358,-0.79163 -0.0938,-3.31128 -0.12905,-5.59922 -0.0622,-4.03967 -0.0594,-4.16214 0.0971,-4.23796 0.0987,-0.0478 5.70514,-0.0323 14.46986,0.0402 l 14.30867,0.11829 5.461,-1.14141 c 4.59114,-0.95962 5.63632,-1.20515 6.56166,-1.5415 6.05455,-2.2007 10.88331,-5.53847 13.98738,-9.66846 4.86545,-6.47352 4.96215,-13.97934 0.2543,-19.74078 -3.47203,-4.24906 -9.79248,-7.47331 -16.40068,-8.36648 -1.6167,-0.2185 -6.02419,-0.21862 -7.78933,0 -5.54628,0.68632 -10.77087,2.35924 -14.71588,4.71205 -2.64127,1.57526 -7.23682,5.59605 -8.65827,7.57537 -0.3136,0.43667 -0.58652,0.5148 -0.58652,0.1679 0,-0.11945 0.24658,-2.18637 0.54794,-4.59317 1.22752,-9.80327 2.05632,-17.16437 2.46598,-21.90197 0.21826,-2.52418 0.16755,-5.386693 -0.10815,-6.105173 -0.0762,-0.19849 -0.20119,-0.10588 -0.82113,0.60829 -2.58244,2.974963 -4.79608,7.820633 -5.58603,12.227883 -0.57693,3.21881 -0.99989,11.80435 -1.14494,23.241 l -0.0612,4.826 -0.67605,1.23668 c -0.37183,0.68017 -0.82347,1.60145 -1.00365,2.04727 -0.24368,0.60297 -0.37303,0.82138 -0.505,0.85273 -0.14361,0.0341 -18.69495,0.0955 -19.20626,0.0636 -0.10781,-0.007 -0.14816,-0.0819 -0.14816,-0.27608 0,-0.62087 2.47299,-21.92441 3.05023,-26.27617 0.7281,-5.48914 0.9439,-7.78472 0.95113,-10.11767 0.005,-1.68485 -0.14195,-3.60013 -0.28332,-3.68751 -0.11955,-0.0739 -1.82987,1.6422 -2.44274,2.45094 -1.76908,2.3345 -3.01882,5.23385 -3.68806,8.55617 -0.71673,3.55811 -1.30917,11.70404 -1.73367,23.83774 -0.0464,1.32715 -0.10839,3.07975 -0.13769,3.89466 -0.0293,0.81492 -0.0917,1.5293 -0.13861,1.5875 -0.0548,0.068 -0.31662,0.10584 -0.73194,0.10584 -0.75283,0 -0.63838,-0.11325 -1.36749,1.35308 -1.24468,2.50323 -1.89434,4.91068 -2.1152,7.8383 -0.12826,1.7003 0.006,3.78974 0.34269,5.35012 l 0.096,0.4445 h 2.17316 c 3.9936,-8.5e-4 21.55928,0.17272 21.74861,0.21446 0.21828,0.0481 0.18933,-0.10352 0.48462,2.53748 0.29545,2.64234 0.55589,4.28284 1.15595,7.28133 0.27957,1.397 0.52848,2.6073 0.55312,2.68955 0.0421,0.14042 0.0587,0.13932 0.27149,-0.0179 0.12468,-0.0921 0.45988,-0.38798 0.74488,-0.65755 z m 3.43997,-27.18039 c -0.20558,-0.0703 -0.10062,-0.42058 0.3592,-1.19873 1.79863,-3.04378 5.12232,-6.76736 6.80448,-7.62316 0.43381,-0.2207 4.71695,-1.40223 6.61164,-1.82386 1.55481,-0.346 3.38318,-0.65737 5.08418,-0.86584 1.75869,-0.21554 7.26716,-0.21516 9.10167,8.5e-4 3.07176,0.3613 7.26349,1.11239 10.04586,1.80004 4.85168,1.1991 8.01822,2.77222 8.7771,4.36043 0.23164,0.48478 0.24445,1.12982 0.0289,1.45667 -0.96148,1.45813 -6.05596,2.53522 -15.08421,3.18913 -6.06857,0.43953 -10.92239,0.5967 -19.89667,0.64425 -4.07458,0.0216 -8.37988,0.0522 -9.56733,0.0679 -1.18745,0.0158 -2.20663,0.0124 -2.26484,-0.007 z m 11.53584,-0.23028 c 7.35105,-0.0377 9.60181,-0.085 14.351,-0.30131 10.25973,-0.46738 17.22345,-1.40193 19.67764,-2.6408 0.96658,-0.48793 1.23665,-0.79372 1.23316,-1.3963 -0.008,-1.44438 -2.19632,-2.95722 -6.09414,-4.21366 -3.03865,-0.9795 -8.46193,-2.06182 -12.8519,-2.56483 -1.58931,-0.18211 -6.97567,-0.20535 -8.52643,-0.0368 -3.0114,0.32733 -5.75094,0.88456 -9.592,1.95104 -2.25128,0.62508 -2.43203,0.68997 -3.00566,1.07917 -0.7493,0.50838 -2.65208,2.39121 -3.62838,3.59035 -1.38848,1.70539 -3.10167,4.27776 -3.00929,4.51849 0.0353,0.0921 0.39232,0.10839 1.85022,0.0844 0.99355,-0.0164 5.31164,-0.0478 9.59578,-0.0697 z m -11.303,-0.12812 c 0,-0.28003 1.54044,-2.57553 2.69289,-4.01283 1.46195,-1.8233 3.45505,-3.7574 4.32116,-4.19325 0.35444,-0.17836 3.70072,-1.11344 5.77061,-1.61253 3.95547,-0.95375 7.45238,-1.33972 11.303,-1.24756 2.42056,0.0579 3.84822,0.19094 6.604,0.61525 6.62509,1.02007 11.54455,2.41638 13.96225,3.96297 1.06334,0.68022 1.825,1.62961 1.82726,2.27766 0.003,0.95078 -1.42556,1.66397 -4.68522,2.33853 -3.51502,0.72741 -9.35785,1.28991 -16.77695,1.61513 -4.78367,0.2097 -7.51977,0.26297 -16.02317,0.31198 -7.22826,0.0417 -8.99583,0.0308 -8.99583,-0.0554 z m -63.18165,15.62727 c 5.17479,-0.54335 8.82499,-1.46576 12.08531,-3.05396 2.18499,-1.06437 3.75447,-2.22159 5.57729,-4.11225 3.05184,-3.1654 5.19527,-7.1671 7.77582,-14.51706 0.84026,-2.39327 1.75989,-5.14372 1.75989,-5.26353 0,-0.16904 -0.31645,-0.13613 -0.68553,0.0713 -0.26108,0.14674 -0.42289,0.3573 -0.79701,1.03717 -0.68443,1.24381 -1.48423,2.32171 -2.53458,3.41591 -1.59419,1.66074 -3.17583,2.80829 -5.38088,3.90405 -2.17448,1.08057 -4.11851,1.73168 -6.731,2.25441 -2.8237,0.565 -3.02525,0.57688 -10.39283,0.61283 -3.66712,0.0179 -6.66727,0.001 -6.66698,-0.0365 2.5e-4,-0.038 0.11296,-1.42157 0.2504,-3.07468 0.48574,-5.84254 0.61767,-7.95353 0.56614,-9.05934 -0.0869,-1.86497 -0.65066,-3.88086 -1.63324,-5.84025 -2.13405,-4.25553 -5.82392,-6.77317 -10.86494,-7.41325 -1.43547,-0.18226 -4.95259,-0.13512 -6.35288,0.0852 -4.33916,0.68259 -7.64931,2.06622 -10.541,4.40609 -5.17109,4.1843 -8.05751,11.55031 -6.84918,17.47876 0.57204,2.80658 2.13608,5.23004 4.43618,6.87381 1.28583,0.91892 3.53755,1.91248 5.07087,2.2375 2.04138,0.43271 5.34783,-0.2455 9.23698,-1.89467 1.61019,-0.68278 4.21288,-1.97598 5.80048,-2.88207 0.65194,-0.37209 1.19648,-0.64605 1.2101,-0.60883 0.0136,0.0372 -0.18438,1.54874 -0.44002,3.3589 -0.6187,4.3811 -0.89186,6.69254 -0.95435,8.07562 -0.0486,1.07599 -0.0403,1.16627 0.14039,1.524 0.25022,0.49542 1.53129,1.75464 2.08886,2.05324 0.41244,0.22087 0.54219,0.24055 2.37067,0.35945 1.06389,0.0692 2.1439,0.14008 2.40002,0.15752 0.25612,0.0174 2.33257,0.0215 4.61433,0.009 3.07391,-0.0168 4.48338,-0.0579 5.44069,-0.15837 z m -9.46235,0.068 c -0.25612,-0.0165 -1.45627,-0.0921 -2.667,-0.16784 -2.59376,-0.16232 -2.60942,-0.16755 -3.74282,-1.25068 -0.82199,-0.78553 -1.12552,-1.31541 -1.12552,-1.96482 0,-1.02359 0.44685,-4.81987 1.10066,-9.35091 0.2251,-1.55999 0.38363,-2.86324 0.35229,-2.89613 -0.0314,-0.0329 -0.59016,0.24693 -1.2418,0.6218 -1.52226,0.87571 -5.11254,2.64358 -6.47648,3.18904 -2.28718,0.91469 -4.16766,1.45192 -5.86782,1.67638 -1.70189,0.2247 -2.91427,0.0658 -4.67131,-0.61234 -4.40129,-1.69863 -6.98306,-4.8104 -7.62919,-9.19534 -0.20678,-1.40328 -0.12773,-3.88334 0.16755,-5.25639 0.54055,-2.51364 1.30512,-4.45746 2.57015,-6.53424 1.0147,-1.66583 2.58723,-3.4887 4.10086,-4.75369 3.57766,-2.98998 8.69862,-4.68255 14.17829,-4.68619 2.26,-0.002 4.17662,0.27365 5.88338,0.84461 3.67971,1.23097 6.50197,3.8701 8.05643,7.53367 0.86175,2.03098 1.30624,4.27018 1.21063,6.09882 -0.065,1.24265 -0.40944,5.82182 -0.6458,8.58482 -0.0912,1.06617 -0.16584,2.06853 -0.16584,2.22747 v 0.28897 l 6.87917,-0.0328 c 6.47407,-0.0309 6.95395,-0.0435 8.14917,-0.21384 6.18395,-0.88139 11.06329,-3.12355 14.35259,-6.59531 1.04401,-1.10192 2.1375,-2.6346 2.78129,-3.89833 0.12201,-0.23951 0.29375,-0.41534 0.51688,-0.52916 0.41074,-0.20954 0.42557,-0.2098 0.42557,-0.007 0,0.16175 -1.38744,4.27866 -2.15633,6.3984 -2.3747,6.54682 -4.39232,10.17328 -7.36145,13.23144 -1.80372,1.85781 -3.10297,2.83684 -5.12955,3.86531 -3.47579,1.76394 -7.28904,2.71143 -13.16567,3.27132 -0.89818,0.0856 -7.72697,0.17463 -8.67833,0.11318 z m 7.28133,-0.20519 c 5.97862,-0.36584 10.50538,-1.37974 14.18167,-3.17639 1.97215,-0.96382 3.5011,-2.06785 5.13529,-3.70809 2.96278,-2.97376 4.96822,-6.4551 7.25092,-12.58725 0.58073,-1.56004 2.47279,-6.97829 2.47279,-7.08129 0,-0.0193 -0.11423,0.024 -0.25384,0.0962 -0.16592,0.0858 -0.34314,0.30817 -0.51168,0.64204 -0.68304,1.3531 -1.74063,2.76622 -3.03848,4.0599 -2.97833,2.9688 -7.12306,4.9918 -12.21583,5.96244 -2.63354,0.50194 -2.51426,0.49565 -10.07867,0.53104 l -7.00617,0.0328 v -0.40911 c 0,-0.22501 0.0943,-1.53212 0.20958,-2.90471 0.68373,-8.14164 0.71919,-9.22016 0.35921,-10.9249 -0.29844,-1.41327 -0.71257,-2.59674 -1.37593,-3.93206 -2.4153,-4.86189 -6.96918,-7.4086 -13.24701,-7.40826 -4.82452,0 -9.20533,1.21728 -12.65818,3.51655 -4.511,3.00388 -7.67371,8.16337 -8.34433,13.61251 -0.14634,1.18905 -0.059,3.67905 0.16459,4.69155 0.92173,4.17427 3.60896,7.01914 8.01577,8.48599 1.65652,0.55139 2.72614,0.62048 4.61236,0.29793 2.9388,-0.50254 7.25849,-2.25635 11.44906,-4.64836 0.7807,-0.44563 1.47722,-0.81024 1.54782,-0.81024 0.0706,0 0.1469,0.0483 0.16954,0.10728 0.0226,0.059 -0.11345,1.15438 -0.30243,2.43417 -0.48972,3.31638 -0.99164,7.35028 -1.11177,8.93522 -0.10212,1.34722 -0.10132,1.3625 0.0915,1.76075 0.24173,0.49936 1.10855,1.38926 1.75918,1.80605 0.48807,0.31264 0.49832,0.31495 1.88774,0.42425 3.46668,0.2727 8.17408,0.35698 10.83733,0.19401 z M 55.17181,136.0437 c -2.08897,-0.16154 -3.61356,-0.51724 -4.63483,-1.08133 -0.64533,-0.35643 -1.48932,-1.16391 -1.57552,-1.50735 -0.0545,-0.21712 -0.009,-0.28813 0.47255,-0.73063 1.72515,-1.5867 4.67281,-3.00714 7.37677,-3.55479 0.86018,-0.17422 1.19549,-0.19503 3.08186,-0.19126 2.28928,0.005 3.42145,0.11653 5.20035,0.51424 2.32265,0.51929 3.9891,1.37799 4.78839,2.46741 0.33979,0.46311 0.5884,1.12722 0.51205,1.36777 -0.029,0.0913 -0.29965,0.32201 -0.60148,0.51263 -1.52984,0.96618 -4.07801,1.72613 -6.97831,2.08115 -1.31211,0.16061 -6.14551,0.23788 -7.64183,0.12216 z m 7.60711,-0.28914 c 2.99342,-0.37739 5.60065,-1.16672 7.07368,-2.14152 0.45006,-0.29784 0.47348,-0.45435 0.16247,-1.08609 -0.98058,-1.99185 -4.50609,-3.24189 -9.59213,-3.40109 -3.00163,-0.094 -5.19013,0.37417 -7.7461,1.65691 -1.30915,0.65701 -2.74119,1.63026 -3.35333,2.27901 -0.23073,0.24452 -0.23486,0.26367 -0.10935,0.50639 0.32072,0.62021 1.54637,1.43451 2.68242,1.78215 0.69473,0.2126 2.02836,0.4233 3.29706,0.52092 1.46451,0.11269 6.3638,0.0373 7.58528,-0.11668 z m -7.0448,0.0311 c -2.3442,-0.13357 -3.83158,-0.43877 -4.93432,-1.01248 -0.7046,-0.36657 -1.53282,-1.12808 -1.53282,-1.40936 0,-0.16649 0.15506,-0.31039 1.13927,-1.05724 1.90306,-1.44413 4.26189,-2.45905 6.78047,-2.91743 0.64587,-0.11754 1.25944,-0.15269 2.62126,-0.15012 5.2005,0.01 9.06997,1.27972 10.10981,3.31797 0.26372,0.51694 0.23323,0.71782 -0.14716,0.96954 -2.65116,1.75446 -7.94379,2.60628 -14.03651,2.25912 z m 50.22953,-18.88936 c 1.34405,-0.50016 2.8435,-1.97328 3.99436,-3.92423 0.4979,-0.84405 0.51811,-0.8697 0.57759,-0.73285 0.14964,0.34425 0.89508,1.18572 1.28844,1.45443 0.75499,0.51575 1.18579,0.63367 2.2976,0.62896 2.3289,-0.01 4.08833,-0.89244 4.80228,-2.40887 0.55032,-1.16891 0.57533,-1.39 0.56218,-4.97204 l -0.0119,-3.23639 -0.2202,-0.37575 c -0.66629,-1.13691 -2.30836,-1.01837 -2.93603,0.21196 -0.20971,0.41105 -0.20879,0.93521 0.003,1.54996 0.37039,1.07655 0.42444,2.68026 0.12051,3.57558 -0.40433,1.19112 -1.58528,1.94411 -2.5811,1.64576 -0.44268,-0.13263 -1.09519,-0.8002 -1.42263,-1.45546 -0.2609,-0.52212 -0.26318,-0.53815 -0.26318,-1.85518 0,-1.43348 -0.0638,-1.76452 -0.41369,-2.1445 -0.32585,-0.35395 -0.62337,-0.47928 -1.13779,-0.47928 -0.86985,0 -1.77218,0.48816 -2.08081,1.12571 -0.1664,0.34373 -0.17771,0.50588 -0.17771,2.54798 v 2.18089 l -0.47825,0.50138 c -0.86907,0.91114 -1.87425,1.22831 -2.69675,0.85094 -0.40123,-0.18409 -1.1378,-0.9415 -1.38299,-1.42211 -0.40345,-0.79082 -0.43801,-2.15745 -0.0971,-3.84025 0.19296,-0.95251 0.56653,-2.26282 0.87712,-3.07645 0.49429,-1.29488 0.11656,-1.86497 -1.01728,-1.53535 -0.90772,0.26388 -1.39843,0.97047 -2.22916,3.20982 -1.95158,5.26072 -1.70735,9.43538 0.65336,11.16831 1.33933,0.98316 2.73488,1.26682 3.97043,0.80703 z m -2.42702,-0.0962 c -1.64974,-0.59692 -2.71913,-1.77953 -3.19362,-3.53171 -0.23311,-0.86079 -0.20911,-3.37075 0.0442,-4.62938 0.38033,-1.88942 1.0838,-3.9939 1.83047,-5.47601 0.37957,-0.75342 0.48086,-0.88684 0.84031,-1.10688 0.51019,-0.31232 1.2974,-0.40451 1.52348,-0.17842 0.20159,0.20158 0.17647,0.61205 -0.0786,1.28411 -1.1229,2.95897 -1.43502,5.8046 -0.77792,7.09262 0.24598,0.48217 0.95589,1.20017 1.3985,1.41442 0.85664,0.4147 1.82762,0.13258 2.7963,-0.81248 l 0.52917,-0.51626 0.002,-2.19769 c 0.002,-1.97655 0.0181,-2.23337 0.16285,-2.5523 0.39154,-0.8624 1.86958,-1.38849 2.70439,-0.9626 0.5905,0.30124 0.63768,0.44898 0.6911,2.16387 0.0448,1.43749 0.0606,1.55136 0.27947,2.00594 0.28571,0.59353 0.90123,1.29154 1.33326,1.51195 0.89805,0.45815 2.18651,-0.10119 2.74018,-1.18955 0.50786,-0.99832 0.51877,-2.54433 0.0295,-4.17539 -0.28469,-0.94897 -0.0434,-1.66564 0.70169,-2.08442 0.28547,-0.16045 0.43767,-0.18775 0.88692,-0.15915 0.65188,0.0415 0.93161,0.21691 1.19717,0.75069 0.18172,0.36524 0.1881,0.47109 0.21167,3.50927 0.0235,3.03312 0.0182,3.15419 -0.16669,3.81 -0.29371,1.04157 -0.63172,1.65605 -1.20077,2.18289 -0.76809,0.71112 -1.97957,1.14513 -3.62261,1.29784 -1.50045,0.13945 -2.85728,-0.56016 -3.62414,-1.8687 -0.12388,-0.2114 -0.25503,-0.38437 -0.29144,-0.38437 -0.0364,0 -0.28212,0.36185 -0.54604,0.80411 -1.11784,1.87321 -2.34926,3.17636 -3.57586,3.78417 -0.66407,0.32905 -0.78341,0.35977 -1.4972,0.38537 -0.64859,0.0232 -0.86602,-0.005 -1.32763,-0.17194 z m 2.75452,-0.3577 c 0.54703,-0.26839 0.83892,-0.494 1.52846,-1.18138 0.92479,-0.92188 1.38303,-1.52698 2.07135,-2.73514 0.52249,-0.91709 0.65366,-0.97065 0.94391,-0.38537 0.69828,1.40805 2.20386,2.13986 3.9111,1.90103 2.72215,-0.38081 3.89329,-1.36181 4.37871,-3.66776 0.15369,-0.73007 0.16175,-1.00314 0.10904,-3.69171 -0.063,-3.21092 -0.0735,-3.27299 -0.6161,-3.63549 -0.413,-0.2759 -1.12727,-0.26834 -1.54627,0.0164 -0.31651,0.21508 -0.66371,0.80578 -0.66371,1.12922 0,0.10101 0.10135,0.51761 0.22521,0.92577 0.19882,0.65516 0.22598,0.89092 0.23177,2.01211 0.006,1.13281 -0.0142,1.32165 -0.1857,1.74812 -0.53937,1.3413 -2.01786,2.10574 -3.10761,1.60676 -0.4739,-0.217 -1.10526,-0.9275 -1.42201,-1.60031 -0.26137,-0.55517 -0.26908,-0.60596 -0.31199,-2.05514 -0.0495,-1.67336 -0.10703,-1.85426 -0.6629,-2.08651 -0.40152,-0.16777 -1.07553,-0.0929 -1.60916,0.17876 -0.49049,0.24968 -0.75669,0.52781 -0.8643,0.90304 -0.0455,0.15849 -0.0826,1.25396 -0.0826,2.4344 v 2.14623 l -0.54396,0.54396 c -0.67473,0.67473 -1.45946,1.07321 -2.11345,1.07321 -1.10434,0 -2.29507,-1.06394 -2.63004,-2.34998 -0.34684,-1.33161 0.0228,-3.86011 0.93099,-6.36915 0.16506,-0.45597 0.28886,-0.94358 0.27512,-1.08355 -0.0238,-0.24183 -0.0461,-0.25574 -0.44915,-0.27939 -0.55155,-0.0324 -1.09695,0.24621 -1.42005,0.72534 -0.60186,0.89248 -1.63885,3.78272 -2.06065,5.7433 -0.20861,0.9697 -0.23533,1.27119 -0.23932,2.70024 -0.005,1.78321 0.0731,2.22932 0.57075,3.25967 0.32925,0.68172 1.19243,1.57725 1.83828,1.90717 0.84384,0.43105 1.32976,0.55116 2.11732,0.52336 0.63954,-0.0226 0.79712,-0.0629 1.397,-0.35719 z m -33.74084,-4.2689 c 8.62945,-0.33171 11.04745,-0.46554 11.29075,-0.62496 0.40537,-0.2656 1.71131,-1.65902 2.34149,-2.49833 1.12224,-1.49466 1.94749,-3.16562 2.49282,-5.04741 0.29231,-1.00872 0.43618,-1.89303 0.32591,-2.0033 -0.15035,-0.15035 -6.24462,-0.24052 -16.28164,-0.24089 -5.33188,0 -11.69017,0.0357 -14.12953,0.0798 -3.92248,0.0709 -4.46081,0.0966 -4.65667,0.22243 -0.42857,0.2754 -1.85587,1.56025 -2.31514,2.08409 -1.96681,2.2433 -2.87925,4.27372 -2.895,6.44215 -0.006,0.78157 0.0153,0.93303 0.14198,1.02568 0.28035,0.20501 3.05204,0.49833 6.03203,0.63834 1.98706,0.0934 14.65438,0.0377 17.653,-0.0776 z m -16.94489,-0.0114 c -2.85307,-0.10407 -6.04345,-0.39442 -6.58143,-0.59896 -0.20218,-0.0769 -0.20227,-0.0775 -0.16169,-1.19666 0.0367,-1.01114 0.0716,-1.21224 0.36017,-2.07302 0.66582,-1.98606 1.95453,-3.77244 3.95679,-5.48475 l 0.90661,-0.77534 2.09906,-0.0552 c 4.51982,-0.11883 23.02205,-0.1614 27.83548,-0.064 2.65306,0.0537 4.85389,0.12769 4.89071,0.16451 0.0998,0.0998 -0.16268,1.3693 -0.5018,2.42672 -0.5991,1.86819 -1.61566,3.69443 -2.92443,5.25373 -0.55108,0.65657 -1.49253,1.56947 -1.8125,1.75752 -0.10405,0.0612 -5.58465,0.33685 -9.55575,0.48069 -6.82058,0.24705 -14.4048,0.31456 -18.51122,0.16478 z m 16.01356,-0.24511 c 3.8622,-0.13608 6.63157,-0.25145 9.39254,-0.39126 l 2.57689,-0.13049 0.50741,-0.43926 c 1.67869,-1.45322 3.30016,-3.94675 4.07795,-6.27115 0.26558,-0.79367 0.66133,-2.42255 0.6028,-2.48108 -0.0126,-0.0126 -2.19223,-0.0667 -4.84371,-0.12034 -4.81012,-0.0973 -23.13206,-0.0546 -27.67398,0.0645 l -2.10977,0.0553 -0.55723,0.46442 c -2.9472,2.45631 -4.5789,5.27027 -4.5789,7.89659 0,0.71671 0.0202,0.83635 0.14816,0.87583 0.53928,0.16642 3.882,0.45498 6.45584,0.55729 2.22975,0.0886 12.69828,0.0361 16.002,-0.0803 z m 41.10566,-13.759233 c 6.0071,-2.12635 11.0878,-3.93931 11.29044,-4.02878 0.58755,-0.25943 1.56615,-1.30076 1.91543,-2.03818 0.69763,-1.47291 0.55902,-3.29623 -0.2942,-3.86999 -0.26396,-0.1775 -0.36572,-0.19473 -0.93133,-0.15764 -0.71182,0.0467 -1.26232,0.24516 -7.78934,2.80857 -9.71965,3.81727 -16.83241,6.68964 -17.18733,6.94082 -1.08237,0.76599 -1.45729,2.08364 -0.91883,3.229193 0.35861,0.76289 1.01011,1.06526 2.18883,1.01584 l 0.80433,-0.0337 z m -12.827,3.684373 c -0.53207,-0.1829 -0.96642,-0.61612 -1.10007,-1.09721 -0.1621,-0.58352 -0.10537,-1.372943 0.13304,-1.851373 0.44616,-0.89533 0.65538,-1.0141 4.48792,-2.54753 9.77965,-3.91292 18.50972,-7.33986 20.17281,-7.91872 1.04416,-0.36344 1.55075,-0.39287 1.96438,-0.11413 0.48833,0.32909 0.62397,0.66835 0.66037,1.65164 0.0353,0.95251 -0.0475,1.40902 -0.38437,2.12118 -0.25323,0.53529 -1.17531,1.54754 -1.67132,1.83476 -0.42728,0.24742 -21.8268,7.821733 -22.52709,7.973413 -0.69799,0.15118 -1.18713,0.13652 -1.73567,-0.052 z m 1.58973,-0.0848 c 0.45077,-0.0855 21.82077,-7.602273 22.4278,-7.888863 0.56326,-0.26592 1.4236,-1.18936 1.78007,-1.91062 0.28543,-0.57753 0.31266,-0.69793 0.34659,-1.53261 0.0454,-1.11705 -0.052,-1.52063 -0.45198,-1.87177 -0.35098,-0.30817 -0.75203,-0.34211 -1.48334,-0.12556 -0.93169,0.2759 -6.56659,2.47582 -17.0515,6.65709 -6.56711,2.61888 -7.05022,2.82545 -7.42258,3.17375 -0.54534,0.51011 -0.75126,0.97612 -0.74892,1.6949 0.005,1.433323 0.98306,2.111063 2.60386,1.803683 z"
       id="path302" /></g></svg>
