<?xml version="1.0" encoding="UTF-8" standalone="no"?>
<!-- Created with Inkscape (http://www.inkscape.org/) -->

<svg
   version="1.1"
   id="svg2"
   width="613.50531"
   height="303.21118"
   viewBox="0 0 613.50532 303.21118"
   xmlns="http://www.w3.org/2000/svg"
   xmlns:svg="http://www.w3.org/2000/svg">
  <defs
     id="defs6">
    <clipPath
       clipPathUnits="userSpaceOnUse"
       id="clipPath22">
      <path
         d="M 0,2196.486 H 2386 V 0 H 0 Z"
         id="path20" />
    </clipPath>
  </defs>
  <g
     id="g10"
     transform="matrix(1.3333333,0,0,-1.3333333,-1900.6036,2036.0183)">
    <g
       id="g16">
      <g
         id="g18"
         clip-path="url(#clipPath22)">
        <g
           id="g24"
           transform="translate(1761.1064,1419.8048)">
          <path
             d="m 0,0 c 0,-59.209 -48,-107.21 -107.209,-107.21 -59.214,0 -107.209,48.001 -107.209,107.21 0,59.21 47.995,107.209 107.209,107.209 C -48,107.209 0,59.21 0,0"
             style="fill:#e5e5e5;fill-opacity:1;fill-rule:nonzero;stroke:none"
             id="path26" />
        </g>
        <g
           id="g28"
           transform="translate(1764.3466,1419.8048)">
          <path
             d="m 0,0 c 0,-59.209 -48.001,-107.21 -107.21,-107.21 -59.214,0 -107.21,48.001 -107.21,107.21 0,59.21 47.996,107.209 107.21,107.209 C -48.001,107.209 0,59.21 0,0"
             style="fill:#ffffff;fill-opacity:1;fill-rule:nonzero;stroke:none"
             id="path30" />
        </g>
        <g
           id="g32"
           transform="translate(1624.0052,1330.4106)">
          <path
             d="m 0,0 c 0,0 -16.39,19.103 -5.588,46.679 l -3.225,2.893 -37.885,17.024 C -44.898,57.853 -34.769,16.988 0,0"
             style="fill:#000000;fill-opacity:1;fill-rule:nonzero;stroke:none"
             id="path34" />
        </g>
        <g
           id="g36"
           transform="translate(1618.3197,1509.1981)">
          <path
             d="m 0,0 c 0,0 5.09,-51.567 -28.086,-75.525 l 35.41,-22.913 7.373,0.585 c 0,0 13.544,62.631 -14.697,97.853"
             style="fill:#000000;fill-opacity:1;fill-rule:nonzero;stroke:none"
             id="path38" />
        </g>
        <g
           id="g40"
           transform="translate(1748.6704,1450.1307)">
          <path
             d="m 0,0 c 0,0 -57.974,-24.757 -87.335,-54.091 l 30.107,-20.418 c 0,0 15.657,-0.636 24.6,2.945 15.937,6.372 30.077,20.854 30.941,37.189 C -0.828,-18.074 0,0 0,0"
             style="fill:#000000;fill-opacity:1;fill-rule:nonzero;stroke:none"
             id="path42" />
        </g>
        <g
           id="g44"
           transform="translate(1743.3656,1441.2938)">
          <path
             d="m 0,0 c 0,0 -49.579,-19.868 -78.96,-45.003 l 27.682,-18.552 c 0,0 14.29,-0.834 22.937,2.626 15.409,6.161 28.154,19.435 28.989,35.229 C 1.478,-9.94 0,0 0,0"
             style="fill:#ffffff;fill-opacity:1;fill-rule:nonzero;stroke:none"
             id="path46" />
        </g>
        <g
           id="g48"
           transform="translate(1565.603,1450.1307)">
          <path
             d="M 0,0 C 0,0 57.974,-24.757 87.335,-54.091 L 57.228,-74.509 c 0,0 -15.657,-0.636 -24.6,2.945 C 16.691,-65.192 2.551,-50.71 1.687,-34.375 0.829,-18.074 0,0 0,0"
             style="fill:#000000;fill-opacity:1;fill-rule:nonzero;stroke:none"
             id="path50" />
        </g>
        <g
           id="g52"
           transform="translate(1570.9078,1441.2938)">
          <path
             d="M 0,0 C 0,0 49.58,-19.868 78.96,-45.003 L 51.277,-63.555 c 0,0 -14.29,-0.834 -22.936,2.626 C 12.932,-54.768 0.187,-41.494 -0.648,-25.7 -1.478,-9.94 0,0 0,0"
             style="fill:#ffffff;fill-opacity:1;fill-rule:nonzero;stroke:none"
             id="path54" />
        </g>
        <g
           id="g56"
           transform="translate(1735.2887,1356.8734)">
          <path
             d="M 0,0 -4.003,-14.014 -8.078,0 H -32.491 L -36.983,-28.005 -46.937,0 H -196.5 v -32.37 c 0,-0.973 -0.113,-1.473 -0.162,-1.651 -0.078,-0.033 -0.211,-0.078 -0.417,-0.121 l -0.099,-0.021 -0.111,0.023 c -0.201,0.041 -0.278,0.088 -0.281,0.088 -0.076,0.086 -0.29,0.575 -0.29,1.682 V 0 h -111.976 v -23.601 h 13.733 v -33.667 h 25.958 v 33.667 h 5.577 v -33.667 h 25.312 v 6.357 l 2.801,-6.357 h 36.531 0.681 2.064 c 0.717,0 1.458,0.025 2.291,0.077 0.791,0.055 1.49,0.134 2.136,0.238 6.942,0.978 12.356,3.45 16.094,7.348 0.154,0.162 0.287,0.339 0.435,0.505 v -8.168 h 70.46 c 1.142,0 2.285,0.132 3.395,0.229 1.22,0.106 2.278,0.262 3.198,0.467 3.233,0.689 6.186,1.768 8.832,3.228 l -1.371,-3.924 h 212.021 1.817 c 0.531,0 0.995,0.07 1.366,0.125 0.084,0.012 0.167,0.026 0.249,0.037 h 0.081 l 0.139,0.02 0.116,0.01 0.09,0.02 2.744,0.404 0.116,0.024 c 5.879,1.251 10.823,3.793 14.698,7.558 0.489,0.478 0.967,0.977 1.418,1.483 3.134,3.523 5.306,7.823 6.463,12.825 0.454,2.068 0.684,4.129 0.684,6.127 0,0.963 -0.037,1.921 -0.112,2.876 -0.088,1.046 -0.184,1.765 -0.31,2.33 0,0 -0.493,2.257 -0.669,3.007 -0.195,0.819 -0.722,2.441 -1.049,3.217 -0.307,0.733 -1.453,2.786 -1.453,2.786 -2.14,3.808 -5.074,6.961 -8.716,9.372 -3.59,2.375 -7.773,3.955 -12.411,4.693 -1.791,0.297 -3.578,0.448 -5.31,0.448 -6.971,0 -13.193,-2 -18.491,-5.948 -0.516,-0.384 -1.017,-0.781 -1.499,-1.19 V 0 H 74.966 V -13.727 L 66.734,0 Z"
             style="fill:#ffffff;fill-opacity:1;fill-rule:nonzero;stroke:none"
             id="path58" />
        </g>
        <g
           id="g60"
           transform="translate(1499.8478,1333.4847)">
          <path
             d="M 0,0 C -0.185,-0.796 -0.653,-1.465 -1.411,-2.011 -2.164,-2.557 -3.117,-2.828 -4.26,-2.828 h -2.749 v 9.137 h 2.404 c 3.252,0 4.881,-1.431 4.881,-4.294 C 0.276,1.468 0.182,0.799 0,0 m 42.782,-8.981 c 0,-1.755 -0.281,-3.049 -0.842,-3.881 -0.563,-0.832 -1.496,-1.383 -2.8,-1.653 -0.36,-0.091 -0.653,-0.135 -0.878,-0.135 -0.226,0 -0.518,0.044 -0.876,0.135 -2.431,0.494 -3.646,2.339 -3.646,5.534 V 19.563 H 15.79 V 10.53 c -0.84,2.749 -2.089,4.813 -3.766,6.154 -2.29,1.832 -6.003,2.75 -11.131,2.75 h -2.405 -23.353 -0.421 -45.268 V 3.629 h 13.733 v -33.667 h 18.276 V 3.629 h 13.259 v -33.667 h 18.277 v 15.116 L 0.482,-30.038 H 21.927 L 7.831,-9.562 c 2.749,0.869 4.936,2.506 6.562,4.912 0.576,0.851 1.03,1.768 1.397,2.734 v -8.55 c 0,-5.445 1.574,-9.808 4.724,-13.091 3.148,-3.287 7.782,-5.355 13.901,-6.209 0.315,-0.045 0.811,-0.136 1.486,-0.272 h 2.361 c 0.675,0 1.351,0.026 2.025,0.068 0.674,0.047 1.282,0.114 1.822,0.204 6.118,0.854 10.751,2.922 13.901,6.209 3.148,3.283 4.724,7.646 4.724,13.091 V 19.563 H 42.782 Z"
             style="fill:#000000;fill-opacity:1;fill-rule:nonzero;stroke:none"
             id="path62" />
        </g>
        <g
           id="g64"
           transform="translate(1581.0208,1317.621)">
          <path
             d="m 0,0 v 4.258 h 19.172 v 13.33 H 0 v 4.122 h 19.102 l 11.46,13.717 h -48.025 -0.651 V -14.044 H 30.415 L 19.172,0 Z"
             style="fill:#000000;fill-opacity:1;fill-rule:nonzero;stroke:none"
             id="path66" />
        </g>
        <g
           id="g68"
           transform="translate(1881.6434,1330.7886)">
          <path
             d="m 0,0 c -0.069,0.817 -0.145,1.426 -0.233,1.821 h -25.924 l -0.002,-0.078 h -0.026 V 1.697 l -0.066,-10.433 h 7.446 c -0.127,-0.536 -0.332,-1.033 -0.604,-1.494 -0.487,-0.8 -1.198,-1.49 -2.13,-2.067 -0.527,-0.308 -1.111,-0.514 -1.748,-0.625 -0.64,-0.109 -1.463,-0.163 -2.474,-0.163 -2.465,0.218 -4.462,1.185 -6.002,2.9 -1.673,1.849 -2.508,4.224 -2.508,7.125 v 0.792 c 0,0.35 0.022,0.834 0.066,1.451 0.084,0.612 0.208,1.191 0.364,1.741 0.502,1.712 1.363,3.127 2.582,4.246 1.377,1.264 2.93,1.988 4.654,2.181 0.309,0.036 0.624,0.059 0.945,0.059 1.273,0 2.549,-0.297 3.824,-0.889 1.171,-0.547 2.131,-1.396 2.892,-2.517 0.068,-0.096 0.141,-0.181 0.203,-0.284 L -3.055,9.694 C -3.067,9.713 -3.078,9.732 -3.089,9.75 l 0.086,0.033 c -1.847,3.286 -4.342,5.969 -7.487,8.051 -3.146,2.081 -6.784,3.449 -10.918,4.108 -1.585,0.262 -3.145,0.395 -4.684,0.395 -6.157,0 -11.555,-1.73 -16.195,-5.185 -3.41,-2.542 -5.95,-5.639 -7.636,-9.284 V 22.242 H -67.72 l 0.343,-19.557 c 0,-1.283 0.114,-2.714 0.345,-4.295 0.227,-1.581 0.525,-3.17 0.893,-4.775 l 0.619,-2.266 -1.72,4.811 c -0.595,1.512 -1.075,2.721 -1.443,3.64 -0.504,1.143 -0.96,2.081 -1.374,2.817 l -11.747,19.72 h -16.535 v -49.596 h 16.398 l -0.413,18.608 c 0,2.794 -0.369,5.818 -1.101,9.067 l -0.341,1.788 0.204,-0.757 0.961,-3.021 c 0.549,-1.559 1.007,-2.818 1.376,-3.778 0.55,-1.334 1.12,-2.498 1.717,-3.505 l 11.405,-18.415 h 18.311 v 13.763 c 0,0 5.637,-13.791 23.986,-13.791 l 0.195,-0.042 h 1.416 c 0.414,0 0.91,0.117 1.367,0.156 0.017,0.004 0.034,0.006 0.049,0.006 l 1.348,0.197 c 0.066,0.009 0.13,0.019 0.194,0.026 l 1.144,0.171 c 5.184,1.103 9.456,3.288 12.816,6.553 0.427,0.416 0.836,0.844 1.228,1.285 2.716,3.052 4.577,6.75 5.582,11.094 0.398,1.812 0.595,3.579 0.595,5.304 C 0.098,-1.668 0.064,-0.817 0,0"
             style="fill:#000000;fill-opacity:1;fill-rule:nonzero;stroke:none"
             id="path70" />
        </g>
        <g
           id="g72"
           transform="translate(1672.3839,1322.3419)">
          <path
             d="m 0,0 2.68,11.819 0.687,2.747 c 0.09,0.458 0.195,0.916 0.307,1.375 0.116,0.457 0.174,1.123 0.174,1.992 L 4.26,14.637 4.879,11.819 7.557,0 Z M 90.275,-8.599 84.013,30.69 H 65.802 L 59.823,9.755 C 59.639,9.249 59.456,8.262 59.272,6.793 L 58.861,2.937 V 4.659 C 58.769,5.576 58.63,6.54 58.445,7.551 58.259,8.56 58.122,9.295 58.032,9.755 L 51.944,30.69 H 33.688 L 27.338,-8.905 13.259,30.646 H -5.542 -5.771 -43.068 v -0.007 c -3.187,-0.042 -6.278,-0.508 -9.156,-1.444 -2.493,-0.858 -4.827,-2.077 -6.99,-3.691 -4.628,-3.447 -7.667,-7.917 -9.114,-13.409 -0.308,-1.187 -0.526,-2.319 -0.657,-3.393 -0.133,-1.078 -0.199,-2.145 -0.199,-3.199 0,-5.974 1.951,-11.19 5.857,-15.65 3.904,-4.46 9.127,-7.215 15.663,-8.27 1.58,-0.262 3.183,-0.395 4.806,-0.395 1.009,0 2.027,0.041 3.06,0.131 1.03,0.09 1.942,0.221 2.733,0.398 5.175,1.101 9.442,3.284 12.799,6.544 3.356,3.263 5.604,7.359 6.746,12.296 0.395,1.808 0.593,3.571 0.593,5.289 0,0.884 -0.033,1.731 -0.1,2.546 -0.065,0.814 -0.142,1.421 -0.229,1.819 h -25.867 l -0.064,-10.466 h 7.437 c -0.351,-1.491 -1.273,-2.697 -2.764,-3.618 -0.527,-0.308 -1.109,-0.516 -1.744,-0.625 -0.638,-0.112 -1.46,-0.167 -2.469,-0.167 -2.457,0.222 -4.453,1.186 -5.991,2.896 -0.007,0.012 -0.015,0.021 -0.022,0.03 -1.673,1.85 -2.509,4.224 -2.509,7.126 v 0.791 c 0,0.351 0.024,0.835 0.069,1.452 0.082,0.611 0.207,1.191 0.363,1.74 0.503,1.713 1.364,3.128 2.581,4.247 0.135,0.122 0.289,0.236 0.443,0.35 1.518,1.255 3.237,1.893 5.157,1.902 h 31.609 l -12.334,-34.694 h 19.718 l 1.444,6.32 H 9.686 l 1.376,-6.32 h 14.684 l -0.011,-0.07 h 17.906 l 1.515,19.146 c 0,0.137 0.045,0.39 0.139,0.758 V 2.525 C 45.246,3.35 45.224,4.233 45.224,5.176 v 2.996 l -0.137,1.721 0.414,-2.066 0.416,-2.067 0.965,-5.096 0.069,-0.276 5.456,-19.283 h 12.842 l 5.526,19.283 v 0.415 l 0.924,4.957 0.531,2.755 0.197,1.378 V 5.899 4.865 2.627 0.251 l 1.583,-19.146 h 16.265 1.642 16.676 V 30.69 H 90.275 Z"
             style="fill:#000000;fill-opacity:1;fill-rule:nonzero;stroke:none"
             id="path74" />
        </g>
      </g>
    </g>
  </g>
</svg>
