<?xml version="1.0" encoding="UTF-8" standalone="no"?>
<!-- Created with Inkscape (http://www.inkscape.org/) -->
<svg xmlns="http://www.w3.org/2000/svg" xmlns:svg="http://www.w3.org/2000/svg" version="1.1" id="svg2" width="1325.5599" height="615.91187" viewBox="0 0 1325.5599 615.91187">
  <defs id="defs6">
    <clipPath id="clipPath16">
      <path d="M 0,1080 H 1920 V 0 H 0 Z" id="path14"></path>
    </clipPath>
  </defs>
  <g id="g8" transform="matrix(1.3333333,0,0,-1.3333333,-617.21958,1038.8176)">
    <g id="g10" style="fill:#ffffff">
      <g id="g12" clip-path="url(#clipPath16)" style="fill:#ffffff">
        <g id="g18" transform="translate(984.1953,596.7792)" style="fill:#ffffff">
          <path d="m 0,0 8.031,-1.523 c 0.778,-0.147 1.489,-0.644 1.918,-1.34 0.429,-0.695 0.525,-1.506 0.26,-2.187 l -2.428,-6.227 h 20.843 l 4.83,3.525 2.051,4.964 -1.643,2.837 C 22.349,0.049 11.29,0.048 0,0" style="fill:#ffffff;fill-opacity:1;fill-rule:nonzero;stroke:none" id="path20"></path>
        </g>
        <g id="g22" transform="translate(1130.1525,628.1931)" style="fill:#ffffff">
          <path d="m 0,0 c 0.527,-0.853 0.64,-1.848 0.304,-2.68 0,0 -1.209,-3.072 -3.079,-7.815 h 23.782 l 3.654,9.96 c 0.022,0.061 0.046,0.119 0.072,0.177 L 23.249,2.054 C 13.848,2.054 4.745,2.053 -4.446,2.027 L -2.369,1.641 C -1.407,1.463 -0.529,0.853 0,0" style="fill:#ffffff;fill-opacity:1;fill-rule:nonzero;stroke:none" id="path24"></path>
        </g>
        <g id="g26" transform="translate(867.418,583.5262)" style="fill:#ffffff">
          <path d="m 0,0 c 10.234,0 19.716,-0.003 29.505,-0.031 l -0.464,0.09 c -0.927,0.179 -1.777,0.769 -2.296,1.595 -0.52,0.828 -0.651,1.795 -0.354,2.618 l 14.383,39.876 c 0.021,0.061 0.045,0.119 0.071,0.176 l -1.466,2.399 c -9.264,0 -18.235,-10e-4 -27.291,-0.027 l 2.047,-0.383 c 0.947,-0.178 1.814,-0.784 2.335,-1.633 0.522,-0.848 0.634,-1.837 0.304,-2.665 z" style="fill:#ffffff;fill-opacity:1;fill-rule:nonzero;stroke:none" id="path28"></path>
        </g>
        <g id="g30" transform="translate(915.3607,511.423)" style="fill:#ffffff">
          <path d="m 0,0 2.54,-0.476 c 1.175,-0.22 2.251,-0.972 2.897,-2.025 0.647,-1.052 0.787,-2.28 0.377,-3.306 l -20.811,-52.129 c 12.698,0 24.461,-0.003 36.607,-0.038 l -0.575,0.111 c -1.151,0.223 -2.205,0.955 -2.85,1.98 -0.645,1.026 -0.807,2.227 -0.439,3.248 l 17.845,49.474 c 0.026,0.075 0.056,0.148 0.088,0.218 L 33.86,0.033 C 22.367,0.033 11.236,0.032 0,0" style="fill:#ffffff;fill-opacity:1;fill-rule:nonzero;stroke:none" id="path32"></path>
        </g>
        <g id="g34" transform="translate(996.137,631.0845)" style="fill:#ffffff">
          <path d="m 0,0 8.032,-1.523 c 0.777,-0.147 1.488,-0.644 1.917,-1.34 0.429,-0.695 0.525,-1.506 0.26,-2.187 l -2.428,-6.227 h 20.843 l 4.83,3.525 2.051,4.964 -1.643,2.837 C 22.349,0.049 11.29,0.047 0,0" style="fill:#ffffff;fill-opacity:1;fill-rule:nonzero;stroke:none" id="path36"></path>
        </g>
        <g id="g38" transform="translate(799.0381,512.9226)" style="fill:#ffffff">
          <path d="m 0,0 c -13.422,0 -26.378,-0.004 -39.592,-0.06 l 9.91,-1.879 c 0.958,-0.182 1.835,-0.795 2.365,-1.653 0.529,-0.858 0.648,-1.859 0.32,-2.699 l -1.088,-2.791 c -0.865,-2.22 1.115,-4.891 3.626,-4.891 h 19.178 c 0.655,0 1.268,0.193 1.764,0.554 l 4.581,3.343 c 0.407,0.297 0.721,0.698 0.915,1.168 l 1.637,3.964 C 3.992,-4.034 3.89,-2.942 3.339,-1.99 2.638,-0.781 1.322,0 0,0" style="fill:#ffffff;fill-opacity:1;fill-rule:nonzero;stroke:none" id="path40"></path>
        </g>
        <g id="g42" transform="translate(1064.7603,511.4227)" style="fill:#ffffff">
          <path d="M 0,0 2.557,-0.479 C 3.731,-0.7 4.806,-1.449 5.452,-2.501 6.099,-3.551 6.24,-4.778 5.834,-5.804 L 3.252,-12.321 H 27.55 l 5.673,4.087 2.335,5.562 -1.582,2.705 C 22.436,0.033 11.265,0.032 0,0" style="fill:#ffffff;fill-opacity:1;fill-rule:nonzero;stroke:none" id="path44"></path>
        </g>
        <g id="g46" transform="translate(1309.9397,533.3732)" style="fill:#ffffff">
          <path d="m 0,0 -11.756,-27.625 c -0.38,-1.004 -1.33,-1.634 -2.46,-1.634 h -35.996 l -20.557,-52.333 c 0.261,-0.204 0.498,-0.444 0.7,-0.718 0.674,-0.909 0.863,-2.039 0.498,-2.977 l -7.306,-18.451 c -0.387,-0.992 -1.331,-1.612 -2.453,-1.612 h -30.93 c -1.183,0 -2.355,0.689 -2.998,1.764 l -9.73,15.979 c -0.513,0.857 -0.622,1.85 -0.295,2.683 l 25.146,64.172 c -5.616,0.042 -49.459,-0.039 -49.464,-0.039 -1.263,0 -2.503,0.783 -3.109,1.966 -0.61,1.188 -0.453,2.527 0.392,3.355 l 19.556,19.157 c 0.484,0.474 1.15,0.735 1.875,0.735 H -3.302 c 1.057,0 2.115,-0.552 2.789,-1.455 C 0.162,2.063 0.356,0.939 0,0 m -154.374,-17.416 -9.412,-23.541 c -0.216,-0.54 -0.573,-0.996 -1.04,-1.331 l -23.481,-16.822 2.775,-35.183 4.499,-5.405 c 0.932,-1.12 1.225,-2.578 0.761,-3.785 -0.464,-1.206 -1.609,-1.963 -2.972,-1.963 h -48.462 c -1.003,0 -2.02,0.411 -2.812,1.139 -0.793,0.727 -1.292,1.706 -1.38,2.708 l -3.489,41.575 h -12.808 l -17.313,-43.402 c -0.474,-1.185 -1.609,-1.924 -2.956,-1.924 l -44.199,-0.097 c -1.288,0 -2.575,0.677 -3.391,1.782 -0.814,1.105 -1.036,2.477 -0.585,3.612 l 30.996,77.861 h -6.165 c -1.535,0 -3.039,0.957 -3.77,2.397 -0.73,1.44 -0.531,3.057 0.499,4.051 l 19.587,18.937 c 0.584,0.565 1.383,0.875 2.253,0.875 l 109.109,0.064 c 1.424,0 2.834,-0.826 3.614,-2.117 l 9.782,-16.149 c 0.634,-1.048 0.767,-2.265 0.36,-3.282 m -187.522,-88.006 -108.341,0.071 c -1.425,0 -2.835,0.826 -3.615,2.118 l -9.563,15.711 c -0.632,1.047 -0.765,2.262 -0.361,3.277 l 24.715,62.053 h -6.162 c -1.535,0 -3.039,0.957 -3.77,2.397 -0.73,1.44 -0.531,3.057 0.499,4.052 l 19.389,18.936 c 0.584,0.565 1.383,0.875 2.253,0.875 l 109.237,0.064 c 1.424,0 2.834,-0.826 3.614,-2.117 l 9.856,-16.154 c 0.63,-1.044 0.765,-2.256 0.363,-3.272 l -35.304,-86.4 c -0.541,-1.007 -1.594,-1.611 -2.81,-1.611 m -146.478,47.086 -60.217,-0.807 c -1.231,0 -2.268,-0.679 -2.696,-1.766 l -16.211,-41.193 c -0.814,-2.067 -2.785,-3.358 -5.126,-3.358 h -42.235 c -1.054,0 -2.108,0.552 -2.776,1.456 -0.669,0.902 -0.855,2.024 -0.491,2.955 l 29.524,75.425 c 0.869,2.22 -1.112,4.894 -3.625,4.894 h -1.793 c -1.255,0 -2.487,0.781 -3.087,1.958 -0.601,1.176 -0.445,2.501 0.392,3.32 l 18.316,17.983 c 1.012,0.991 2.404,1.537 3.923,1.537 L -467.573,4.1 c 2.474,0 4.923,-1.44 6.269,-3.689 l 7.444,-12.488 c 1.076,-1.798 1.305,-3.878 0.618,-5.624 l -8.534,-21.693 c -0.369,-0.938 -0.986,-1.735 -1.793,-2.318 l -21.586,-15.586 c -0.91,-0.657 -2.026,-1.017 -3.219,-1.038 m -146.728,-47.124 h -127.483 c -0.903,0 -1.816,0.409 -2.482,1.112 -0.665,0.703 -1.085,1.716 -0.945,2.51 0.139,0.793 14.145,36.937 14.145,36.937 0.38,0.986 1.314,1.604 2.427,1.604 h 42.941 c 1.048,0 2.096,-0.549 2.762,-1.447 0.666,-0.897 0.854,-2.012 0.494,-2.94 l -5.746,-12.738 c 15.626,0 32.961,0.003 48.387,0.062 l -8.955,1.655 c -1.051,0.194 -2,0.908 -2.503,1.884 -0.504,0.976 -0.249,1.977 0.038,2.895 l 2.921,10.309 -70.407,20.862 c -0.89,0.262 -1.669,0.892 -2.125,1.716 -0.455,0.826 -0.54,1.76 -0.231,2.548 l 7.496,17.427 h -8.774 c -1.251,0 -2.477,0.778 -3.075,1.95 -0.599,1.172 -0.443,2.491 0.39,3.307 l 19.402,19.201 c 0.479,0.469 1.136,0.726 1.853,0.726 l 125.65,-0.028 c 0.994,0 1.993,-0.495 2.664,-1.32 0.671,-0.824 0.926,-1.872 0.68,-2.794 l -9.687,-25.943 c -0.3,-1.13 -1.294,-1.869 -2.513,-1.869 h -44.608 c -0.907,0 -1.822,0.412 -2.489,1.12 -0.666,0.707 -1.011,1.635 -0.937,2.52 l 1.21,3.241 c -14.139,0 -28.692,-0.113 -42.605,-0.17 l 81.94,-23.701 c 0.827,-0.237 1.564,-0.791 2.037,-1.531 0.472,-0.741 0.639,-1.602 0.459,-2.378 l -20.044,-55.425 c -0.445,-0.815 -1.301,-1.302 -2.287,-1.302 m -81.796,151.85 19.211,50.064 -4.246,-0.009 c -1.237,0 -2.451,0.772 -3.041,1.934 -0.589,1.161 -0.428,2.466 0.403,3.268 l 16.019,15.5 c 0.471,0.456 1.115,0.706 1.817,0.706 l 87.761,0.018 c 1.149,0 2.286,-0.666 2.916,-1.708 l 7.926,-13.222 c 0.51,-0.842 0.619,-1.82 0.294,-2.639 l -3.386,-8.548 c -0.023,-0.132 -0.057,-0.262 -0.1,-0.389 l -2.558,-7.374 c -0.353,-1.017 -1.295,-1.663 -2.425,-1.663 h -35.528 c -1.024,0 -2.048,0.53 -2.707,1.401 -0.66,0.87 -0.86,1.958 -0.53,2.873 l 2.701,7.488 c 0.021,0.061 0.045,0.12 0.071,0.176 l -1.466,2.401 c -9.272,0 -18.251,-0.001 -27.314,-0.027 l 2.048,-0.383 c 0.948,-0.178 1.816,-0.785 2.338,-1.634 0.521,-0.849 0.634,-1.839 0.303,-2.667 l -16.787,-42.05 c 10.251,0 10.721,-0.004 16.739,-0.047 l 7.733,-0.052 4.346,11.36 h -13.261 c -0.874,0 -1.331,0.715 -1.015,1.589 l 3.495,9.682 c 0.315,0.874 1.289,1.589 2.163,1.589 h 54.192 c 0.874,0 1.331,-0.715 1.015,-1.589 l -3.142,-8.705 c -0.006,-0.016 -0.004,-0.034 -0.01,-0.05 L -605.2,51.347 c -0.043,-0.126 -0.096,-0.248 -0.159,-0.364 l -11.038,-20.552 c -0.436,-0.812 -1.286,-1.299 -2.266,-1.299 H -705.9 c -1.149,0 -2.287,0.667 -2.917,1.709 l -7.79,12.905 c -0.51,0.845 -0.618,1.824 -0.291,2.644 m 46.989,142.268 9.846,9.645 c 0.244,0.239 0.579,0.37 0.944,0.37 h 63.229 c 0.532,0 1.065,-0.277 1.404,-0.732 0.34,-0.455 0.438,-1.021 0.259,-1.494 l -5.919,-13.909 c -0.192,-0.505 -0.67,-0.822 -1.239,-0.822 h -18.123 l -10.35,-26.348 c 0.131,-0.103 0.251,-0.224 0.353,-0.362 0.339,-0.457 0.434,-1.026 0.25,-1.499 l -3.678,-9.289 c -0.195,-0.5 -0.67,-0.812 -1.235,-0.812 h -15.573 c -0.595,0 -1.185,0.347 -1.509,0.888 l -4.899,8.045 c -0.258,0.432 -0.313,0.931 -0.148,1.351 l 12.66,32.309 c -2.828,0.021 -24.901,-0.02 -24.904,-0.02 -0.636,0 -1.26,0.395 -1.565,0.99 -0.307,0.598 -0.228,1.272 0.197,1.689 m 86.232,9.952 22.23,0.031 c 0.638,-0.019 1.267,-0.366 1.662,-0.916 0.395,-0.552 0.499,-1.228 0.275,-1.788 l -6.052,-15.234 c -0.549,-1.382 0.47,-2.881 1.957,-2.879 l 8.545,0.011 c 0.318,0.001 0.608,-0.078 0.872,-0.199 l 3.224,8.226 4.9,12.748 h 25.545 l -6.316,-17.031 -10.35,-26.348 c 0.131,-0.103 0.251,-0.224 0.352,-0.362 0.34,-0.457 0.435,-1.026 0.251,-1.499 l -3.678,-9.289 c -0.195,-0.5 -0.671,-0.812 -1.235,-0.812 h -15.573 c -0.596,0 -1.185,0.347 -1.509,0.888 l -4.899,8.045 c -0.258,0.432 -0.313,0.931 -0.149,1.351 l 4.696,11.983 h -11.232 c -0.861,0 -1.636,-0.525 -1.954,-1.326 l -3.144,-7.914 -4.329,-11.464 c -0.309,-0.818 -1.092,-1.359 -1.967,-1.359 h -14.605 c -0.774,0 -1.486,0.425 -1.852,1.108 l -4.255,7.925 c -0.316,0.525 -0.383,1.133 -0.18,1.642 l 11.264,28.281 c 0.55,1.381 -0.467,2.881 -1.954,2.881 -0.769,0 -1.522,0.48 -1.888,1.201 -0.366,0.721 -0.266,1.532 0.25,2.03 l 9.969,9.631 c 0.292,0.283 0.693,0.438 1.129,0.438 m 3.315,-102.112 c -1.235,0 -2.446,0.77 -3.034,1.929 -0.588,1.159 -0.428,2.461 0.401,3.261 l 16.015,15.471 c 0.47,0.455 1.113,0.704 1.813,0.704 l 35.71,0.049 c 1.026,-0.031 2.036,-0.587 2.67,-1.471 0.635,-0.886 0.802,-1.972 0.442,-2.872 L -551.644,49.89 h 14.338 l 4.576,3.296 3.009,7.199 c 0.39,0.933 1.295,1.513 2.364,1.513 h 35.577 c 1.037,0 2.073,-0.544 2.728,-1.433 0.656,-0.891 0.836,-1.994 0.472,-2.907 l -10.675,-26.872 c -0.38,-0.956 -1.295,-1.554 -2.381,-1.554 l -82.644,-0.006 c -1.147,0 -2.331,0.732 -2.959,1.772 l -7.79,12.904 c -0.508,0.842 -0.616,1.82 -0.29,2.637 l 19.938,50.059 z m 69.456,102.099 h 64.172 c 0.538,0 1.076,-0.283 1.417,-0.745 0.341,-0.462 0.434,-1.036 0.246,-1.51 l -5.517,-13.899 c -0.198,-0.497 -0.673,-0.808 -1.238,-0.808 h -22.506 c -0.535,0 -1.071,0.28 -1.412,0.737 -0.341,0.458 -0.439,1.028 -0.257,1.502 l 0.148,0.389 -1.086,1.774 -21.221,-0.019 4.973,-0.928 c 0.492,-0.091 0.942,-0.405 1.212,-0.845 0.271,-0.439 0.33,-0.953 0.16,-1.382 l -1.492,-3.76 h 15.469 c 0.538,0 1.076,-0.282 1.417,-0.744 0.341,-0.462 0.434,-1.035 0.247,-1.509 l -3.757,-9.497 c -0.197,-0.499 -0.673,-0.81 -1.238,-0.81 l -24.742,-0.008 4.99,-0.932 c 0.492,-0.092 0.942,-0.406 1.213,-0.847 0.27,-0.441 0.328,-0.955 0.157,-1.384 l -3.075,-7.673 h 15.546 l 3.042,2.191 1.939,4.639 c 0.203,0.485 0.673,0.786 1.228,0.786 h 22.565 c 0.538,0 1.077,-0.283 1.417,-0.745 0.341,-0.462 0.434,-1.036 0.246,-1.51 l -6.771,-17.044 c -0.198,-0.497 -0.673,-0.807 -1.238,-0.807 h -58.255 c -0.589,0 -1.173,0.337 -1.501,0.868 l -4.983,8.045 c -0.273,0.441 -0.333,0.957 -0.162,1.388 l 12.894,32.386 h -3.793 c -0.642,0 -1.271,0.4 -1.577,1.002 -0.305,0.602 -0.222,1.279 0.209,1.695 l 9.972,9.638 c 0.244,0.236 0.578,0.366 0.942,0.366 m 75.996,-52.614 15.644,39.318 h -3.253 c -0.776,0 -1.537,0.484 -1.906,1.213 -0.37,0.728 -0.269,1.546 0.252,2.048 l 9.744,9.417 c 0.082,0.092 0.192,0.151 0.293,0.222 0.293,0.298 0.694,0.481 1.157,0.481 h 29.095 c 0.942,0 1.833,-0.707 2.069,-1.643 l 4.363,-24.174 9.088,24.792 c 0.217,0.645 0.811,1.056 1.525,1.056 h 22.297 c 0.651,0 1.302,-0.342 1.714,-0.901 0.412,-0.558 0.525,-1.252 0.297,-1.826 l -21.808,-52.155 c -0.298,-0.367 -0.754,-0.575 -1.261,-0.575 h -30.712 c -0.505,0 -1.016,0.206 -1.416,0.571 -0.4,0.364 -0.654,0.856 -0.702,1.36 l -2.298,23.912 -8.349,-24.787 c -0.217,-0.645 -0.811,-1.056 -1.525,-1.056 h -22.297 c -0.651,0 -1.302,0.342 -1.715,0.901 -0.411,0.559 -0.524,1.252 -0.296,1.826 m 102.315,52.637 h 64.171 c 0.539,0 1.077,-0.283 1.418,-0.745 0.341,-0.462 0.434,-1.035 0.246,-1.51 l -5.518,-13.899 c -0.197,-0.497 -0.673,-0.808 -1.237,-0.808 h -22.506 c -0.536,0 -1.071,0.28 -1.412,0.737 -0.341,0.458 -0.439,1.028 -0.258,1.502 l 0.149,0.389 -1.086,1.774 -21.221,-0.019 4.973,-0.928 c 0.491,-0.091 0.941,-0.405 1.212,-0.845 0.271,-0.439 0.33,-0.953 0.16,-1.382 l -1.492,-3.76 h 15.469 c 0.538,0 1.076,-0.282 1.417,-0.744 0.341,-0.462 0.434,-1.035 0.246,-1.509 l -3.756,-9.497 c -0.197,-0.499 -0.673,-0.81 -1.238,-0.81 l -24.742,-0.008 4.99,-0.932 c 0.492,-0.092 0.942,-0.406 1.212,-0.847 0.271,-0.441 0.329,-0.955 0.157,-1.384 l -3.074,-7.673 h 15.545 l 3.042,2.191 1.94,4.639 c 0.202,0.485 0.672,0.786 1.228,0.786 h 22.564 c 0.539,0 1.077,-0.283 1.418,-0.745 0.341,-0.462 0.434,-1.036 0.245,-1.51 l -6.771,-17.044 c -0.197,-0.497 -0.673,-0.807 -1.237,-0.807 h -58.256 c -0.588,0 -1.172,0.337 -1.501,0.868 l -4.982,8.045 c -0.274,0.441 -0.334,0.957 -0.162,1.388 l 12.894,32.386 h -3.793 c -0.642,0 -1.271,0.4 -1.577,1.002 -0.305,0.602 -0.222,1.279 0.208,1.695 l 9.972,9.638 c 0.245,0.236 0.579,0.366 0.943,0.366 m 75.56,-0.24 c 0.227,0.113 0.485,0.175 0.754,0.175 h 7.201 c 0.064,0 0.127,-0.003 0.191,-0.009 h 14.814 c 0.654,0 1.308,-0.347 1.718,-0.91 0.41,-0.564 0.516,-1.261 0.278,-1.833 l -10.034,-24.143 21.381,26.312 c 0.298,0.366 0.753,0.574 1.259,0.574 h 16.966 c 0.504,0 1.014,-0.206 1.413,-0.57 0.399,-0.363 0.652,-0.853 0.7,-1.357 l 2.293,-23.853 8.328,24.726 c 0.216,0.644 0.808,1.054 1.521,1.054 h 22.242 c 0.649,0 1.299,-0.342 1.71,-0.899 0.411,-0.557 0.523,-1.249 0.295,-1.822 l -18.126,-42.091 -3.63,-9.484 c -0.233,-0.611 -0.811,-0.993 -1.499,-0.993 h -27.644 c -0.94,0 -1.828,0.706 -2.063,1.64 l -5.3,21.035 c -0.1,0.396 -0.07,0.796 0.083,1.141 l 0.864,1.937 -4.845,-6.48 c -0.023,-0.037 -0.048,-0.074 -0.074,-0.109 l -13.73,-18.537 c -0.295,-0.399 -0.769,-0.627 -1.3,-0.627 h -28.657 c -0.609,0 -1.22,0.3 -1.634,0.801 -0.415,0.502 -0.579,1.141 -0.439,1.709 l 9.724,39.591 h -3.327 c -0.774,0 -1.533,0.483 -1.902,1.209 -0.368,0.726 -0.268,1.542 0.252,2.044 l 9.72,9.393 c 0.138,0.156 0.307,0.284 0.497,0.376 M -471.253,96.654 c -1.237,0 -2.45,0.772 -3.039,1.932 -0.588,1.161 -0.428,2.465 0.403,3.266 l 15.714,15.185 c 0.471,0.456 1.115,0.706 1.816,0.706 h 88.112 c 1.148,0 2.284,-0.666 2.913,-1.707 l 7.789,-12.891 c 0.509,-0.842 0.617,-1.819 0.293,-2.637 l -3.382,-8.54 c -0.023,-0.133 -0.056,-0.263 -0.101,-0.389 l -13.864,-39.986 c -0.044,-0.126 -0.097,-0.248 -0.159,-0.364 L -385.95,30.424 c -0.436,-0.812 -1.284,-1.298 -2.264,-1.298 h -86.77 c -1.148,0 -2.285,0.666 -2.914,1.707 l -8.018,13.166 c -0.509,0.843 -0.617,1.822 -0.29,2.641 l 19.92,50.014 z m 224.322,-25.121 c 0.899,-1.608 1.108,-3.469 0.565,-5.031 l -6.741,-19.406 c -0.292,-0.839 -0.787,-1.553 -1.441,-2.074 L -271.612,30.02 c -0.736,-0.587 -1.644,-0.909 -2.62,-0.928 l -91.798,0.034 c -2.751,0.022 -2.886,2.552 -2.591,3.307 l 25.484,65.101 h -5.945 c -1.018,0 -2.015,0.633 -2.503,1.586 -0.487,0.954 -0.359,2.028 0.318,2.692 l 15.83,15.505 c 0.389,0.381 0.924,0.591 1.507,0.591 h 88.892 c 0.951,0 1.892,-0.553 2.409,-1.418 l 7.879,-13.159 c 0.414,-0.691 0.501,-1.49 0.238,-2.161 l -7.622,-19.373 c -0.142,-0.359 -0.376,-0.664 -0.685,-0.888 l -6.654,-4.83 z m 128.784,44.608 7.888,-12.963 c 0.515,-0.847 0.625,-1.829 0.295,-2.652 L -139.01,30.32 c -0.443,-0.816 -1.23,-1.194 -2.225,-1.194 l -33.589,0.044 c -0.942,0.181 -1.711,0.884 -2.238,1.715 -0.526,0.832 -0.657,1.805 -0.355,2.633 l 11.387,31.043 h -24.333 c -6.172,-15.613 -12.804,-32.325 -13.494,-33.792 -0.909,-1.932 -2.37,-1.643 -4.065,-1.643 l -33.589,-0.045 c -1.045,0 -2.004,0.473 -2.67,1.358 -0.666,0.884 -0.859,1.985 -0.507,2.905 l 24.167,63.307 h -5.134 c -1.255,0 -2.484,0.775 -3.081,1.943 -0.595,1.167 -0.431,2.478 0.412,3.284 l 15.967,15.271 c 0.478,0.457 1.132,0.708 1.844,0.708 h 89.413 c 1.164,0 2.316,-0.669 2.953,-1.716 m 12.209,-14.453 16.004,15.4 c 0.47,0.454 1.113,0.704 1.814,0.704 l 35.626,0.06 c 1.026,-0.03 2.036,-0.587 2.67,-1.471 0.635,-0.886 0.802,-1.972 0.442,-2.871 L -74.587,49.89 h 14.338 l 4.575,3.296 3.01,7.199 c 0.39,0.933 1.295,1.513 2.364,1.513 h 35.577 c 1.036,0 2.072,-0.544 2.728,-1.433 0.656,-0.891 0.835,-1.994 0.472,-2.907 L -22.859,30.686 c -0.38,-0.956 -1.295,-1.554 -2.381,-1.554 l -82.033,0.062 c -1.146,0 -2.281,0.664 -2.909,1.704 l -7.79,12.904 c -0.508,0.842 -0.616,1.82 -0.29,2.637 l 19.938,50.059 h -4.982 c -1.235,0 -2.445,0.77 -3.034,1.929 -0.587,1.159 -0.427,2.461 0.402,3.261 M -702.275,245.74 -847.025,-152.333 H 2.396 L 147.145,245.74 Z" style="fill:#ffffff;fill-opacity:1;fill-rule:nonzero;stroke:none" id="path48"></path>
        </g>
        <g id="g50" transform="translate(912.5825,333.2555)" style="fill:#ffffff">
          <path d="m 0,0 c -3.207,-11.03 -11.153,-16.076 -22.392,-16.076 -12.171,0 -18.242,7.257 -18.242,18.717 0,12.099 6.909,28.658 25.503,28.658 11.791,0 18.064,-6.343 18.004,-15.999 h -12.894 c -0.016,3.382 -1.021,6.767 -6.12,6.767 -7.624,0 -11.147,-12.266 -11.147,-20.059 0,-4.97 1.488,-8.782 6.21,-8.782 4.521,0 6.602,3.001 8.116,6.774 z" style="fill:#ffffff;fill-opacity:1;fill-rule:nonzero;stroke:none" id="path52"></path>
        </g>
        <g id="g54" transform="translate(930.174,335.6223)" style="fill:#ffffff">
          <path d="m 0,0 c 0,-5.464 2.192,-9.187 7.346,-9.187 8.765,0 11.892,12.068 11.892,19.567 0,5.09 -1.735,9.297 -7.193,9.297 C 3.824,19.677 0,7.857 0,0 m 32.142,9.595 c 0,-13.681 -7.519,-28.038 -26.192,-28.038 -13.361,0 -19.081,8.534 -19.081,18.674 0,13.712 8.38,28.701 25.796,28.701 13.472,0 19.477,-8.738 19.477,-19.337" style="fill:#ffffff;fill-opacity:1;fill-rule:nonzero;stroke:none" id="path56"></path>
        </g>
        <g id="g58" transform="translate(963.2646,318.0287)" style="fill:#ffffff">
          <path d="m 0,0 9.684,45.677 h 15.581 c 2.305,-11.261 5.52,-24.875 6.199,-31.096 h 0.202 c 0.687,5.173 2.341,13.707 3.887,20.992 l 2.132,10.104 H 49.476 L 39.792,0 H 24.944 C 22.987,9.294 19.09,26.782 18.496,32.677 H 18.317 C 17.571,27.09 15.78,18.686 14.08,10.645 L 11.833,0 Z" style="fill:#ffffff;fill-opacity:1;fill-rule:nonzero;stroke:none" id="path60"></path>
        </g>
        <g id="g62" transform="translate(1020.8081,363.7054)" style="fill:#ffffff">
          <path d="M 0,0 H 32.716 L 30.692,-9.455 H 10.417 l -1.909,-9.437 h 18.929 l -2.046,-9.411 H 6.46 L 2.824,-45.677 H -9.684 Z" style="fill:#ffffff;fill-opacity:1;fill-rule:nonzero;stroke:none" id="path64"></path>
        </g>
        <g id="g66" transform="translate(1084.9524,336.7322)" style="fill:#ffffff">
          <path d="m 0,0 h -19.779 l -1.968,-9.249 H 0.864 l -3.385,-9.454 h -33.505 l 9.684,45.676 H 6.573 l -2,-9.455 h -20.595 l -1.71,-8.063 H 2.047 Z" style="fill:#ffffff;fill-opacity:1;fill-rule:nonzero;stroke:none" id="path68"></path>
        </g>
        <g id="g70" transform="translate(1106.6025,344.479)" style="fill:#ffffff">
          <path d="m 0,0 h 5.824 c 4.353,0 7.379,1.724 7.379,5.815 0,2.741 -1.445,4.528 -5.349,4.528 H 2.178 Z M -1.891,-8.884 -5.575,-26.45 h -12.574 l 9.684,45.676 H 11.17 c 9.755,0 14.848,-4.839 14.848,-11.997 0,-6.215 -3.714,-10.416 -9.405,-12.035 2.45,-1.072 5.406,-3.846 3.861,-11.28 -1.011,-4.766 -1.741,-8.385 -1.526,-10.364 H 6.866 c -0.265,1.966 0.089,5.193 1.26,10.78 0.925,4.316 0.495,6.786 -4.035,6.786 z" style="fill:#ffffff;fill-opacity:1;fill-rule:nonzero;stroke:none" id="path72"></path>
        </g>
        <g id="g74" transform="translate(1167.92,336.7322)" style="fill:#ffffff">
          <path d="m 0,0 h -19.779 l -1.968,-9.249 H 0.864 l -3.385,-9.454 h -33.505 l 9.684,45.676 H 6.573 l -2,-9.455 h -20.595 l -1.71,-8.063 H 2.047 Z" style="fill:#ffffff;fill-opacity:1;fill-rule:nonzero;stroke:none" id="path76"></path>
        </g>
        <g id="g78" transform="translate(1171.379,318.0287)" style="fill:#ffffff">
          <path d="m 0,0 9.684,45.677 h 15.581 c 2.305,-11.261 5.52,-24.875 6.199,-31.096 h 0.202 c 0.687,5.173 2.341,13.707 3.887,20.992 l 2.132,10.104 H 49.476 L 39.792,0 H 24.944 C 22.987,9.294 19.09,26.782 18.496,32.677 H 18.317 C 17.571,27.09 15.78,18.686 14.08,10.645 L 11.833,0 Z" style="fill:#ffffff;fill-opacity:1;fill-rule:nonzero;stroke:none" id="path80"></path>
        </g>
        <g id="g82" transform="translate(1261.9587,333.2555)" style="fill:#ffffff">
          <path d="m 0,0 c -3.207,-11.03 -11.153,-16.076 -22.392,-16.076 -12.171,0 -18.242,7.257 -18.242,18.717 0,12.099 6.909,28.658 25.503,28.658 11.791,0 18.064,-6.343 18.005,-15.999 h -12.895 c -0.016,3.382 -1.021,6.767 -6.12,6.767 -7.624,0 -11.147,-12.266 -11.147,-20.059 0,-4.97 1.488,-8.782 6.21,-8.782 4.521,0 6.602,3.001 8.117,6.774 z" style="fill:#ffffff;fill-opacity:1;fill-rule:nonzero;stroke:none" id="path84"></path>
        </g>
        <g id="g86" transform="translate(1299.6331,336.7322)" style="fill:#ffffff">
          <path d="m 0,0 h -19.779 l -1.968,-9.249 H 0.864 l -3.385,-9.454 h -33.505 l 9.684,45.676 H 6.573 l -2,-9.455 h -20.595 l -1.71,-8.063 H 2.047 Z" style="fill:#ffffff;fill-opacity:1;fill-rule:nonzero;stroke:none" id="path88"></path>
        </g>
      </g>
    </g>
  </g>
</svg>
